<?xml version="1.0" encoding="UTF-8" standalone="no"?>
<!-- Created with Inkscape (http://www.inkscape.org/) -->

<svg
   version="1.1"
   id="svg209"
   width="90.879997"
   height="84.800003"
   viewBox="0 0 90.879997 84.800003"
   sodipodi:docname="caj.svg"
   inkscape:version="1.1.2 (0a00cf5339, 2022-02-04, custom)"
   xmlns:inkscape="http://www.inkscape.org/namespaces/inkscape"
   xmlns:sodipodi="http://sodipodi.sourceforge.net/DTD/sodipodi-0.dtd"
   xmlns="http://www.w3.org/2000/svg"
   xmlns:svg="http://www.w3.org/2000/svg">
  <defs
     id="defs213" />
  <sodipodi:namedview
     id="namedview211"
     pagecolor="#ffffff"
     bordercolor="#666666"
     borderopacity="1.0"
     inkscape:pageshadow="2"
     inkscape:pageopacity="0.0"
     inkscape:pagecheckerboard="0"
     showgrid="false"
     inkscape:zoom="9.8231129"
     inkscape:cx="45.454023"
     inkscape:cy="37.564467"
     inkscape:window-width="1920"
     inkscape:window-height="1011"
     inkscape:window-x="0"
     inkscape:window-y="32"
     inkscape:window-maximized="1"
     inkscape:current-layer="g215" />
  <g
     inkscape:groupmode="layer"
     inkscape:label="Image"
     id="g215">
    <g
       id="g291"
       transform="translate(0.52237449,0.2435507)">
      <path
         style="fill:#f3d34c;stroke-width:0.32"
         d="m 15.599999,82.323075 c 1.1,-0.06249 2.9,-0.06249 4,0 1.1,0.06249 0.2,0.113613 -2,0.113613 -2.2,0 -3.099999,-0.05113 -2,-0.113613 z m 6.74,0.01834 c 0.231,-0.09244 0.507,-0.08107 0.613334,0.02525 0.106333,0.106333 -0.08267,0.181965 -0.42,0.16807 -0.372782,-0.01536 -0.448608,-0.09118 -0.193334,-0.193331 z m 1.26,0.0067 c 0.22,-0.08877 0.58,-0.08877 0.8,0 0.22,0.08877 0.04,0.161405 -0.4,0.161405 -0.44,0 -0.62,-0.07263 -0.4,-0.161405 z m 2.568459,-0.02278 c 0.752652,-0.0676 1.904652,-0.06665 2.56,0.0022 0.655347,0.06876 0.03954,0.124067 -1.368459,0.122906 -1.408,-0.0013 -1.944193,-0.05742 -1.191541,-0.125021 z m 4.795272,0.0084 c 0.398052,-0.07654 0.974052,-0.07364 1.28,0.0065 0.305949,0.08009 -0.01974,0.14272 -0.723731,0.139168 -0.704,-0.0036 -0.954321,-0.06909 -0.556269,-0.145626 z m 2.576269,0.0077 c 0.230998,-0.09244 0.506998,-0.08107 0.613334,0.02525 0.106333,0.106333 -0.08267,0.181965 -0.42,0.16807 -0.372784,-0.01536 -0.448608,-0.09118 -0.193334,-0.193331 z m 1.6,0 c 0.230998,-0.09244 0.506998,-0.08107 0.613334,0.02525 0.106333,0.106333 -0.08267,0.181965 -0.42,0.16807 -0.372784,-0.01536 -0.448608,-0.09118 -0.193334,-0.193331 z m 2.228457,-0.01613 c 0.752653,-0.0676 1.904653,-0.06665 2.56,0.0022 0.655347,0.06876 0.03954,0.124067 -1.368457,0.122906 -1.408,-0.0013 -1.944195,-0.05742 -1.191543,-0.125021 z m 4.791543,0.0089 c 0.396,-0.07628 1.044,-0.07628 1.44,0 0.396,0.07627 0.072,0.138678 -0.72,0.138678 -0.792,0 -1.116,-0.06241 -0.72,-0.138678 z m 2.58,0.0072 c 0.230998,-0.09244 0.506998,-0.08107 0.613334,0.02525 0.106333,0.106333 -0.08267,0.181965 -0.42,0.16807 -0.372784,-0.01536 -0.448608,-0.09118 -0.193334,-0.193331 z m 1.599999,0 c 0.230999,-0.09244 0.506999,-0.08107 0.613335,0.02525 0.106333,0.106333 -0.08267,0.181965 -0.42,0.16807 -0.372784,-0.01536 -0.448608,-0.09118 -0.193335,-0.193331 z m 2.548458,-0.01613 c 0.752653,-0.0676 1.904653,-0.06665 2.56,0.0022 0.655347,0.06876 0.03954,0.124067 -1.368458,0.122906 -1.408,-0.0013 -1.944195,-0.05742 -1.191542,-0.125021 z m 4.471542,0.0089 c 0.396,-0.07628 1.044,-0.07628 1.44,0 0.396,0.07627 0.072,0.138678 -0.72,0.138678 -0.792,0 -1.116,-0.06241 -0.72,-0.138678 z m 2.9,0.0072 c 0.230999,-0.09244 0.506999,-0.08107 0.613335,0.02525 0.106332,0.106333 -0.08267,0.181965 -0.42,0.16807 -0.372784,-0.01536 -0.448608,-0.09118 -0.193335,-0.193331 z m 3.18,-0.01901 2.32,-0.110435 v -1.082756 c 0,-0.79575 0.229504,-1.263283 0.865834,-1.76382 0.762006,-0.599392 0.816905,-0.759412 0.457827,-1.334388 -0.224403,-0.359324 -0.350243,-0.711081 -0.279648,-0.781676 0.07059,-0.0706 0.328624,0.245846 0.573395,0.703206 0.414957,0.77535 0.386144,0.87447 -0.426182,1.466208 -0.691978,0.504067 -0.871226,0.892499 -0.871226,1.887952 v 1.253309 l -2.48,-0.06358 -2.48,-0.06358 2.32,-0.110438 z m -46.589472,-0.7224 c 0,-0.44 0.07263,-0.62 0.161403,-0.4 0.08877,0.22 0.08877,0.58 0,0.8 -0.08877,0.22 -0.161403,0.04 -0.161403,-0.4 z m 49.090045,-6.306199 c -0.173658,-0.456064 -0.136903,-0.492819 0.179136,-0.179136 0.218694,0.217069 0.317014,0.475277 0.218489,0.573802 -0.09852,0.09853 -0.277456,-0.07907 -0.397625,-0.394666 z M 12.825263,73.733337 c 0.01535,-0.372784 0.09118,-0.448608 0.193333,-0.193334 0.09244,0.230998 0.08107,0.506998 -0.02526,0.613334 -0.106333,0.106333 -0.181965,-0.08267 -0.16807,-0.42 z m 48.608316,-1.901069 c -0.222631,-0.268253 -0.34281,-0.549702 -0.267069,-0.625446 0.07574,-0.07574 0.313485,0.143737 0.528314,0.487734 0.464579,0.743911 0.309641,0.825587 -0.261245,0.137712 z m -49.566063,-1.874435 -0.772482,-0.997831 0.915513,0.870304 c 0.503532,0.478666 0.85115,0.92769 0.772483,0.997828 -0.07867,0.07014 -0.490648,-0.321495 -0.915514,-0.870301 z M 8.8799997,68.894169 c 0.396,-0.07628 1.044,-0.07628 1.4400003,0 0.396,0.07627 0.072,0.138678 -0.7200003,0.138678 -0.792,0 -1.116,-0.06241 -0.72,-0.138678 z M 5.1839998,68.416002 c -0.2112,-0.2112 -0.3796211,-0.6072 -0.3742691,-0.88 0.00722,-0.367788 0.1035421,-0.330566 0.3726515,0.144 0.1996067,0.352 0.5192279,0.745796 0.7102694,0.875101 0.2323236,0.157245 0.2360816,0.236723 0.011347,0.24 -0.1847999,0.0026 -0.5087999,-0.167901 -0.7199999,-0.379101 z m 2.116,0.165405 c 0.231,-0.09244 0.5069999,-0.08107 0.6133334,0.02525 0.1063331,0.106333 -0.082667,0.181965 -0.42,0.168071 -0.3727818,-0.01536 -0.448608,-0.09118 -0.1933334,-0.193332 z M 61.439998,68.178889 c 0,-0.165613 0.142352,-0.389095 0.316336,-0.496621 0.181395,-0.112109 0.23504,0.01635 0.125763,0.301114 -0.212733,0.554374 -0.442099,0.655804 -0.442099,0.195507 z m 1.079773,-1.76833 c -0.09908,-0.258195 -0.118391,-0.654195 -0.04291,-0.88 0.07548,-0.225805 0.213094,-0.01456 0.305811,0.469443 0.181037,0.945031 0.03168,1.178253 -0.262899,0.410557 z M 4.8806984,65.120002 c 0.00355,-0.704 0.069083,-0.95432 0.145625,-0.556269 0.076542,0.398052 0.073636,0.974052 -0.00646,1.280001 -0.080094,0.305948 -0.1427191,-0.01973 -0.1391674,-0.723732 z M 63.712123,64.094556 c 0.233008,-0.387997 0.492528,-0.636567 0.576713,-0.552381 0.08419,0.08419 -0.106454,0.401635 -0.423648,0.705446 -0.55102,0.527773 -0.55784,0.520954 -0.153065,-0.153065 z M 5.1823835,62.560002 c 0.00652,-0.528 0.078239,-0.705261 0.1593734,-0.39391 0.081134,0.31135 0.075798,0.74335 -0.011856,0.96 -0.087657,0.216649 -0.154039,-0.03809 -0.1475174,-0.56609 z m 0.3318573,-2.08 c 0,-0.616 0.065854,-0.868 0.1463433,-0.56 0.080489,0.308 0.080489,0.812 0,1.12 -0.080489,0.308 -0.1463433,0.056 -0.1463433,-0.56 z M 64.500571,59.746201 c 0.120169,-0.315591 0.2991,-0.493191 0.397625,-0.394666 0.09852,0.09853 2.05e-4,0.356733 -0.218489,0.573802 -0.316039,0.313683 -0.352794,0.276928 -0.179136,-0.179136 z M 5.5142734,44.160002 C 5.4709205,36.504001 5.3706565,29.232001 5.2914645,28.000001 l -0.1439856,-2.24 0.3095923,2.203523 c 0.1729814,1.231196 0.2712979,8.361962 0.2228086,16.160001 L 5.5930968,58.080002 Z M 66.559998,56.978888 c 0,-0.165612 0.142352,-0.389094 0.316336,-0.49662 0.181395,-0.112109 0.23504,0.01635 0.125763,0.301113 -0.212733,0.554375 -0.442099,0.655805 -0.442099,0.195507 z m 1.414659,-2.375097 c 0.365936,-0.75153 0.710086,-1.258589 0.764778,-1.126797 0.119142,0.287117 -0.782775,2.093136 -1.162503,2.327821 -0.147187,0.09097 0.03178,-0.449495 0.397725,-1.201024 z M 31.606946,53.181915 c -3.296179,-0.980361 -5.93468,-1.840848 -5.863336,-1.912192 0.07135,-0.07134 2.88637,0.678007 6.255611,1.665226 3.369242,0.987216 6.259741,1.712218 6.423335,1.611111 0.163593,-0.101104 0.297443,-0.03133 0.297443,0.155056 0,0.5344 -0.739328,0.376492 -7.113053,-1.519201 z m 10.633053,-1.163027 c 0,-1.661613 0.121875,-3.096438 0.270838,-3.188502 0.14896,-0.09206 2.115088,-0.667869 4.369174,-1.279565 2.254083,-0.611699 4.218003,-1.300874 4.364263,-1.531501 0.146259,-0.230624 0.268131,-1.226992 0.270825,-2.214147 l 0.0049,-1.794826 -3.92,0.752647 c -2.156,0.413955 -4.245891,0.753628 -4.644201,0.754828 l -0.724199,0.0022 0.0842,-10.960001 0.0842,-10.96 h 7.679999 7.68 l -0.10879,2.88 c -0.05983,1.584 -0.246627,3.024 -0.415098,3.2 -0.16847,0.176 -2.459517,0.366374 -5.091209,0.423054 l -4.784903,0.103055 v 3.946496 3.946496 l 1.2,-0.145555 c 0.66,-0.08006 2.672986,-0.328714 4.473303,-0.552576 1.800316,-0.223859 3.423206,-0.314375 3.606422,-0.201139 0.229968,0.142128 0.232944,1.338342 0.0096,3.863024 -0.177933,2.01143 -0.478605,5.601146 -0.66816,7.977146 -0.189558,2.376 -0.460154,4.438086 -0.601325,4.582413 -0.141171,0.144326 -1.535389,0.600502 -3.098262,1.013724 -1.562874,0.413223 -4.209587,1.122775 -5.881587,1.576781 -4.445379,1.207079 -4.16,1.357591 -4.16,-2.194032 z m 6.695923,1.116243 c 3.234998,-0.871676 6.006079,-1.709132 6.157961,-1.861014 0.348794,-0.348794 1.438864,-15.328033 1.137392,-15.629505 -0.122605,-0.122604 -2.008515,0.0152 -4.190909,0.306234 -2.182393,0.291037 -4.204339,0.529155 -4.493209,0.529155 -0.465811,0 -0.515149,-0.497693 -0.436189,-4.4 l 0.08903,-4.4 4.96,-0.16 4.96,-0.16 0.241264,-2.4 c 0.132695,-1.32 0.172173,-2.582713 0.08773,-2.806028 -0.119181,-0.315185 -1.784057,-0.38678 -7.44126,-0.32 l -7.287731,0.08603 -0.08431,10.64 c -0.0666,8.404423 6.4e-4,10.639636 0.32,10.638257 0.222371,-9.6e-4 2.270218,-0.360957 4.550765,-0.800001 2.28055,-0.43904 4.18855,-0.798256 4.239999,-0.798256 0.05145,0 0.09355,1.083089 0.09355,2.406861 0,2.822279 0.43561,2.487485 -5.28,4.058001 l -3.839999,1.055139 -0.09246,2.8 c -0.05085,1.54 0.02432,2.8 0.167053,2.8 0.142733,0 2.906329,-0.71319 6.141328,-1.584871 z m 21.304076,-1.935129 c 0.866768,-0.88 1.647942,-1.6 1.735942,-1.6 0.088,0 -0.549174,0.72 -1.415942,1.6 -0.866768,0.88 -1.647943,1.6 -1.735943,1.6 -0.088,0 0.549175,-0.72 1.415943,-1.6 z m -45.599999,-3.04 c 0,-2.164464 0.111476,-3.04 0.38706,-3.04 0.633201,0 6.35945,1.680156 6.215808,1.823798 -0.07269,0.07269 -1.401853,-0.23592 -2.953686,-0.685814 -1.551832,-0.449892 -2.945958,-0.817984 -3.098058,-0.817984 -0.152099,0 -0.230324,1.296329 -0.173834,2.880736 0.05649,1.584403 -0.0053,2.880403 -0.13729,2.88 -0.132,-4.07e-4 -0.24,-1.368736 -0.24,-3.040736 z m 7.52,-0.808967 c -0.46491,-0.214976 -0.311706,-0.244486 0.56,-0.107872 l 1.2,0.188064 V 34.595614 21.760001 h 2.4 c 1.32,0 2.400323,0.108 2.40072,0.24 3.2e-4,0.132 -1.005939,0.192248 -2.236304,0.133886 l -2.237027,-0.106114 -0.08369,12.746113 c -0.08195,12.480781 -0.09702,12.747437 -0.723696,12.8096 -0.352,0.03492 -0.928,-0.06969 -1.28,-0.232451 z m 40.423839,-0.526771 c 0.136553,-0.669747 0.21702,-0.750214 0.310275,-0.310272 0.06925,0.326694 -0.01373,0.733613 -0.184368,0.904262 -0.200365,0.200365 -0.244963,-0.01005 -0.125907,-0.59399 z m 0.401424,-1.570928 c 0.01536,-0.372784 0.09118,-0.448608 0.193331,-0.193334 0.09244,0.230998 0.08107,0.506998 -0.02525,0.613334 -0.106336,0.106333 -0.181965,-0.08267 -0.168071,-0.42 z m 0.32,-1.6 c 0.01536,-0.372784 0.09118,-0.448608 0.193331,-0.193334 0.09244,0.230998 0.08107,0.506998 -0.02525,0.613334 -0.106336,0.106333 -0.181965,-0.08267 -0.168071,-0.42 z m 1.967116,-4.158525 c 0.303812,-0.317194 0.621261,-0.507834 0.705447,-0.423648 0.08419,0.08419 -0.164384,0.343706 -0.552381,0.576714 -0.674019,0.404774 -0.680838,0.397955 -0.153066,-0.153066 z m 1.207619,-0.577504 c 0,-0.06748 0.36,-0.191514 0.8,-0.275626 0.44,-0.08411 0.8,-0.0289 0.8,0.122695 0,0.151593 -0.36,0.275625 -0.8,0.275625 -0.44,0 -0.8,-0.05521 -0.8,-0.122694 z m 2.239012,-3.957306 c 0.418739,-0.572 0.811331,-1.04 0.872425,-1.04 0.243011,0 -0.550403,1.200173 -1.075133,1.626317 -0.345686,0.280739 -0.268412,0.05723 0.202708,-0.586317 z m 1.920988,-2.284352 c 0.723978,-0.585792 0.758592,-0.717068 0.36424,-1.381475 -0.412051,-0.694225 -0.405318,-0.705052 0.123757,-0.198986 0.671494,0.642291 0.456631,1.37112 -0.54992,1.865357 -0.693369,0.340458 -0.689619,0.3232 0.06192,-0.284896 z m 0.180573,-4.741847 c -0.173657,-0.456063 -0.136902,-0.49282 0.179136,-0.179134 0.218695,0.217066 0.317015,0.475277 0.21849,0.573801 -0.09853,0.09852 -0.277456,-0.07908 -0.397626,-0.394667 z m -0.500573,-2.241286 c 0,-0.183783 0.252,-0.531783 0.56,-0.773333 0.518004,-0.406245 0.524794,-0.391184 0.09055,0.200818 -0.258199,0.352 -0.510199,0.7 -0.56,0.773333 -0.0498,0.07333 -0.09055,-0.01703 -0.09055,-0.200818 z M 4.9135854,22.560001 c -9.6e-4,-1.584 0.053137,-2.272345 0.1202484,-1.529656 0.067112,0.74269 0.067909,2.03869 0.00176,2.88 -0.066124,0.841311 -0.121033,0.233656 -0.1220084,-1.350344 z m 77.0330776,2 c 0.07333,-0.044 0.565334,-0.44 1.093334,-0.88 l 0.96,-0.8 -0.775779,0.88 c -0.426682,0.484 -0.918682,0.88 -1.093334,0.88 -0.174653,0 -0.257552,-0.036 -0.184221,-0.08 z m 2.172515,-3.36 c -0.398038,-0.507538 -0.38672,-0.518857 0.120819,-0.120818 0.53304,0.418038 0.702554,0.680818 0.439181,0.680818 -0.06645,0 -0.318448,-0.252 -0.56,-0.56 z m -0.536797,-1.52 c 0.0065,-0.528 0.07824,-0.70526 0.159373,-0.39391 0.08113,0.311349 0.0758,0.743349 -0.01187,0.96 -0.08764,0.21665 -0.154022,-0.03809 -0.147501,-0.56609 z m -79.0281402,-2.72 c 0,-0.616 0.065854,-0.868 0.1463434,-0.56 0.080489,0.308 0.080489,0.812 0,1.12 -0.080489,0.308 -0.1463434,0.056 -0.1463434,-0.56 z m 81.5257562,0.73298 c 0.264,-0.09707 0.768,-0.409702 1.12,-0.694737 0.634551,-0.51383 0.63481,-0.512111 0.0304,0.201757 -0.335277,0.396 -0.839277,0.708631 -1.12,0.694737 -0.433209,-0.02144 -0.437808,-0.05196 -0.0304,-0.201757 z m 0.969802,-1.53298 c 0,-0.176 0.139587,-0.536 0.310198,-0.8 0.170611,-0.264 0.310199,-0.336 0.310199,-0.16 0,0.176 -0.139588,0.536 -0.310199,0.8 -0.170611,0.264 -0.310198,0.336 -0.310198,0.16 z m -5.849802,-1.671487 c 0.572,-0.07099 1.508,-0.07099 2.08,0 0.572,0.07098 0.104,0.129063 -1.04,0.129063 -1.144,0 -1.612,-0.05808 -1.04,-0.129063 z m 5.76,0.01956 c 0.22,-0.08877 0.58,-0.08877 0.8,0 0.22,0.08877 0.04,0.161404 -0.4,0.161404 -0.44,0 -0.62,-0.07263 -0.4,-0.161404 z M 4.2105263,13.76 c 0,-0.44 0.072631,-0.62 0.1614035,-0.4 0.088772,0.22 0.088772,0.58 0,0.800001 -0.088772,0.22 -0.1614035,0.04 -0.1614035,-0.400001 z m 74.4494707,0.421404 c 0.230999,-0.09244 0.506999,-0.08107 0.613335,0.02526 0.106333,0.106333 -0.08267,0.181965 -0.42,0.16807 -0.372784,-0.01535 -0.448608,-0.09118 -0.193335,-0.193333 z M 76.488925,13.29076 c -0.214188,-0.258083 -0.33982,-0.613376 -0.27918,-0.78954 0.06064,-0.176164 0.276704,0.03499 0.480144,0.469241 0.421702,0.900123 0.360803,0.997185 -0.200964,0.320299 z M 3.8652629,11.653334 C 3.8806165,11.280552 3.956444,11.204726 4.0585963,11.46 c 0.092439,0.231 0.08107,0.507 -0.025264,0.613334 -0.1063334,0.106333 -0.1819651,-0.08267 -0.1680694,-0.42 z M 76.751924,11.04 c 0.198265,-0.352 1.171465,-1.5039997 2.162669,-2.5599997 0.991203,-1.056 1.404672,-1.4160001 0.918822,-0.8 C 78.354967,9.5544992 76.368836,11.72014 76.751924,11.04 Z M 28.583658,10.96009 c 6.657013,-0.04831 17.457012,-0.04829 24.000001,5e-5 6.542985,0.04834 1.096339,0.08786 -12.10366,0.08784 -13.2,-2.7e-5 -18.553353,-0.03958 -11.896341,-0.08789 z M 3.6071564,9.2800003 c 0,-0.792 0.062405,-1.116 0.138678,-0.72 0.076273,0.396 0.076273,1.044 0,1.4399997 -0.076273,0.396 -0.138678,0.072 -0.138678,-0.7199997 z M 2.9052631,5.8933336 c 0.015355,-0.3727817 0.091181,-0.448608 0.1933333,-0.1933334 0.092439,0.231 0.08107,0.507 -0.025263,0.6133335 C 2.967,6.4196668 2.8913684,6.2306668 2.9052631,5.8933336 Z M 2.6471564,3.8400001 c 0,-0.792 0.062405,-1.116 0.1386781,-0.72 0.076273,0.396 0.076273,1.044 0,1.4400001 -0.076273,0.396 -0.1386781,0.072 -0.1386781,-0.7200001 z M 80.82057,3.6138011 c -0.173657,-0.4560635 -0.136902,-0.4928198 0.179136,-0.1791344 0.218695,0.2170669 0.317015,0.4752771 0.21849,0.573801 -0.09853,0.098524 -0.277456,-0.079076 -0.397626,-0.3946666 z"
         id="path305" />
      <path
         style="fill:#fcd83c;stroke-width:0.32"
         d="M 12.995623,81.19735 C 12.888041,80.623888 12.81759,78.003612 12.839064,75.374515 l 0.03904,-4.78018 -0.957907,-0.855891 C 11.103732,69.00893 10.56048,68.849084 8.2409338,68.655868 4.9150907,68.378825 4.6794293,68.091199 5.1872689,64.92886 5.6719185,61.910924 5.8944046,32.772558 5.4741262,27.360001 c -0.1913267,-2.464 -0.4945209,-6.424 -0.6737651,-8.8 C 4.3984898,13.232924 3.9207192,9.4147367 3.3306114,6.8142351 3.082775,5.7220645 2.8799999,4.3180645 2.8799999,3.694235 V 2.5600001 H 41.593496 80.306989 l 0.646506,1.2672519 c 0.355574,0.6969885 0.646502,1.4109891 0.646502,1.5866679 0,0.175679 -1.077881,1.4328359 -2.395292,2.7936823 -2.295876,2.3715698 -3.341911,4.1726288 -2.868394,4.9387928 0.578154,0.935474 2.590496,1.386949 6.383686,1.432199 5.238307,0.06249 5.040903,0.03231 4.675696,0.714705 -0.168749,0.315314 -0.281817,0.849191 -0.251257,1.186392 0.03648,0.402489 -0.274208,0.758975 -0.904439,1.037776 -2.146265,0.949462 -2.564595,1.255865 -2.664681,1.951729 -0.05757,0.400294 0.132108,1.089194 0.42152,1.530889 0.503161,0.767921 0.489251,0.851524 -0.317735,1.909534 -0.464163,0.60855 -1.373846,1.35759 -2.02152,1.664534 -1.096233,0.519528 -1.171529,0.646082 -1.089958,1.831964 0.0482,0.700636 0.07974,1.921884 0.07009,2.713884 -0.0096,0.792 0.16175,1.77613 0.380873,2.186955 0.344765,0.646382 0.310746,0.818725 -0.252659,1.279999 -1.486035,1.216662 -2.642921,3.127613 -2.744557,4.533472 -0.09442,1.306067 -0.178243,1.421648 -1.221376,1.684106 -1.167055,0.293632 -2.246086,1.220435 -2.695788,2.315468 -0.227159,0.55314 -1.440525,5.104212 -2.004915,7.520001 -0.102794,0.44 -0.959191,1.617309 -1.903098,2.616243 -0.94391,0.998934 -1.716198,2.014742 -1.716198,2.25735 0,0.242609 -0.432,1.122301 -0.96,1.954871 -0.528,0.83257 -0.96,1.868762 -0.96,2.30265 0,0.437488 -0.186931,0.788886 -0.419661,0.788886 -0.230813,0 -0.734813,0.29361 -1.12,0.652467 -0.555581,0.5176 -0.700339,1.014276 -0.700339,2.402912 0,1.514228 -0.13153,1.888077 -0.974669,2.770346 -0.606496,0.634637 -0.939725,1.286576 -0.882157,1.725872 0.05088,0.388288 -0.132678,0.972023 -0.40791,1.297191 -0.901139,1.064627 -1.293302,3.008921 -0.804525,3.988707 0.237331,0.475738 0.359923,1.239443 0.272432,1.697123 -0.141037,0.737802 0.490717,2.690829 1.584813,4.899338 0.30352,0.612675 0.232995,0.808896 -0.497146,1.383226 -0.625443,0.491974 -0.850838,0.959817 -0.850838,1.766044 v 1.096775 H 37.475612 13.191226 Z M 43.756661,66.28453 c 1.717837,-0.50351 6.003337,-1.750691 9.523337,-2.771517 3.52,-1.020825 6.492726,-1.94086 6.606061,-2.044528 0.113331,-0.103667 0.730918,-6.380483 1.372416,-13.948483 0.641494,-7.568001 1.512854,-17.720001 1.936355,-22.560001 0.423501,-4.84 0.868509,-9.988 0.988905,-11.440001 l 0.218903,-2.64 H 40.501711 16.600785 l 0.186381,1.36 c 0.18171,1.325925 1.097816,12.053907 3.053691,35.760002 0.530013,6.424 1.075745,12.110995 1.212738,12.63777 0.24617,0.946585 0.357286,0.990067 9.517741,3.724326 5.097764,1.52161 9.447162,2.782615 9.665325,2.802234 0.218166,0.01962 1.802166,-0.376291 3.52,-0.879802 z M 40.639999,39.200001 v -23.84 h 9.581113 c 5.269613,0 9.637526,0.108 9.706473,0.24 0.06895,0.132 -0.202976,3.912 -0.604275,8.4 -0.401302,4.488 -1.240448,14.123232 -1.864768,21.411626 -0.624323,7.288397 -1.171897,13.277655 -1.216838,13.309463 -0.137834,0.09756 -15.194627,4.318912 -15.404777,4.318912 -0.108311,0 -0.196928,-10.728 -0.196928,-23.840001 z m 5.759999,15.012919 c 1.672,-0.454006 4.318714,-1.163558 5.881587,-1.576781 1.562874,-0.413222 2.957092,-0.869398 3.098263,-1.013724 0.141171,-0.144327 0.411766,-2.206413 0.601325,-4.582413 0.189555,-2.376 0.490227,-5.965716 0.66816,-7.977146 0.223334,-2.524682 0.220358,-3.720896 -0.0096,-3.863024 -0.183216,-0.113236 -1.806106,-0.02272 -3.606423,0.201139 -1.800316,0.223862 -3.813302,0.472521 -4.473302,0.552576 l -1.2,0.145555 V 32.152606 28.20611 l 4.784902,-0.103055 c 2.631683,-0.05668 4.92273,-0.247054 5.0912,-0.423054 0.168471,-0.176 0.355264,-1.616 0.415098,-3.2 l 0.10879,-2.88 h -7.68 -7.679999 l -0.0842,10.96 -0.0842,10.960001 0.724202,-0.0022 c 0.39831,-0.0013 2.488201,-0.340874 4.644201,-0.754829 l 3.92,-0.752647 -0.0049,1.794826 c -0.0026,0.987155 -0.124566,1.983523 -0.270825,2.214147 -0.146259,0.230627 -2.110179,0.919802 -4.364263,1.531501 -2.254086,0.611696 -4.220214,1.187501 -4.369174,1.279565 -0.148963,0.09206 -0.270838,1.52689 -0.270838,3.188502 0,3.551623 -0.285379,3.401111 4.16,2.194033 z"
         id="path303" />
      <path
         style="fill:#9f9f9f;stroke-width:0.32"
         d="M 11.159182,84.240003 C 10.752937,83.722 10.767998,83.715209 11.36,84.149453 c 0.352,0.258198 0.7,0.510198 0.773333,0.56 0.07333,0.0498 -0.01703,0.09055 -0.200818,0.09055 -0.183783,0 -0.531783,-0.252 -0.773333,-0.56 z m 52.200816,0.119181 c 0,-0.06645 0.252,-0.318448 0.56,-0.56 0.507539,-0.398039 0.518857,-0.38672 0.120819,0.120819 -0.418038,0.53304 -0.680819,0.702554 -0.680819,0.439181 z M 10.585263,83.013337 c 0.01535,-0.372784 0.09118,-0.448608 0.193333,-0.193334 0.09244,0.230998 0.08107,0.507002 -0.02526,0.613334 -0.106333,0.106333 -0.181965,-0.08267 -0.16807,-0.42 z m -0.258107,-2.053334 c 0,-0.792 0.06241,-1.116 0.138678,-0.72 0.07627,0.396 0.07627,1.044 0,1.44 -0.07627,0.396 -0.138678,0.072 -0.138678,-0.72 z m 55.643367,-2.24 c 0,-0.44 0.07263,-0.62 0.161404,-0.4 0.08877,0.22 0.08877,0.58 0,0.8 -0.08877,0.22 -0.161404,0.04 -0.161404,-0.4 z m -55.663551,-3.6 -0.06697,-3.44 H 8.8188851 c -0.781613,0 -1.4880713,-0.108 -1.5699071,-0.24 -0.081836,-0.132 0.5677798,-0.189421 1.4435907,-0.1276 0.8758108,0.06182 1.6597943,0.28807 1.7421853,0.502777 0.08239,0.214707 0.102414,1.820128 0.0445,3.5676 l -0.105306,3.177223 z m 55.153599,1.773801 c -0.173658,-0.456064 -0.136903,-0.492819 0.179136,-0.179136 0.218694,0.217069 0.317014,0.475277 0.218489,0.573802 -0.09853,0.09852 -0.277456,-0.07908 -0.397625,-0.394666 z M 3.649596,70.320002 c -0.6044041,-0.713868 -0.6041452,-0.715587 0.030403,-0.201756 0.352,0.285033 0.856,0.597667 1.12,0.694736 0.4074061,0.149801 0.402808,0.180317 -0.030403,0.201757 -0.2807222,0.01389 -0.7847222,-0.298736 -1.12,-0.694737 z m 60.350402,-1.322678 c 0,-0.06747 0.288198,-0.198042 0.640441,-0.290157 0.352244,-0.09211 0.559744,-0.03691 0.461114,0.122679 -0.17224,0.278691 -1.101555,0.41998 -1.101555,0.167478 z M 2.3023835,67.360002 c 0.00652,-0.528 0.07824,-0.70526 0.1593734,-0.39391 0.081134,0.31135 0.075798,0.74335 -0.011857,0.96 -0.087655,0.21665 -0.1540377,-0.03809 -0.1475164,-0.56609 z M 65.945262,67.013337 c 0.01536,-0.372784 0.09118,-0.448608 0.193331,-0.193335 0.09244,0.230999 0.08107,0.506999 -0.02525,0.613335 -0.106336,0.106333 -0.181965,-0.08267 -0.16807,-0.42 z m 0.67712,-3.493335 c 0.0065,-0.528 0.07824,-0.705261 0.159373,-0.39391 0.08113,0.31135 0.0758,0.74335 -0.01187,0.96 -0.08766,0.216649 -0.154039,-0.03809 -0.147517,-0.56609 z M 2.5852631,63.173337 c 0.015355,-0.372784 0.091181,-0.448608 0.1933333,-0.193335 0.092439,0.230999 0.08107,0.506999 -0.025263,0.613335 -0.1063333,0.106332 -0.1819649,-0.08267 -0.1680703,-0.42 z M 3.0286078,45.280002 c -5.59e-5,-8.976001 0.040936,-12.694065 0.091093,-8.262369 0.050157,4.4317 0.050203,11.7757 1.015e-4,16.320001 -0.050101,4.544304 -0.091139,0.918368 -0.091194,-8.057632 z M 67.199998,60.889113 c 0.264,-0.0992 0.912,-0.459735 1.44,-0.801184 l 0.96,-0.62082 -0.96,0.824858 c -0.528,0.45367 -1.176,0.814202 -1.44,0.801184 -0.426666,-0.02106 -0.426666,-0.04371 0,-0.204038 z m 2.290525,-2.329111 c 0,-0.44 0.07263,-0.62 0.161404,-0.4 0.08877,0.22 0.08877,0.58 0,0.8 -0.08877,0.22 -0.161404,0.04 -0.161404,-0.4 z m -31.06526,-4.986666 c 0.01536,-0.372784 0.09118,-0.448608 0.193331,-0.193334 0.09244,0.230998 0.08107,0.506998 -0.02525,0.613334 -0.106336,0.106333 -0.181965,-0.08267 -0.16807,-0.42 z m 34.054735,-1.093334 c 0.866768,-0.88 1.647942,-1.6 1.735942,-1.6 0.088,0 -0.549174,0.72 -1.415942,1.6 -0.866768,0.88 -1.647943,1.6 -1.735943,1.6 -0.088,0 0.549175,-0.72 1.415943,-1.6 z m 2.089801,-3.68 c 0,-0.176 0.139587,-0.536 0.310199,-0.8 0.170611,-0.264 0.310198,-0.336 0.310198,-0.16 0,0.176 -0.139587,0.536 -0.310198,0.8 -0.170612,0.264 -0.310199,0.336 -0.310199,0.16 z m 0.975463,-3.866666 c 0.01536,-0.372784 0.09118,-0.448608 0.193331,-0.193334 0.09244,0.230998 0.08107,0.506998 -0.02525,0.613334 -0.106336,0.106333 -0.181965,-0.08267 -0.168071,-0.42 z m 0.319999,-1.28 c 0.01536,-0.372784 0.09118,-0.448608 0.193332,-0.193334 0.09244,0.230998 0.08107,0.506998 -0.02525,0.613334 -0.106336,0.106333 -0.181965,-0.08267 -0.168071,-0.42 z m 2.854736,-2.499098 c 0,-0.06917 0.223479,-0.21152 0.496621,-0.316336 0.284775,-0.109277 0.413223,-0.05563 0.301114,0.125763 -0.187923,0.304068 -0.797735,0.449744 -0.797735,0.190573 z m 1.67424,-2.434237 c 0,-0.616 0.06586,-0.868 0.146346,-0.56 0.08049,0.308 0.08049,0.812 0,1.12 -0.08049,0.308 -0.146346,0.056 -0.146346,-0.56 z m 2.16576,-4.280819 c 0,-0.06645 0.252,-0.318448 0.56,-0.56 0.507539,-0.398038 0.518858,-0.38672 0.120819,0.120819 -0.418038,0.53304 -0.680819,0.702554 -0.680819,0.439181 z m 0.667392,-4.359181 c -0.0097,-0.264 0.121997,-0.696 0.292608,-0.96 0.378023,-0.584949 0.378023,-0.07971 0,0.8 -0.181337,0.421997 -0.281008,0.476498 -0.292608,0.16 z M 83.39953,27.34763 c -0.308794,-0.804702 -0.217699,-1.012338 0.15953,-0.363628 0.18678,0.3212 0.272192,0.651411 0.189801,0.733801 -0.08239,0.08239 -0.23959,-0.08419 -0.349331,-0.370173 z M 2.6223835,26.080001 c 0.00652,-0.528 0.07824,-0.70526 0.1593734,-0.39391 0.081134,0.31135 0.075798,0.74335 -0.011857,0.96 -0.087655,0.21665 -0.1540377,-0.03809 -0.1475164,-0.56609 z m -0.3081427,-6.88 c 0,-0.616 0.065854,-0.868 0.1463433,-0.56 0.080489,0.308 0.080489,0.812 0,1.12 -0.080489,0.308 -0.1463433,0.056 -0.1463433,-0.56 z m -0.3135422,-3.04 c 0.00355,-0.704 0.069083,-0.954321 0.1456248,-0.55627 0.076542,0.398053 0.073636,0.974053 -0.00646,1.28 -0.080093,0.305949 -0.1427187,-0.01973 -0.1391669,-0.72373 z m 88.6098234,-1.76 C 90.610522,13.96 90.683155,13.78 90.771927,14 c 0.08877,0.220001 0.08877,0.580001 0,0.800001 -0.08877,0.22 -0.161405,0.04 -0.161405,-0.4 z M 1.6623835,13.92 c 0.00652,-0.528 0.07824,-0.705259 0.1593735,-0.393909 0.081134,0.311349 0.075798,0.743349 -0.011857,0.96 C 1.7222443,14.702741 1.655862,14.448001 1.6623835,13.92 Z M 89.279997,12.293343 c -0.538032,-0.298546 -0.629453,-0.445453 -0.279181,-0.448625 0.286448,-0.0026 0.70008,0.211282 0.919181,0.475282 0.46729,0.563048 0.419142,0.561043 -0.64,-0.02666 z M 1.3052631,11.973334 C 1.320618,11.600552 1.396444,11.524726 1.4985964,11.78 c 0.092439,0.231 0.08107,0.507 -0.025263,0.613334 -0.1063333,0.106333 -0.1819649,-0.08267 -0.1680703,-0.42 z m 79.9031919,-0.04805 c 0.752653,-0.0676 1.904653,-0.06665 2.56,0.0021 0.655347,0.06876 0.03954,0.124069 -1.368458,0.122907 -1.408,-0.0012 -1.944195,-0.05742 -1.191542,-0.12502 z m 6.411542,0.01612 c 0.230998,-0.09244 0.507002,-0.08107 0.613334,0.02526 0.106333,0.106333 -0.08267,0.181965 -0.419999,0.16807 -0.372784,-0.01535 -0.448608,-0.09118 -0.193335,-0.193333 z m -8.26,-0.201533 c 0,-0.05507 0.468,-0.523072 1.04,-1.040001 l 1.04,-0.9398687 L 80.500129,10.8 c -0.87609,0.969426 -1.140132,1.187089 -1.140132,0.93987 z M 1.0515245,9.4400003 c 0.0024,-0.88 0.064548,-1.2020202 0.1381014,-0.7156 0.073554,0.4864199 0.071588,1.2064199 -0.00437,1.5999997 C 1.1093021,10.71798 1.0491221,10.32 1.0515245,9.4400003 Z m 81.6684725,-1.12 c 0.318557,-0.352 0.651194,-0.64 0.739194,-0.64 0.088,0 -0.100637,0.288 -0.419194,0.64 -0.318557,0.352 -0.651193,0.64 -0.739193,0.64 -0.088,0 0.100636,-0.288 0.419193,-0.64 z m 1.19424,-2.8800001 c 0,-0.616 0.06586,-0.868 0.146346,-0.56 0.08049,0.308 0.08049,0.812 0,1.12 -0.08049,0.308 -0.146346,0.056 -0.146346,-0.56 z M 82.305172,0.94544695 C 81.920999,0.3302892 81.258868,0.32000001 42.056248,0.32000001 c -27.306517,0 -40.0784333,0.10633053 -40.5572853,0.3376532 C 0.82376864,0.98382432 0.82112295,0.97838343 1.4211614,0.4976532 1.9756294,0.05343252 6.3251902,0 41.931563,0 81.455044,0 81.826132,0.00588645 82.401773,0.64196188 82.721306,0.9950409 82.918173,1.348492 82.839255,1.4274088 82.76034,1.5063256 82.52,1.2894428 82.305172,0.94544695 Z"
         id="path301" />
      <path
         style="fill:#d9b82b;stroke-width:0.32"
         d="m 13.06,82.341408 c 0.231,-0.09244 0.507,-0.08107 0.613333,0.02525 0.106333,0.106333 -0.08267,0.181965 -0.42,0.16807 -0.372782,-0.01536 -0.448608,-0.09118 -0.193333,-0.193331 z m -0.477577,-3.621405 c 0,-1.144 0.05808,-1.612 0.129063,-1.04 0.07098,0.572 0.07098,1.508 0,2.08 -0.07098,0.572 -0.129063,0.104 -0.129063,-1.04 z m 48.980468,-4.301309 c -0.09736,-0.253719 -0.120621,-0.721719 -0.05169,-1.04 0.07826,-0.361347 0.187792,-0.18809 0.291642,0.461309 0.174272,1.089763 0.061,1.362947 -0.239949,0.578691 z M 12.505263,71.493337 c 0.01535,-0.372784 0.09118,-0.448608 0.193333,-0.193334 0.09244,0.230998 0.08107,0.506998 -0.02526,0.613334 -0.106333,0.106333 -0.181965,-0.08267 -0.16807,-0.42 z m -6.1652632,-2.91193 c 0.231,-0.09244 0.507,-0.08107 0.6133334,0.02525 0.1063331,0.106333 -0.082667,0.181965 -0.42,0.168071 -0.3727817,-0.01536 -0.448608,-0.09118 -0.1933334,-0.193332 z M 30.571336,64.362098 C 21.410881,61.627839 21.299765,61.584357 21.053595,60.637772 20.916602,60.110997 20.37087,54.424002 19.840857,48.000002 17.827536,23.597632 16.971553,13.560495 16.804832,12.4 l -0.172396,-1.2 h 23.881377 23.881378 l -0.203328,2.32 c -1.127289,12.862635 -1.949539,22.39308 -2.933388,34.000002 -0.641498,7.568 -1.259085,13.844816 -1.372416,13.948483 -0.113335,0.103668 -3.086061,1.023703 -6.606061,2.044528 -3.52,1.020826 -7.8055,2.268007 -9.523337,2.771517 -1.717834,0.503511 -3.301834,0.899421 -3.52,0.879802 -0.218163,-0.01962 -4.567561,-1.280624 -9.665325,-2.802234 z m 18.02559,-3.452637 c 4.15969,-1.171795 7.59984,-2.156563 7.644778,-2.188371 0.04494,-0.03181 0.592515,-6.021066 1.216838,-13.309463 0.62432,-7.288394 1.463466,-16.923626 1.864768,-21.411626 0.401299,-4.488 0.673226,-8.268 0.604275,-8.4 -0.06895,-0.132 -4.43686,-0.24 -9.706473,-0.24 h -9.581113 v 23.84 c 0,13.112001 0.08862,23.840001 0.196928,23.840001 0.10831,0 3.60031,-0.958742 7.759999,-2.130541 z m -9.876927,-22.50946 v -16.64 h -2.4 -2.4 v 12.8 c 0,10.120004 -0.08491,12.800001 -0.405546,12.800001 -0.223049,0 -2.118338,-0.504 -4.211753,-1.12 -2.093414,-0.616 -3.998919,-1.12 -4.234455,-1.12 -0.327116,0 -0.428246,0.7063 -0.428246,2.990902 v 2.990899 l 6.48,1.932768 c 3.564,1.063025 6.732,1.949121 7.04,1.969101 0.526621,0.03416 0.56,-0.955545 0.56,-16.603671 z M 5.1452629,61.253337 c 0.015354,-0.372784 0.091181,-0.448608 0.1933334,-0.193335 0.092439,0.230999 0.08107,0.506999 -0.025264,0.613335 -0.1063334,0.106332 -0.1819651,-0.08267 -0.1680704,-0.42 z m 0.32,-2.240001 C 5.4806165,58.640552 5.556444,58.564728 5.6585963,58.820002 5.751035,59.051 5.7396664,59.327 5.6333323,59.433337 5.5269989,59.539669 5.4513672,59.350668 5.4652619,59.013336 Z M 70.079998,51.719183 c 0,-0.06645 0.252,-0.318448 0.56,-0.56 0.507539,-0.398039 0.518857,-0.38672 0.120819,0.120819 -0.418039,0.53304 -0.680819,0.702553 -0.680819,0.439181 z m 1.945264,-2.625847 c 0.01536,-0.372784 0.09118,-0.448608 0.193331,-0.193334 0.09244,0.230998 0.08107,0.506998 -0.02525,0.613334 -0.106336,0.106333 -0.181965,-0.08267 -0.168071,-0.42 z m 6.10526,-11.653335 c 0,-0.44 0.07263,-0.62 0.161405,-0.4 0.08877,0.22 0.08877,0.58 0,0.8 -0.08877,0.22 -0.161405,0.04 -0.161405,-0.4 z m 1.549475,-3.640819 c 0,-0.06645 0.252,-0.318448 0.56,-0.56 0.50754,-0.398038 0.518858,-0.38672 0.12082,0.120819 -0.418039,0.53304 -0.68082,0.702554 -0.68082,0.439181 z m 1.082893,-3.220489 c -0.09736,-0.253719 -0.120621,-0.721719 -0.05169,-1.04 0.07826,-0.361348 0.187792,-0.18809 0.291642,0.461308 0.174272,1.089763 0.061,1.362949 -0.239949,0.578692 z M 5.1823835,29.600001 c 0.00652,-0.528 0.078239,-0.705259 0.1593734,-0.39391 0.081134,0.31135 0.075798,0.74335 -0.011856,0.96 -0.087657,0.216651 -0.154039,-0.03809 -0.1475174,-0.56609 z m 75.6044555,-2.10129 c -0.11601,-0.187709 -0.142298,-0.40992 -0.05842,-0.493801 0.08388,-0.08388 0.237779,0.0697 0.342,0.34129 0.216378,0.563874 0.03197,0.663059 -0.283584,0.152511 z m 0.245539,-2.403901 c 0.303811,-0.317193 0.621261,-0.507834 0.705447,-0.423648 0.08419,0.08419 -0.164384,0.343707 -0.552381,0.576714 -0.674019,0.404774 -0.680839,0.397954 -0.153066,-0.153066 z m 2.007619,-1.094809 c 0.318557,-0.352 0.651194,-0.64 0.739194,-0.64 0.088,0 -0.100637,0.288 -0.419194,0.64 -0.318557,0.352 -0.651193,0.64 -0.739193,0.64 -0.088,0 0.100636,-0.288 0.419193,-0.64 z m 1.079181,-3.12 c -0.398038,-0.507538 -0.38672,-0.518857 0.120819,-0.120818 0.53304,0.418038 0.702554,0.680818 0.439181,0.680818 -0.06645,0 -0.318448,-0.252 -0.56,-0.56 z M 4.5052629,18.373334 c 0.015354,-0.372782 0.091181,-0.448608 0.1933334,-0.193333 0.092439,0.231 0.08107,0.507 -0.025264,0.613333 -0.1063334,0.106333 -0.1819651,-0.08267 -0.1680704,-0.42 z M 86.719997,17.799183 c 0,-0.06645 0.252,-0.31845 0.56,-0.56 0.507539,-0.398039 0.518858,-0.38672 0.120819,0.120818 -0.418038,0.533039 -0.680819,0.702553 -0.680819,0.439182 z m 0.665264,-1.665849 c 0.01536,-0.372782 0.09118,-0.448608 0.193331,-0.193333 0.09244,0.231 0.08107,0.507 -0.02525,0.613333 -0.106332,0.106333 -0.181964,-0.08267 -0.16807,-0.42 z M 4.2105263,15.040001 c 0,-0.44 0.072631,-0.62 0.1614035,-0.4 0.088772,0.22 0.088772,0.58 0,0.8 -0.088772,0.22 -0.1614035,0.04 -0.1614035,-0.4 z M 79.619997,14.181404 c 0.230999,-0.09244 0.506999,-0.08107 0.613335,0.02526 0.106333,0.106333 -0.08267,0.181965 -0.42,0.16807 -0.372784,-0.01535 -0.448608,-0.09118 -0.193335,-0.193333 z m 5.092864,-0.01236 c 0.568074,-0.07069 1.576074,-0.07185 2.24,-0.0026 0.663923,0.06927 0.199136,0.12711 -1.032864,0.12853 -1.232,0.0014 -1.775213,-0.05526 -1.207136,-0.125949 z M 3.8652629,12.613334 C 3.8806165,12.240552 3.956444,12.164726 4.0585963,12.42 c 0.092439,0.231 0.08107,0.507 -0.025264,0.613334 -0.1063334,0.106333 -0.1819651,-0.08267 -0.1680694,-0.42 z M 76.542381,12.32 c 0.0065,-0.528 0.07824,-0.705259 0.159373,-0.393909 0.08113,0.311349 0.0758,0.743349 -0.01187,0.96 C 76.602241,13.102741 76.53586,12.848 76.542381,12.32 Z M 3.5452629,11.013334 C 3.5606165,10.640552 3.636444,10.564726 3.7385964,10.82 c 0.092439,0.231 0.08107,0.507 -0.025264,0.613334 -0.1063335,0.106333 -0.1819652,-0.08267 -0.1680695,-0.42 z M 3.2623836,8.1600003 c 0.00652,-0.528 0.078239,-0.7052596 0.1593734,-0.3939098 C 3.502891,8.07744 3.497555,8.50944 3.409901,8.7260905 3.3222444,8.9427408 3.255862,8.6880003 3.2623836,8.1600003 Z M 23.119999,2.3200481 c 10.516,-0.046796 27.723999,-0.046796 38.239999,0 10.516,0.046796 1.912,0.085083 -19.119999,0.085083 -21.032,0 -29.635999,-0.038288 -19.12,-0.085083 z"
         id="path299" />
      <path
         style="fill:#897936;stroke-width:0.32"
         d="m 59.439998,82.654169 c 0.396,-0.07627 1.044,-0.07627 1.44,0 0.396,0.07627 0.072,0.138679 -0.72,0.138679 -0.792,0 -1.116,-0.06241 -0.72,-0.138679 z M 12.505263,81.093337 c 0.01535,-0.372784 0.09118,-0.448608 0.193333,-0.193334 0.09244,0.230998 0.08107,0.506998 -0.02526,0.613334 -0.106333,0.106333 -0.181965,-0.08267 -0.16807,-0.42 z m 49.574735,-0.894153 c 0,-0.06645 0.252,-0.318448 0.56,-0.56 0.507539,-0.398039 0.518858,-0.38672 0.120819,0.120819 -0.418038,0.53304 -0.680819,0.702553 -0.680819,0.439181 z M 10.290526,79.040003 c 0,-0.44 0.07263,-0.62 0.161404,-0.4 0.08877,0.22 0.08877,0.58 0,0.8 -0.08877,0.22 -0.161404,0.04 -0.161404,-0.4 z m 53.414736,-0.506666 c 0.01536,-0.372784 0.09118,-0.448608 0.193331,-0.193334 0.09244,0.230998 0.08107,0.506998 -0.02525,0.613334 -0.106336,0.106333 -0.181965,-0.08267 -0.16807,-0.42 z m -0.706083,-1.333334 c -0.398039,-0.507539 -0.38672,-0.518858 0.120819,-0.120819 0.308,0.241552 0.56,0.493552 0.56,0.56 0,0.263372 -0.262781,0.09386 -0.680819,-0.439181 z m -50.40948,-2.8 c 0.0012,-1.408 0.05742,-1.944196 0.12502,-1.191543 0.0676,0.752653 0.06665,1.904653 -0.0021,2.56 -0.06876,0.655348 -0.12407,0.03954 -0.122908,-1.368457 z M 11.479182,69.840002 C 11.081143,69.332463 11.092462,69.321145 11.6,69.719183 c 0.308,0.241552 0.56,0.493552 0.56,0.56 0,0.263373 -0.26278,0.09386 -0.680818,-0.439181 z M 10.18,69.221407 c 0.231,-0.09244 0.507,-0.08107 0.613333,0.02525 0.106333,0.106333 -0.08267,0.181965 -0.42,0.168071 C 10.000551,69.399366 9.9247251,69.323545 10.18,69.221394 Z M 4.5758923,66.240002 c 0,-0.968 0.059989,-1.364 0.1333088,-0.88 0.07332,0.484 0.07332,1.276 0,1.76 -0.07332,0.484 -0.1333088,0.088 -0.1333088,-0.88 z m 57.9352067,1.014032 c 0.291664,-0.322281 0.421981,-0.705369 0.289597,-0.851305 -0.132384,-0.145933 -0.05132,-0.155952 0.180147,-0.02227 0.335184,0.193597 0.308806,0.366877 -0.129594,0.851305 -0.302745,0.334525 -0.622445,0.608231 -0.710445,0.608231 -0.088,0 0.07863,-0.263687 0.370295,-0.585968 z m 1.871283,-4.054032 c 0.0065,-0.528 0.07824,-0.705261 0.159373,-0.39391 0.08113,0.31135 0.0758,0.74335 -0.01187,0.96 -0.08766,0.216649 -0.154039,-0.03809 -0.147517,-0.56609 z m -59.114418,-17.6 c 6.24e-5,-8.448001 0.041378,-11.858046 0.091814,-7.577879 0.050435,4.28017 0.050384,11.19217 -1.136e-4,15.36 -0.050498,4.167834 -0.091763,0.665879 -0.0917,-7.782121 z m 60.246699,13.560291 c 0.217069,-0.218694 0.475277,-0.317014 0.573802,-0.218489 0.09852,0.09852 -0.07908,0.277456 -0.394666,0.397625 -0.456064,0.173658 -0.492819,0.136903 -0.179136,-0.179136 z m 3.605335,-6.48111 c 0,-0.06645 0.252,-0.318448 0.56,-0.56 0.507539,-0.398039 0.518857,-0.38672 0.120819,0.120819 -0.418038,0.53304 -0.680819,0.702553 -0.680819,0.439181 z m 2.4,-2.439181 c 0.318556,-0.352 0.651193,-0.64 0.739193,-0.64 0.088,0 -0.100637,0.288 -0.419193,0.64 -0.318557,0.352 -0.651194,0.64 -0.739194,0.64 -0.088,0 0.100637,-0.288 0.419194,-0.64 z m 6.585263,-11.706666 c 0.01536,-0.372784 0.09118,-0.448608 0.193332,-0.193335 0.09244,0.230999 0.08107,0.506999 -0.02525,0.613335 -0.106336,0.106333 -0.181965,-0.08267 -0.168071,-0.42 z m 2.24,-1.28 c 0.01536,-0.372784 0.09118,-0.448608 0.193332,-0.193335 0.09244,0.230999 0.08107,0.506999 -0.02525,0.613335 -0.106336,0.106333 -0.181965,-0.08267 -0.168071,-0.42 z m -1.945264,-1.534154 c 0,-0.06645 0.252,-0.318448 0.56,-0.56 0.50754,-0.398038 0.518858,-0.38672 0.12082,0.120819 -0.418039,0.53304 -0.68082,0.702554 -0.68082,0.439181 z M 4.8505262,26.560001 c 0,-0.44 0.072631,-0.62 0.1614036,-0.4 0.088772,0.22 0.088772,0.58 0,0.8 -0.088772,0.22 -0.1614036,0.04 -0.1614036,-0.4 z m -0.2898278,-6.56 c 0.00355,-0.704 0.069083,-0.954321 0.145625,-0.556269 0.076542,0.398052 0.073636,0.974052 -0.00646,1.28 -0.080091,0.305948 -0.1427167,-0.01973 -0.139165,-0.723731 z M 81.205729,14.168087 c 0.575152,-0.07122 1.439151,-0.06975 1.919999,0.0033 0.480848,0.07301 0.01027,0.131286 -1.045731,0.12949 -1.056,-0.0018 -1.44942,-0.06154 -0.874268,-0.132756 z M 3.8652629,13.573334 C 3.8806165,13.200552 3.956444,13.124726 4.0585963,13.38 c 0.092439,0.231 0.08107,0.507 -0.025264,0.613334 -0.1063334,0.106333 -0.1819651,-0.08267 -0.1680694,-0.42 z m -0.32,-1.6 C 3.5606165,11.600552 3.636444,11.524726 3.7385964,11.78 c 0.092439,0.231 0.08107,0.507 -0.025264,0.613334 -0.1063335,0.106333 -0.1819652,-0.08267 -0.1680695,-0.42 z m 81.8147341,-0.03917 c 0.396,-0.07627 1.044,-0.07627 1.44,0 0.396,0.07627 0.072,0.138678 -0.72,0.138678 -0.792,0 -1.116,-0.06241 -0.72,-0.138678 z M 3.2623836,9.7600003 c 0.00652,-0.528 0.078239,-0.7052595 0.1593734,-0.3939097 C 3.5028908,9.67744 3.4975551,10.10944 3.409901,10.326091 3.3222444,10.542741 3.255862,10.288 3.2623836,9.7600003 Z M 77.919997,9.9200004 c 0.318557,-0.3520001 0.651194,-0.6400001 0.739194,-0.6400001 0.088,0 -0.100637,0.288 -0.419194,0.6400001 C 77.921441,10.272 77.588804,10.56 77.500804,10.56 c -0.088,0 0.100637,-0.288 0.419193,-0.6399996 z m 2.72,-2.6808177 c 0,-0.06645 0.252,-0.31845 0.56,-0.5600001 0.50754,-0.3980387 0.518858,-0.3867203 0.12082,0.1208176 -0.418039,0.5330394 -0.68082,0.7025533 -0.68082,0.4391825 z M 2.2652631,3.6533336 c 0.015355,-0.3727818 0.091181,-0.448608 0.1933333,-0.1933335 0.092439,0.231 0.08107,0.507 -0.025263,0.6133335 -0.1063334,0.1063331 -0.181965,-0.082667 -0.1680703,-0.42 z"
         id="path297" />
      <path
         style="fill:#5d5328;stroke-width:0.32"
         d="m 24.879999,84.560112 c 6.908,-0.04815 18.212,-0.04815 25.119999,0 6.908,0.04814 1.256,0.08754 -12.559999,0.08754 -13.816,0 -19.468,-0.03939 -12.56,-0.08754 z M 11.362265,84.163667 c -0.112109,-0.181395 0.01634,-0.23504 0.301114,-0.125763 0.554374,0.212733 0.655804,0.442099 0.195506,0.442099 -0.165613,0 -0.389092,-0.142352 -0.49662,-0.316336 z m 51.997733,-0.124483 c 0,-0.06645 0.252,-0.318448 0.56,-0.56 0.507539,-0.398039 0.518857,-0.38672 0.120819,0.120819 -0.418038,0.53304 -0.680819,0.702554 -0.680819,0.439181 z M 12.590424,82.386201 c -0.104219,-0.27159 -0.0997,-0.58359 0.01004,-0.693331 C 12.71021,81.583126 12.8,81.73239 12.8,82.024566 c 0,0.489293 1.825126,0.537879 23.119999,0.615469 l 23.119999,0.08424 -23.130041,0.07786 c -20.59902,0.06934 -23.150779,0.02384 -23.319533,-0.41594 z m -2.005161,-0.332864 c 0.01535,-0.372784 0.09118,-0.448608 0.193333,-0.193334 0.09244,0.230998 0.08107,0.507002 -0.02526,0.613334 -0.106333,0.106333 -0.181965,-0.08267 -0.16807,-0.42 z M 62.117118,81.0896 c -0.03586,-0.647565 0.565578,-1.369511 1.56288,-1.876042 0.264,-0.134086 0.09418,0.09601 -0.377386,0.511325 -0.471561,0.415315 -0.922857,1.04312 -1.00288,1.39512 -0.139481,0.613558 -0.147027,0.612301 -0.182614,-0.0304 z m -49.84176,-2.689597 c 0,-1.672 0.05393,-2.356 0.119854,-1.52 0.06592,0.836 0.06592,2.204 0,3.04 -0.06592,0.836 -0.119854,0.152 -0.119854,-1.52 z m 53.39888,0.32 c 0,-0.616 0.06586,-0.868 0.146345,-0.56 0.08049,0.308 0.08049,0.812 0,1.12 -0.08049,0.308 -0.146345,0.056 -0.146345,-0.56 z m -2.971114,-2.444381 c -0.176566,-0.46441 -0.261654,-0.90376 -0.189078,-0.976333 0.07258,-0.07258 0.285114,0.307395 0.472307,0.844378 0.416128,1.193702 0.164941,1.310729 -0.283229,0.131955 z m 1.085815,-2.213287 c -0.105037,-0.273718 -0.05244,-0.808124 0.116867,-1.187568 0.263168,-0.589785 0.303949,-0.517702 0.281017,0.496727 -0.02944,1.302342 -0.109734,1.44175 -0.397884,0.690841 z m -1.978416,-0.462332 c 0,-0.44 0.07263,-0.62 0.161405,-0.4 0.08877,0.22 0.08877,0.58 0,0.8 -0.08877,0.22 -0.161405,0.04 -0.161405,-0.4 z m -49.563367,-1.28 c 0,-0.792 0.06241,-1.116 0.138678,-0.72 0.07627,0.396 0.07627,1.044 0,1.44 -0.07627,0.396 -0.138678,0.072 -0.138678,-0.72 z m 49.693415,-0.546199 c -0.173658,-0.456064 -0.136903,-0.492819 0.179136,-0.179136 0.218694,0.217069 0.317014,0.475277 0.218489,0.573802 -0.09852,0.09852 -0.277456,-0.07908 -0.397625,-0.394666 z m -52.6605713,-0.413801 -1.12,-0.235751 1.0211146,-0.04212 c 0.5616131,-0.02317 1.1101117,0.101876 1.2188857,0.277876 0.108774,0.176 0.153272,0.301043 0.09888,0.277875 -0.05439,-0.02317 -0.6028853,-0.148215 -1.2188853,-0.277875 z M 63.747886,71.029791 c -0.213338,-0.341606 -0.387002,-0.803059 -0.385917,-1.025446 9.6e-4,-0.222387 0.219661,0.01309 0.485725,0.523267 0.554515,1.063303 0.481149,1.432442 -0.09981,0.502179 z m -2.285395,-0.656454 c 0.01235,-0.425335 0.152973,-1.061335 0.312451,-1.413335 0.202086,-0.446048 0.230893,-0.252096 0.09506,0.64 -0.226234,1.485761 -0.440029,1.891482 -0.407507,0.773335 z M 3.7991823,70.160002 C 3.4011436,69.652463 3.412462,69.641145 3.9199999,70.039183 c 0.308,0.241552 0.56,0.493552 0.56,0.56 0,0.263373 -0.2627796,0.09386 -0.6808176,-0.439181 z m 7.0808177,-0.4 c -0.288414,-0.186387 -0.327883,-0.312156 -0.09889,-0.3151 0.209613,-0.0026 0.470112,0.1391 0.578886,0.3151 0.245537,0.39729 0.134759,0.39729 -0.48,0 z m -4.4800002,-0.64 -1.44,-0.223875 1.28,-0.04316 c 0.704,-0.02374 1.4959999,0.09643 1.7599999,0.267036 0.264,0.170612 0.336,0.290778 0.16,0.267037 -0.176,-0.02374 -0.9679999,-0.143904 -1.7599999,-0.267038 z m 2.8199999,0.101405 c 0.231,-0.09244 0.507,-0.08107 0.6133334,0.02525 0.1063331,0.106333 -0.082667,0.181965 -0.42,0.168071 -0.3727817,-0.01536 -0.448608,-0.09118 -0.1933334,-0.193332 z M 65.535518,66.905753 c -0.08845,-0.602682 0.07663,-1.198925 0.465158,-1.68 l 0.602275,-0.745751 -0.403452,0.8 c -0.221901,0.44 -0.364714,1.196 -0.31736,1.68 0.115004,1.175504 -0.17274,1.130471 -0.346621,-0.05425 z M 4.2342408,66.560002 c 0,-0.616 0.065854,-0.868 0.1463434,-0.56 0.080489,0.308 0.080489,0.812 0,1.12 -0.080489,0.308 -0.1463434,0.056 -0.1463434,-0.56 z M 62.881563,66.242537 c -0.107911,-0.174605 -0.05776,-0.564851 0.111449,-0.86721 0.252458,-0.45112 0.298621,-0.394208 0.257319,0.317242 -0.05588,0.962467 -0.08603,1.007443 -0.368768,0.549968 z m 0.798435,-1.403354 c 0,-0.06645 0.252,-0.318448 0.56,-0.56 0.507539,-0.398038 0.518857,-0.38672 0.120819,0.120819 -0.418038,0.53304 -0.680819,0.702554 -0.680819,0.439181 z m 1.010525,-3.079181 c 0,-0.44 0.07263,-0.62 0.161404,-0.4 0.08877,0.22 0.08877,0.58 0,0.8 -0.08877,0.22 -0.161404,0.04 -0.161404,-0.4 z m -61.3421222,-16.48 c 5.8e-5,-8.800001 0.041185,-12.353972 0.091394,-7.897713 0.050209,4.45626 0.050161,11.65626 -1.053e-4,16.000001 -0.050267,4.343741 -0.091346,0.697712 -0.091289,-8.102288 z M 67.199998,60.674239 c 0,-0.06917 0.223478,-0.21152 0.496621,-0.316336 0.284774,-0.109277 0.413222,-0.05563 0.301113,0.125763 -0.187923,0.304067 -0.797734,0.449744 -0.797734,0.190573 z m -0.602832,-1.795898 c 0.324003,-0.189328 0.463795,-0.581405 0.374269,-1.049731 -0.09061,-0.47399 0.07143,-0.916054 0.442832,-1.20807 0.532054,-0.418333 0.546934,-0.410967 0.162384,0.08038 -0.232842,0.297508 -0.380436,0.801508 -0.327988,1.12 0.116442,0.707088 -0.272016,1.382516 -0.787552,1.369351 -0.209612,-0.0053 -0.148387,-0.145722 0.136055,-0.31193 z m 3.508524,-3.198339 c 0.4665,-0.97953 0.614308,-1.161069 0.614308,-0.754496 0,0.171696 -0.223943,0.591696 -0.497655,0.933334 -0.469238,0.5857 -0.475901,0.575488 -0.116653,-0.178838 z m 1.574308,-2.72 c 0.597049,-0.616 1.157545,-1.12 1.245545,-1.12 0.088,0 -0.328496,0.504 -0.925545,1.12 -0.59705,0.616 -1.157546,1.12 -1.245546,1.12 -0.088,0 0.328496,-0.504 0.925546,-1.12 z m -1.28,-1.28 c 0.955974,-0.968 1.810137,-1.76 1.898137,-1.76 0.088,0 -0.622163,0.792 -1.578137,1.76 -0.955975,0.968 -1.810138,1.76 -1.898138,1.76 -0.088,0 0.622163,-0.792 1.578138,-1.76 z m 3.232124,-0.705447 c 0.233008,-0.387996 0.492528,-0.636566 0.576714,-0.55238 0.08419,0.08418 -0.106454,0.401635 -0.423648,0.705446 -0.551021,0.527773 -0.55784,0.520954 -0.153066,-0.153066 z m 0.6584,-1.694553 c 0,-0.44 0.07263,-0.62 0.161405,-0.4 0.08877,0.22 0.08877,0.58 0,0.8 -0.08877,0.22 -0.161405,0.04 -0.161405,-0.4 z m -0.96,-3.52 c 0,-0.44 0.07263,-0.62 0.161405,-0.4 0.08877,0.22 0.08877,0.58 0,0.8 -0.08877,0.22 -0.161405,0.04 -0.161405,-0.4 z m 0.29474,-1.466666 c 0.01536,-0.372784 0.09118,-0.448608 0.193331,-0.193334 0.09244,0.230998 0.08107,0.506998 -0.02525,0.613334 -0.106336,0.106333 -0.181965,-0.08267 -0.168071,-0.42 z m 0.32,-1.28 c 0.01536,-0.372784 0.09118,-0.448608 0.193331,-0.193334 0.09244,0.230998 0.08107,0.506998 -0.02525,0.613334 -0.106336,0.106333 -0.181965,-0.08267 -0.168071,-0.42 z m 3.414735,-1.945264 c 0.22,-0.08877 0.58,-0.08877 0.8,0 0.22,0.08877 0.04,0.161405 -0.4,0.161405 -0.44,0 -0.62,-0.07263 -0.4,-0.161405 z m -1.928889,-1.084199 c 0.39111,-0.411574 0.773008,-0.684316 0.848659,-0.606092 0.07565,0.07822 -0.244349,0.414963 -0.71111,0.748316 l -0.848659,0.606096 z m 1.774979,-0.845628 c 0.31135,-0.08113 0.74335,-0.0758 0.96,0.01184 0.21665,0.08766 -0.03809,0.154038 -0.56609,0.147516 -0.528,-0.0065 -0.70526,-0.07824 -0.39391,-0.159372 z m 1.249818,-1.739063 c -0.04068,-1.077514 0.09661,-1.600429 0.504092,-1.92 0.489207,-0.383661 0.512215,-0.377706 0.182,0.0471 -0.207897,0.267452 -0.434739,1.131452 -0.504092,1.92 l -0.126096,1.433721 z m 2.174553,-1.22136 c 0.183139,-0.342198 0.491143,-0.719926 0.684451,-0.839398 0.193312,-0.119472 0.103975,0.160508 -0.198521,0.622179 -0.640519,0.977555 -0.972199,1.125821 -0.48593,0.217219 z m -1.270461,-1.41864 c 0,-0.06645 0.252,-0.318448 0.56,-0.56 0.50754,-0.398038 0.518858,-0.38672 0.12082,0.120819 -0.418039,0.53304 -0.68082,0.702554 -0.68082,0.439181 z m 3.36,-0.839181 c 0.318557,-0.352 0.651194,-0.64 0.739194,-0.64 0.088,0 -0.100637,0.288 -0.419194,0.64 -0.318557,0.352 -0.651193,0.64 -0.739193,0.64 -0.088,0 0.100636,-0.288 0.419193,-0.64 z m 0.850525,-1.92 c 0,-0.44 0.07263,-0.62 0.161405,-0.4 0.08877,0.22 0.08877,0.58 0,0.8 -0.08877,0.22 -0.161405,0.04 -0.161405,-0.4 z m -1.945261,-0.186666 c 0.01536,-0.372782 0.09118,-0.448608 0.193331,-0.193334 0.09244,0.231 0.08107,0.506999 -0.02525,0.613335 -0.106335,0.106332 -0.181964,-0.08267 -0.16807,-0.420001 z m -0.614739,-2.053334 c 0,-0.44 0.07263,-0.62 0.161405,-0.4 0.08877,0.22 0.08877,0.58 0,0.8 -0.08877,0.22 -0.161405,0.04 -0.161405,-0.4 z M 2.9052631,27.973334 c 0.015355,-0.372781 0.091181,-0.448608 0.1933333,-0.193333 0.092439,0.231 0.08107,0.507 -0.025263,0.613333 -0.1063333,0.106334 -0.1819649,-0.08267 -0.1680703,-0.42 z m 1.9199998,-0.32 c 0.015354,-0.372781 0.091181,-0.448608 0.1933334,-0.193333 0.092439,0.231 0.08107,0.507 -0.025264,0.613333 -0.1063334,0.106334 -0.1819651,-0.08267 -0.1680704,-0.42 z M 84.479997,25.440001 c 0.59705,-0.616 1.157546,-1.12 1.245546,-1.12 0.088,0 -0.328496,0.504 -0.925546,1.12 -0.597049,0.616 -1.157545,1.12 -1.245545,1.12 -0.088,0 0.328496,-0.504 0.925545,-1.12 z m -3.274096,-0.213904 c 0.185952,-0.185953 0.526983,-0.275134 0.757843,-0.19818 0.239664,0.07989 0.09461,0.224941 -0.338095,0.338096 -0.532272,0.139191 -0.65721,0.09755 -0.419748,-0.139916 z m 1.994096,-1.066096 c 0.41336,-0.44 0.823562,-0.8 0.911562,-0.8 0.088,0 -0.178202,0.36 -0.591562,0.8 -0.41336,0.44 -0.823561,0.8 -0.911561,0.8 -0.088,0 0.178201,-0.36 0.591561,-0.8 z m -80.5484726,-0.96 c 0.0024,-0.88 0.064548,-1.20202 0.1381015,-0.7156 0.073553,0.48642 0.071588,1.20642 -0.00437,1.6 -0.075956,0.39358 -0.1361359,-0.0044 -0.1337335,-0.8844 z m 1.9276335,-0.32 c 0.00179,-1.056 0.061536,-1.449421 0.1327559,-0.874269 0.07122,0.575152 0.06975,1.439152 -0.00327,1.92 -0.073014,0.480848 -0.1312848,0.01027 -0.1294887,-1.045731 z m 82.3008391,-1.44 c 0,-0.494387 0.108,-0.832138 0.24,-0.750558 0.132,0.08158 0.24,0.419332 0.24,0.750558 0,0.331226 -0.108,0.668976 -0.24,0.750557 -0.132,0.08158 -0.24,-0.25617 -0.24,-0.750557 z m -2.440819,-0.56 c -0.398038,-0.507538 -0.38672,-0.518857 0.120819,-0.120818 0.53304,0.418038 0.702554,0.680818 0.439181,0.680818 -0.06645,0 -0.318448,-0.252 -0.56,-0.56 z m -0.573917,-1.080818 c -0.01389,-0.28645 0.226736,-0.71845 0.534736,-0.96 0.486624,-0.381637 0.513219,-0.376288 0.202967,0.04082 -0.196368,0.264 -0.436999,0.696 -0.534736,0.96 -0.14865,0.401519 -0.181834,0.394846 -0.202967,-0.04082 z M 4.2591579,18.080001 c 0.00179,-1.056 0.061536,-1.449422 0.1327559,-0.87427 0.07122,0.575153 0.06975,1.439153 -0.00327,1.920001 -0.073014,0.480848 -0.1312848,0.01027 -0.1294887,-1.045731 z m 83.1275051,1.66945 c 0.07333,-0.0498 0.421334,-0.301802 0.773334,-0.56 0.592003,-0.434243 0.607062,-0.427452 0.200819,0.09055 -0.241552,0.308 -0.589552,0.56 -0.773334,0.56 -0.183782,0 -0.27415,-0.04075 -0.200819,-0.09055 z m -2.006666,-1.408047 c 0.230999,-0.09244 0.507002,-0.08107 0.613335,0.02526 0.106332,0.106334 -0.08267,0.181965 -0.42,0.168071 -0.372784,-0.01535 -0.448608,-0.09118 -0.193335,-0.193334 z m 3.932125,-0.32685 c 0.233008,-0.387996 0.492528,-0.636567 0.576713,-0.552381 0.08419,0.08419 -0.106454,0.401637 -0.423648,0.705447 -0.55102,0.527772 -0.55784,0.520953 -0.153065,-0.153066 z M 2.2905262,16.960001 c 0,-0.44 0.072632,-0.62 0.1614035,-0.4 0.088772,0.22 0.088772,0.58 0,0.8 -0.088772,0.22 -0.1614035,0.04 -0.1614035,-0.4 z m 1.6237146,-1.92 c 0,-0.616 0.065854,-0.868 0.1463434,-0.56 0.080489,0.308 0.080489,0.812 0,1.12 -0.080489,0.308 -0.1463434,0.056 -0.1463434,-0.56 z m 84.2610332,-0.4 c 0.189875,-0.498741 -0.04434,-0.566857 -2.14104,-0.622676 l -2.354237,-0.06267 2.208279,-0.113046 c 2.315183,-0.118519 3.212035,0.228523 2.476761,0.958397 -0.323091,0.320719 -0.360701,0.289007 -0.189763,-0.16 z M 1.9452631,14.213334 C 1.960618,13.840552 2.036444,13.764726 2.1385964,14.02 c 0.092439,0.231001 0.08107,0.507001 -0.025263,0.613334 -0.1063334,0.106333 -0.181965,-0.08267 -0.1680703,-0.42 z M 79.279997,13.868071 c 0.22,-0.08877 0.58,-0.08877 0.8,0 0.22,0.08877 0.04,0.161403 -0.4,0.161403 -0.44,0 -0.62,-0.07263 -0.4,-0.161403 z M 3.5452629,12.933334 C 3.5606165,12.560552 3.636444,12.484726 3.7385964,12.74 c 0.092439,0.231 0.08107,0.507 -0.025264,0.613334 -0.1063335,0.106333 -0.1819652,-0.08267 -0.1680695,-0.42 z M 89.458835,12.629823 C 89.117197,12.371421 88.991565,12.16 89.179655,12.16 c 0.188086,0 0.521241,0.216 0.740342,0.48 0.498304,0.600422 0.341549,0.596962 -0.461162,-0.01018 z M 1.6505262,12.16 c 0,-0.44 0.072632,-0.62 0.1614036,-0.4 0.088772,0.22 0.088772,0.58 0,0.8 -0.088772,0.22 -0.1614036,0.04 -0.1614036,-0.4 z m 79.7138708,0.09037 c 0.486419,-0.07355 1.206419,-0.07159 1.6,0.0044 0.393581,0.07596 -0.0044,0.136135 -0.8844,0.133733 -0.88,-0.0024 -1.202019,-0.06455 -0.7156,-0.138101 z M 79.23026,11.888968 c -0.09213,-0.149067 0.295373,-0.689067 0.861117,-1.2 l 1.02862,-0.9289677 -0.88448,0.9821867 c -0.486464,0.540202 -0.786464,1.080202 -0.666665,1.2 0.119795,0.119797 0.13031,0.217813 0.02336,0.217813 -0.106944,0 -0.269824,-0.121964 -0.361955,-0.271032 z M 1.3715245,9.7600003 c 0.0024,-0.88 0.064548,-1.2020202 0.1381014,-0.7156 C 1.5831793,9.5308202 1.5812137,10.25082 1.5052579,10.6444 1.4293021,11.03798 1.3691221,10.64 1.3715245,9.7600003 Z M 78.079997,10.08 c 0.59705,-0.6159997 1.157546,-1.1199997 1.245546,-1.1199997 0.088,0 -0.328496,0.504 -0.925546,1.1199997 -0.597049,0.616 -1.157545,1.12 -1.245545,1.12 -0.088,0 0.328496,-0.504 0.925545,-1.12 z m 2.88,-0.6008173 c 0,-0.06645 0.252,-0.3184499 0.56,-0.56 0.507539,-0.3980387 0.518858,-0.3867203 0.12082,0.1208176 -0.418039,0.5330394 -0.68082,0.7025533 -0.68082,0.4391824 z m -1.12,-1.4791824 c 0.318557,-0.352 0.651194,-0.64 0.739194,-0.64 0.088,0 -0.100637,0.288 -0.419194,0.64 -0.318556,0.352 -0.651193,0.64 -0.739193,0.64 -0.088,0 0.100637,-0.288 0.419193,-0.64 z m 2.88,0 c 0.318557,-0.352 0.651194,-0.64 0.739194,-0.64 0.088,0 -0.100637,0.288 -0.419194,0.64 -0.318557,0.352 -0.651193,0.64 -0.739193,0.64 -0.088,0 0.100636,-0.288 0.419193,-0.64 z M 0.98526314,7.4933337 C 1.000618,7.1205519 1.076444,7.0447257 1.1785964,7.3000003 c 0.092439,0.231 0.08107,0.507 -0.025263,0.6133334 -0.1063333,0.1063331 -0.18196492,-0.082667 -0.16807026,-0.42 z M 81.73562,5.2393269 c -0.01504,-0.6761453 0.07518,-0.9402131 0.235097,-0.6882151 0.327789,0.5165325 0.344387,1.4450839 0.02928,1.638218 -0.132,0.080905 -0.250969,-0.3465962 -0.264377,-0.9500029 z M 2.2905262,4.8000002 c 0,-0.44 0.072632,-0.6200001 0.1614035,-0.4 0.088772,0.22 0.088772,0.58 0,0.8 -0.088772,0.22 -0.1614035,0.04 -0.1614035,-0.4 z M 0.34526316,4.6133336 c 0.0153549,-0.3727818 0.0911809,-0.448608 0.1933333,-0.1933334 0.0924386,0.231 0.0810702,0.507 -0.025263,0.6133334 -0.10633334,0.1063331 -0.18196492,-0.082667 -0.1680703,-0.42 z M 22.319999,2.0000458 c 10.78,-0.046731 28.419999,-0.046731 39.199999,0 10.78,0.046731 1.96,0.084965 -19.599999,0.084965 -21.56,0 -30.379999,-0.038234 -19.6,-0.084965 z M 81.879178,0.72000003 c -0.398038,-0.50753782 -0.38672,-0.51885633 0.120819,-0.1208177 0.308,0.24155028 0.56,0.49355027 0.56,0.55999997 0,0.263371 -0.262781,0.093857 -0.680819,-0.43918227 z"
         id="path295" />
      <path
         style="fill:#131312;stroke-width:0.32"
         d="m 11.916333,84.266851 c -0.94644,-0.381293 -1.182693,-1.66207 -1.347828,-7.306848 L 10.4,71.200003 9.1199997,71.122915 C 5.1659921,70.88479 4.5068981,70.686063 3.5142024,69.432684 2.3821792,68.003388 2.2700638,66.33669 3.0514656,62.553682 3.4655004,60.549212 3.5232869,57.690216 3.4182466,44.407173 3.2703868,25.709371 2.4276484,12.181623 1.1003503,7.2000003 0.34688338,4.3720837 0.27456274,3.2881908 0.76157162,2.1226144 1.0169076,1.5115095 1.5165428,0.85592377 1.8718721,0.66575727 2.3246511,0.42343729 14.335362,0.32000001 42.019778,0.32000001 c 35.189039,0 39.546536,0.0538375 39.911096,0.49310722 0.811469,0.97775837 1.909123,3.75343307 1.909123,4.82765837 0,0.9338567 -0.357315,1.4627364 -2.399952,3.5522731 -1.680761,1.7193523 -2.298723,2.5557323 -2.062147,2.7910093 0.213002,0.211831 1.984736,0.301343 4.795437,0.242277 4.815865,-0.101205 5.573878,0.07756 6.090483,1.436325 0.236816,0.622879 0.188137,1.014578 -0.199635,1.606396 -0.282048,0.430462 -0.429408,1.000018 -0.327466,1.265679 0.277114,0.72215 -0.749066,2.229601 -1.962694,2.883183 -0.916845,0.493754 -1.043491,0.701585 -0.880298,1.444594 0.238672,1.086676 -0.986649,3.281051 -2.692854,4.822502 -1.035952,0.935921 -1.158103,1.186305 -0.881338,1.806559 0.218035,0.488638 0.212029,1.009527 -0.01869,1.620775 -0.196189,0.519764 -0.223814,1.084061 -0.06531,1.334194 0.151069,0.238408 0.276877,0.923555 0.279571,1.52255 0.0039,0.871409 -0.314886,1.427207 -1.595101,2.780846 -1.373123,1.451875 -1.599999,1.873846 -1.599999,2.975862 0,1.701552 -0.578682,2.894592 -1.494861,3.081885 -0.409827,0.08378 -1.080451,0.220874 -1.490279,0.304653 -0.917353,0.187533 -1.316508,1.029571 -1.956275,4.12688 -0.273571,1.324445 -0.631702,2.739443 -0.795846,3.144439 -0.164147,0.404995 -0.379738,1.118732 -0.479091,1.58608 -0.09935,0.46735 -0.818608,1.457744 -1.598343,2.200876 -1.553792,1.480858 -3.555859,5.163377 -3.24607,5.970679 0.269933,0.70343 -0.54696,1.844864 -1.646169,2.30017 -0.836813,0.346621 -0.922951,0.533504 -0.990557,2.149155 -0.04221,1.008707 -0.307133,2.125258 -0.616167,2.596903 -0.31375,0.478844 -0.50254,1.286758 -0.448166,1.917894 0.08241,0.956531 -0.0249,1.13537 -0.873242,1.45559 -1.176527,0.44409 -1.532239,1.545136 -0.840336,2.601114 0.404634,0.617552 0.426784,0.914487 0.11866,1.590743 -0.329424,0.723011 -0.247389,1.098473 0.62895,2.878576 1.165469,2.367401 1.278806,3.937728 0.367792,5.095894 -0.352,0.447495 -0.64,1.176464 -0.64,1.61993 0,0.489917 -0.330845,1.066544 -0.843155,1.469526 -0.837395,0.658695 -1.014989,0.663053 -25.999999,0.637962 -13.836264,-0.01389 -25.338494,-0.09844 -25.560511,-0.187888 z m 50.42331,-2.752343 c 0.07082,-0.856761 0.325389,-1.353408 0.88,-1.716803 1.015728,-0.665533 0.984409,-1.206448 -0.202608,-3.499136 -0.770391,-1.487984 -0.952439,-2.187882 -0.841811,-3.236374 0.07764,-0.735796 6.4e-4,-1.478359 -0.171172,-1.650138 -0.54191,-0.54191 0.04917,-3.53521 0.774781,-3.923543 0.466359,-0.249587 0.586266,-0.54462 0.446947,-1.099715 -0.139081,-0.554147 0.02365,-0.957104 0.603815,-1.495053 0.737024,-0.683405 1.005315,-1.802509 1.115088,-4.651225 0.0084,-0.218615 0.555315,-0.653626 1.215315,-0.966689 0.917142,-0.435036 1.177203,-0.732608 1.103293,-1.262409 -0.05319,-0.381264 0.270809,-1.275392 0.72,-1.986954 0.449187,-0.711561 0.816707,-1.544435 0.816707,-1.850829 0,-0.306393 0.802345,-1.367885 1.782988,-2.35887 1.058564,-1.069725 1.897936,-2.243632 2.065901,-2.88928 1.920317,-7.381517 2.166685,-8.105111 3.005168,-8.826346 0.473898,-0.407629 1.270195,-0.741143 1.769549,-0.741143 1.028352,0 1.296393,-0.455328 1.296393,-2.202201 0,-0.952861 0.32506,-1.593255 1.631975,-3.21512 1.476614,-1.832461 1.59464,-2.095026 1.239782,-2.758079 -0.250854,-0.468731 -0.314505,-1.250856 -0.176621,-2.170335 0.13337,-0.889382 0.0877,-1.516547 -0.119782,-1.644777 -0.184445,-0.113992 -0.335354,-0.556828 -0.335354,-0.984079 0,-0.582656 0.274983,-0.891715 1.10016,-1.236496 1.067264,-0.445931 3.05984,-2.762744 3.05984,-3.557743 0,-0.216043 -0.22295,-0.577837 -0.495443,-0.803986 -0.594666,-0.493531 -0.493088,-1.595113 0.175443,-1.902587 2.750019,-1.264803 3.0384,-1.48192 2.955136,-2.224867 -0.04668,-0.416472 0.139309,-1.099353 0.413299,-1.517514 0.861149,-1.314282 0.374912,-1.489433 -3.494636,-1.258828 -3.713667,0.221315 -6.739664,-0.13211 -7.481347,-0.873794 -0.658106,-0.658105 -0.06031,-1.691451 2.620403,-4.5295947 1.329897,-1.408 2.420054,-2.7012171 2.422569,-2.8738158 0.0026,-0.1725984 -0.309923,-1.0725984 -0.694307,-2.0000001 L 80.842228,1.9200001 H 41.925115 c -29.842201,0 -39.0066584,0.089543 -39.3011151,0.384 -0.5114937,0.5114938 -0.4848764,2.1003277 0.072721,4.3408315 0.4654388,1.8701981 1.2002051,7.9254744 1.8341218,15.1151694 0.1939744,2.2 0.4161424,11.92 0.4937066,21.600001 0.1246992,15.562451 0.078141,17.949639 -0.4021619,20.620106 -0.5130448,2.852512 -0.5125479,3.077002 0.00896,4.045379 0.5277366,0.979949 0.6603782,1.034586 3.0004002,1.235962 2.9404674,0.253049 4.1166824,0.665923 4.3949684,1.542723 0.114398,0.360439 0.227187,3.044951 0.250641,5.965588 0.02346,2.920633 0.15969,5.491129 0.302747,5.712211 0.205822,0.318086 5.414661,0.384864 24.959999,0.32 l 24.699898,-0.08197 z"
         id="path293" />
    </g>
  </g>
</svg>
