<?xml version="1.0" encoding="UTF-8" standalone="no"?>
<!-- Created with Inkscape (http://www.inkscape.org/) -->

<svg
   xmlns:dc="http://purl.org/dc/elements/1.1/"
   xmlns:cc="http://creativecommons.org/ns#"
   xmlns:rdf="http://www.w3.org/1999/02/22-rdf-syntax-ns#"
   xmlns:svg="http://www.w3.org/2000/svg"
   xmlns="http://www.w3.org/2000/svg"
   xmlns:sodipodi="http://sodipodi.sourceforge.net/DTD/sodipodi-0.dtd"
   xmlns:inkscape="http://www.inkscape.org/namespaces/inkscape"
   version="1.1"
   id="svg8"
   inkscape:version="0.92.3 (2405546, 2018-03-11)"
   sodipodi:docname="logo.svg"
   width="99.142258"
   height="80.301094">
  <metadata
     id="metadata16">
    <rdf:RDF>
      <cc:Work
         rdf:about="">
        <dc:format>image/svg+xml</dc:format>
        <dc:type
           rdf:resource="http://purl.org/dc/dcmitype/StillImage" />
        <dc:title></dc:title>
      </cc:Work>
    </rdf:RDF>
  </metadata>
  <defs
     id="defs14" />
  <sodipodi:namedview
     pagecolor="#ffffff"
     bordercolor="#666666"
     borderopacity="1"
     objecttolerance="10"
     gridtolerance="10"
     guidetolerance="10"
     inkscape:pageopacity="0"
     inkscape:pageshadow="2"
     inkscape:window-width="640"
     inkscape:window-height="480"
     id="namedview12"
     showgrid="false"
     fit-margin-top="0"
     fit-margin-left="0"
     fit-margin-right="0"
     fit-margin-bottom="0"
     inkscape:zoom="2.36"
     inkscape:cx="4.8017888"
     inkscape:cy="30.931479"
     inkscape:window-x="0"
     inkscape:window-y="0"
     inkscape:window-maximized="0"
     inkscape:current-layer="layer1" />
  <g
     inkscape:label="Layer 1"
     inkscape:groupmode="layer"
     id="layer1"
     transform="translate(-0.7066858,-0.63038311)">
    <g
       id="g21"
       transform="matrix(1.5600906,0,0,1.5600906,-0.39580812,-0.3530717)">
      <path
         style="fill:#fbd840;stroke-width:0.08466666"
         d="m 9.0240854,51.984218 c -0.646384,-0.230468 -0.902284,-0.601137 -1.110316,-1.608289 -0.11392,-0.551519 -0.13357,-1.130756 -0.113351,-3.341197 0.01345,-1.470709 -0.0081,-2.764657 -0.04785,-2.875441 -0.07117,-0.198247 -0.08458,-0.200526 -0.84972,-0.144361 -0.676545,0.04966 -0.826404,0.03484 -1.154993,-0.114215 -0.285837,-0.129662 -0.558607,-0.171731 -1.122618,-0.173139 -0.485904,-0.0012 -0.828575,-0.04506 -0.985216,-0.12606 -0.30555,-0.158006 -1.151297,-1.117204 -1.302831,-1.477596 -0.169187,-0.402379 -0.09233,-2.19801 0.139809,-3.266536 0.182965,-0.842167 0.183943,-0.899542 0.183943,-10.795 0,-9.707725 -0.0045,-9.987241 -0.186365,-11.557 -0.102501,-0.884767 -0.205755,-2.332567 -0.229454,-3.217334 -0.04638,-1.731612 -0.289,-3.6523989 -0.677857,-5.3665449 -0.120262,-0.530133 -0.218657,-1.202597 -0.218657,-1.494365 0,-0.352957 -0.102619,-0.894579 -0.306642,-1.618455 -0.38923197,-1.381 -0.44212897,-2.486179 -0.14527797,-3.035302 0.21446997,-0.39673 0.63701697,-0.81401496 1.01921497,-1.00652096 0.247573,-0.124698 2.6651,-0.136479 28.0068716,-0.136479 27.361578,0 27.740291,0.0022 28.060553,0.165621 0.401009,0.20457996 0.721453,0.57580596 0.860091,0.99639496 0.05795,0.175808 0.251726,0.622436 0.430607,0.992506 0.57288,1.18515 0.41083,2.020029 -0.565215,2.912082 -0.262819,0.240201 -0.518937,0.43673 -0.569151,0.43673 -0.05022,0 -0.323369,0.239093 -0.607011,0.531319 -0.283641,0.292226 -0.64432,0.636692 -0.801509,0.76548 -0.157188,0.128788 -0.258677,0.261169 -0.225528,0.29418 0.03315,0.03301 1.533357,0.06066 3.333794,0.06145 2.87086,0.0012 3.30478,0.01849 3.52753,0.140123 0.34485,0.188299 0.60106,0.476196 0.75796,0.851717 0.21222,0.507901 0.16984,0.849269 -0.15345,1.2362279 -0.25725,0.307908 -0.28069,0.380225 -0.24467,0.755081 0.073,0.75951 -0.43895,1.418139 -1.48146,1.90599 -0.30219,0.14141 -0.51921,0.293291 -0.49635,0.347357 0.23843,0.563726 0.24426,0.712052 0.0414,1.053922 -0.67688,1.140696 -1.64405,2.252415 -2.22993,2.563226 -0.407898,0.216389 -0.451661,0.330252 -0.25749,0.669926 0.17596,0.3078 0.15348,0.734178 -0.0586,1.111528 l -0.185607,0.33025 0.185607,0.382043 c 0.21833,0.449384 0.25184,1.275152 0.0662,1.63055 -0.139001,0.266076 -0.470932,0.585137 -0.912931,0.877537 -0.17199,0.113779 -0.518935,0.458463 -0.770991,0.765966 l -0.458282,0.559096 -0.06082,0.828595 c -0.06374,0.868345 -0.156114,1.143194 -0.484652,1.442032 -0.360392,0.327813 -0.717981,0.454403 -1.283588,0.454403 -0.923123,0 -1.09116,0.252961 -1.665933,2.507873 -0.188486,0.739453 -0.437199,1.558775 -0.552695,1.820715 -0.115497,0.261939 -0.209995,0.570578 -0.209995,0.685865 0,0.501159 -0.192194,0.759031 -1.259785,1.690294 -0.985705,0.859832 -1.092348,0.982316 -1.375529,1.579841 -0.16884,0.35626 -0.458863,0.847613 -0.644497,1.091896 -0.318298,0.418861 -0.332608,0.46254 -0.251312,0.767115 0.178296,0.667989 -0.122258,1.097512 -1.110291,1.58672 l -0.675945,0.334681 -0.04838,0.423333 c -0.02661,0.232834 -0.07798,0.710884 -0.114153,1.062333 -0.0389,0.377924 -0.126068,0.723847 -0.213352,0.846667 -0.08117,0.114217 -0.210513,0.294704 -0.287429,0.401082 -0.113372,0.156798 -0.121496,0.233689 -0.04292,0.40615 0.293046,0.643166 -0.205936,1.426541 -1.022957,1.60599 -0.397779,0.08737 -0.636854,0.741154 -0.356198,0.974078 0.392131,0.325439 0.4455,0.850442 0.149545,1.471069 -0.12306,0.258058 -0.118643,0.296569 0.07914,0.689972 0.11521,0.229163 0.238597,0.511909 0.274193,0.628326 0.0356,0.116417 0.173648,0.336551 0.306779,0.489187 0.554851,0.636142 0.771227,1.427586 0.583827,2.13548 -0.07444,0.281194 -0.220996,0.495532 -0.559462,0.818215 -0.41062,0.391471 -0.458602,0.47385 -0.458602,0.787371 0,0.605518 -0.389633,1.113704 -1.100666,1.435563 -0.379412,0.171746 -0.454063,0.172457 -17.906999,0.170609 C 12.249014,52.100541 9.2958154,52.081081 9.0241404,51.984217 Z M 27.341278,24.299714 c 0,-4.258102 -0.02858,-7.759335 -0.0635,-7.780517 -0.03493,-0.02118 -0.42545,-0.05201 -0.867833,-0.0685 l -0.804333,-0.02998 -0.04601,6.011333 c -0.02531,3.306234 -0.07588,6.075063 -0.11238,6.152954 -0.138522,0.295597 -0.384343,0.275086 -1.619606,-0.135138 -0.325967,-0.108252 -0.821267,-0.263316 -1.100667,-0.344588 -0.2794,-0.08127 -0.666913,-0.197032 -0.861141,-0.257244 -0.194228,-0.06021 -0.375203,-0.08742 -0.402167,-0.06045 -0.02696,0.02696 -0.04903,0.578019 -0.04903,1.224567 v 1.175543 l 0.275166,0.114869 c 0.311321,0.129961 1.059866,0.373503 2.899834,0.943472 0.6985,0.216374 1.51765,0.481839 1.820333,0.589921 0.302683,0.108082 0.636058,0.198594 0.740833,0.201139 l 0.1905,0.0046 z m 3.175,7.440683 c 0.797126,-0.228881 1.653681,-0.485036 2.794,-0.835552 0.372533,-0.114511 0.835341,-0.248873 1.028461,-0.298584 0.193603,-0.04983 0.376527,-0.156442 0.407745,-0.23763 0.03114,-0.08099 0.109762,-0.966397 0.174717,-1.967581 0.06495,-1.001183 0.156943,-2.334683 0.20442,-2.963333 0.04748,-0.62865 0.0966,-1.42875 0.109155,-1.778 0.02086,-0.57995 0.0082,-0.636948 -0.146498,-0.65747 -0.09313,-0.01236 -0.950383,0.08708 -1.905,0.220973 -0.954617,0.133894 -1.78621,0.224535 -1.847985,0.201423 -0.221321,-0.0828 -0.268682,-0.479285 -0.268682,-2.249265 0,-1.488475 0.02257,-1.828203 0.131801,-1.984155 0.130056,-0.185682 0.159063,-0.188173 2.190967,-0.188173 1.66174,0 2.078152,-0.02288 2.157542,-0.118536 0.05753,-0.06932 0.119987,-0.596638 0.150424,-1.27 l 0.05205,-1.151464 h -3.178998 c -2.820727,0 -3.184791,0.01509 -3.230391,0.133925 -0.02827,0.07366 -0.05139,2.303704 -0.05139,4.955657 0,4.276689 0.01483,4.827424 0.131213,4.872084 0.07217,0.02769 0.367443,0.0041 0.656167,-0.05251 1.128492,-0.221113 1.814059,-0.366519 2.257242,-0.478754 0.583862,-0.147861 0.77644,-0.147242 0.982029,0.0032 0.149616,0.10945 0.161868,0.210024 0.136677,1.121833 -0.03101,1.122248 -0.105592,1.321962 -0.540829,1.448125 -0.152991,0.04435 -0.640115,0.18396 -1.082499,0.310247 -0.442383,0.126288 -0.918633,0.268147 -1.058333,0.315241 -0.1397,0.04709 -0.463252,0.14308 -0.719004,0.213302 -0.809468,0.222256 -0.762663,0.132082 -0.762663,1.469333 v 1.182354 l 0.232834,0.0011 c 0.128058,5.92e-4 0.575733,-0.09739 0.994833,-0.217725 z"
         id="path35"
         inkscape:connector-curvature="0" />
      <path
         style="fill:#aeadab;stroke-width:0.08466666"
         d="m 9.0240854,51.984218 c -0.646384,-0.230468 -0.902284,-0.601137 -1.110316,-1.608289 -0.11392,-0.551519 -0.13357,-1.130756 -0.113351,-3.341197 0.01345,-1.470709 -0.0081,-2.764657 -0.04785,-2.875441 -0.07117,-0.198247 -0.08458,-0.200526 -0.84972,-0.144361 -0.676545,0.04966 -0.826404,0.03484 -1.154993,-0.114215 -0.285837,-0.129662 -0.558607,-0.171731 -1.122618,-0.173139 -0.485904,-0.0012 -0.828575,-0.04506 -0.985216,-0.12606 -0.30555,-0.158006 -1.151297,-1.117204 -1.302831,-1.477596 -0.169187,-0.402379 -0.09233,-2.19801 0.139809,-3.266536 0.182965,-0.842167 0.183943,-0.899542 0.183943,-10.795 0,-9.707725 -0.0045,-9.987241 -0.186365,-11.557 -0.102501,-0.884767 -0.205755,-2.332567 -0.229454,-3.217334 -0.04638,-1.731612 -0.289,-3.6523989 -0.677857,-5.3665449 -0.120262,-0.530133 -0.218657,-1.202597 -0.218657,-1.494365 0,-0.352957 -0.102619,-0.894579 -0.306642,-1.618455 -0.38923197,-1.381 -0.44212897,-2.486179 -0.14527797,-3.035302 0.21446997,-0.39673 0.63701697,-0.81401496 1.01921497,-1.00652096 0.247573,-0.124698 2.6651,-0.136479 28.0068716,-0.136479 27.361578,0 27.740291,0.0022 28.060553,0.165621 0.401009,0.20457996 0.721453,0.57580596 0.860091,0.99639496 0.05795,0.175808 0.251726,0.622436 0.430607,0.992506 0.57288,1.18515 0.41083,2.020029 -0.565215,2.912082 -0.262819,0.240201 -0.518937,0.43673 -0.569151,0.43673 -0.05022,0 -0.323369,0.239093 -0.607011,0.531319 -0.283641,0.292226 -0.64432,0.636692 -0.801509,0.76548 -0.157188,0.128788 -0.258677,0.261169 -0.225528,0.29418 0.03315,0.03301 1.533357,0.06066 3.333794,0.06145 2.87086,0.0012 3.30478,0.01849 3.52753,0.140123 0.34485,0.188299 0.60106,0.476196 0.75796,0.851717 0.21222,0.507901 0.16984,0.849269 -0.15345,1.2362279 -0.25725,0.307908 -0.28069,0.380225 -0.24467,0.755081 0.073,0.75951 -0.43895,1.418139 -1.48146,1.90599 -0.30219,0.14141 -0.51921,0.293291 -0.49635,0.347357 0.23843,0.563726 0.24426,0.712052 0.0414,1.053922 -0.67688,1.140696 -1.64405,2.252415 -2.22993,2.563226 -0.407898,0.216389 -0.451661,0.330252 -0.25749,0.669926 0.17596,0.3078 0.15348,0.734178 -0.0586,1.111528 l -0.185607,0.33025 0.185607,0.382043 c 0.21833,0.449384 0.25184,1.275152 0.0662,1.63055 -0.139001,0.266076 -0.470932,0.585137 -0.912931,0.877537 -0.17199,0.113779 -0.518935,0.458463 -0.770991,0.765966 l -0.458282,0.559096 -0.06082,0.828595 c -0.06374,0.868345 -0.156114,1.143194 -0.484652,1.442032 -0.360392,0.327813 -0.717981,0.454403 -1.283588,0.454403 -0.923123,0 -1.09116,0.252961 -1.665933,2.507873 -0.188486,0.739453 -0.437199,1.558775 -0.552695,1.820715 -0.115497,0.261939 -0.209995,0.570578 -0.209995,0.685865 0,0.501159 -0.192194,0.759031 -1.259785,1.690294 -0.985705,0.859832 -1.092348,0.982316 -1.375529,1.579841 -0.16884,0.35626 -0.458863,0.847613 -0.644497,1.091896 -0.318298,0.418861 -0.332608,0.46254 -0.251312,0.767115 0.178296,0.667989 -0.122258,1.097512 -1.110291,1.58672 l -0.675945,0.334681 -0.04838,0.423333 c -0.02661,0.232834 -0.07798,0.710884 -0.114153,1.062333 -0.0389,0.377924 -0.126068,0.723847 -0.213352,0.846667 -0.08117,0.114217 -0.210513,0.294704 -0.287429,0.401082 -0.113372,0.156798 -0.121496,0.233689 -0.04292,0.40615 0.293046,0.643166 -0.205936,1.426541 -1.022957,1.60599 -0.397779,0.08737 -0.636854,0.741154 -0.356198,0.974078 0.392131,0.325439 0.4455,0.850442 0.149545,1.471069 -0.12306,0.258058 -0.118643,0.296569 0.07914,0.689972 0.11521,0.229163 0.238597,0.511909 0.274193,0.628326 0.0356,0.116417 0.173648,0.336551 0.306779,0.489187 0.554851,0.636142 0.771227,1.427586 0.583827,2.13548 -0.07444,0.281194 -0.220996,0.495532 -0.559462,0.818215 -0.41062,0.391471 -0.458602,0.47385 -0.458602,0.787371 0,0.605518 -0.389633,1.113704 -1.100666,1.435563 -0.379412,0.171746 -0.454063,0.172457 -17.906999,0.170609 C 12.249014,52.100541 9.2958154,52.081081 9.0241404,51.984217 Z M 43.893516,49.854307 c 0.0052,-0.394747 0.05409,-0.672771 0.141723,-0.806522 0.123862,-0.189038 0.500187,-0.422959 0.853205,-0.530348 0.259385,-0.0789 0.170608,-0.433601 -0.224328,-0.896283 -0.221865,-0.25992 -0.410271,-0.586404 -0.465908,-0.807357 -0.05138,-0.204033 -0.207602,-0.540169 -0.34717,-0.74697 -0.205009,-0.303765 -0.253243,-0.463103 -0.251068,-0.829388 0.0015,-0.250426 0.05498,-0.522362 0.119489,-0.607466 0.102494,-0.135209 0.08143,-0.225639 -0.172026,-0.738485 -0.293891,-0.594664 -0.354183,-0.877382 -0.206566,-0.968614 0.128787,-0.07959 0.420183,-0.791551 0.455631,-1.113228 0.01762,-0.15991 0.04668,-0.301849 0.06458,-0.315422 0.0179,-0.01357 0.159293,-0.11227 0.314218,-0.219329 0.272584,-0.188366 0.279817,-0.208198 0.22399,-0.614115 -0.05627,-0.409105 -0.04963,-0.42648 0.268652,-0.703615 0.978079,-0.851627 0.866969,-0.638522 0.926561,-1.777115 0.04567,-0.872573 0.08173,-1.06053 0.255486,-1.331443 0.231944,-0.361649 0.526999,-0.578474 0.955967,-0.702507 0.312071,-0.09023 0.297833,-0.06205 0.481282,-0.952684 0.02182,-0.105949 0.164607,-0.334549 0.317296,-0.508 0.601492,-0.683277 0.904269,-1.185737 0.988034,-1.639646 0.05521,-0.299145 0.144759,-0.496986 0.262869,-0.58072 0.09853,-0.06985 0.298773,-0.243814 0.444993,-0.386589 0.14622,-0.142773 0.543862,-0.481928 0.883648,-0.753678 0.81392,-0.650946 0.915601,-0.79391 0.981986,-1.380673 0.03602,-0.318423 0.132422,-0.60725 0.270482,-0.810423 0.127808,-0.188086 0.247479,-0.528267 0.296084,-0.841657 0.133397,-0.860102 0.489259,-2.098502 0.763466,-2.656859 0.149495,-0.304413 0.4397,-0.695518 0.695811,-0.937738 0.385704,-0.364783 0.516836,-0.432664 1.073867,-0.555896 0.348981,-0.0772 0.710711,-0.150905 0.803844,-0.163776 0.152431,-0.02107 0.173559,-0.104295 0.211667,-0.833779 l 0.04233,-0.810375 0.4445,-0.512609 c 0.244475,-0.281934 0.4445,-0.55408 0.4445,-0.60477 0,-0.05069 0.106122,-0.14704 0.235827,-0.214114 0.129706,-0.06707 0.289268,-0.221805 0.354584,-0.34385 0.06532,-0.122044 0.212855,-0.26817 0.327864,-0.324723 0.357587,-0.175837 0.398586,-0.33356 0.195668,-0.752733 -0.223336,-0.46135 -0.243467,-1.206393 -0.04391,-1.624879 0.132629,-0.278126 0.130775,-0.301999 -0.04233,-0.545108 -0.09957,-0.139835 -0.181038,-0.326467 -0.181038,-0.414741 0,-0.08827 -0.04572,-0.206216 -0.1016,-0.262096 -0.07902,-0.07902 -0.07902,-0.124178 0,-0.2032 0.05588,-0.05588 0.1016,-0.203085 0.1016,-0.327122 0,-0.315751 0.353493,-0.639135 0.77175,-0.706017 0.19068,-0.03049 0.447468,-0.109157 0.570637,-0.174813 0.304072,-0.162088 0.868888,-0.712739 1.047018,-1.020768 0.0802,-0.138608 0.19294,-0.31659 0.25063,-0.395515 0.0892,-0.122064 0.0595,-0.187549 -0.19871,-0.438343 -0.367879,-0.357283 -0.494391,-0.91393 -0.29488,-1.297471 0.23434,-0.450486 0.48091,-0.596704 1.19789,-0.710334 0.37253,-0.05904 0.73748,-0.157749 0.811,-0.219349 0.0735,-0.0616 0.196,-0.112002 0.27219,-0.112002 0.19753,0 0.31381,-0.266152 0.31381,-0.718305 0,-0.214924 0.0585,-0.5038629 0.12996,-0.6420879 0.11845,-0.229059 0.11757,-0.25607 -0.01,-0.304999 -0.0769,-0.02952 -1.1927,-0.02842 -2.47946,0.0024 -3.586864,0.08605 -4.785666,-0.11628 -5.188706,-0.875739 -0.181058,-0.341171 -0.206942,-0.893245 -0.04651,-0.991947 0.06053,-0.03724 0.213028,-0.246109 0.338885,-0.464157 0.125858,-0.218047 0.405546,-0.541897 0.62153,-0.719666 0.215984,-0.17777 0.66538,-0.599442 0.998658,-0.937051 0.333278,-0.337608 0.646526,-0.613833 0.696108,-0.613833 0.04958,0 0.238262,-0.117345 0.419291,-0.260767 0.500198,-0.396289 0.517118,-0.692094 0.08782,-1.535324 -0.227751,-0.44735 -0.412284,-0.702697 -0.544016,-0.752781 -0.115813,-0.04403 -11.373816,-0.07579 -26.865175,-0.07579 -20.8342246,0 -26.7386416,0.02273 -26.9988076,0.103925 -0.234466,0.07318 -0.347939,0.163492 -0.383517,0.305249 -0.06548,0.260905 0.0323,0.904286 0.194952,1.282753 0.175954,0.409411 0.262288,0.881691 0.387191,2.118073 0.0588,0.582083 0.151191,1.164013 0.205307,1.293177 0.101418,0.242064 0.313531,1.431865 0.441143,2.47449 0.0399,0.3259669 0.128995,0.9165169 0.197997,1.3123329 0.07647,0.438656 0.126646,1.281689 0.128501,2.159 0.0031,1.483856 0.121178,3.120941 0.283874,3.937 0.06259,0.313948 0.104958,3.555227 0.130035,9.948334 0.03842,9.794346 0.01121,10.889765 -0.301829,12.149666 -0.08257,0.332317 -0.133727,0.873302 -0.12914,1.365593 0.0066,0.711752 0.0324,0.848809 0.202958,1.0795 0.190785,0.258052 0.211425,0.264241 0.881203,0.264241 0.518685,0 0.766793,0.04127 1.01798,0.169333 0.253566,0.129275 0.499294,0.169333 1.038743,0.169333 1.290174,0 1.881794,0.287217 2.228281,1.081773 0.229305,0.525835 0.299357,2.274686 0.162477,4.056268 -0.105976,1.379353 -0.103592,1.445832 0.07667,2.137672 0.102327,0.392725 0.20533,0.745243 0.228896,0.783374 0.02357,0.03813 7.6682476,0.05971 16.9881826,0.04795 l 16.945335,-0.02137 0.008,-0.60241 z M 27.256611,38.007394 c -0.34925,-0.116778 -0.806449,-0.271463 -1.015999,-0.343745 -0.20955,-0.07228 -0.66675,-0.220533 -1.016,-0.329447 -0.34925,-0.108914 -0.80645,-0.256008 -1.016,-0.326875 -0.20955,-0.07087 -1.00965,-0.324906 -1.778,-0.564532 -0.76835,-0.239625 -1.53035,-0.487145 -1.693334,-0.550046 -0.162983,-0.0629 -0.433977,-0.13671 -0.602209,-0.16402 -0.342138,-0.05554 -0.546332,-0.238713 -0.617976,-0.554345 -0.02642,-0.116417 -0.08724,-0.726017 -0.135137,-1.354667 -0.0479,-0.62865 -0.123769,-1.5621 -0.168596,-2.074333 -0.141774,-1.620014 -0.253292,-3.076889 -0.379137,-4.953 -0.06716,-1.001184 -0.161022,-2.258484 -0.208591,-2.794 -0.100024,-1.126027 -0.302137,-3.597932 -0.429209,-5.249334 -0.04837,-0.62865 -0.124704,-1.524 -0.169626,-1.989666 -0.171494,-1.777774 -0.353979,-4.263992 -0.36665,-4.995334 l -0.0132,-0.762 10.55579,-0.02149 c 11.984036,-0.0244 10.848776,-0.100701 10.77716,0.724295 -0.02304,0.265393 -0.115152,1.320734 -0.2047,2.3452 -0.08955,1.024467 -0.203293,2.453217 -0.252769,3.175 -0.09382,1.368729 -0.173483,2.397278 -0.383615,4.953 -0.06892,0.8382 -0.165453,2.07645 -0.214524,2.751667 -0.08064,1.109559 -0.179704,2.368677 -0.423004,5.376333 -0.0452,0.5588 -0.121436,1.60655 -0.169405,2.328334 -0.125221,1.884146 -0.251306,2.767614 -0.414046,2.901167 -0.15397,0.126355 -0.433758,0.223315 -1.406221,0.487318 -0.372533,0.101135 -1.001183,0.292158 -1.397,0.424494 -0.395816,0.132338 -1.405466,0.454511 -2.243666,0.715941 -0.8382,0.261432 -1.84785,0.589821 -2.243667,0.729756 -1.000649,0.353764 -1.572161,0.381328 -2.370667,0.114334 z m 2.242143,-2.207989 c 0.373372,-0.121906 0.926507,-0.307084 1.229191,-0.411508 0.302683,-0.104425 0.893233,-0.287478 1.312333,-0.406785 1.737694,-0.494681 2.794141,-0.831084 2.96829,-0.94519 0.23352,-0.153009 0.265583,-0.312562 0.375222,-1.867205 0.04926,-0.6985 0.125078,-1.55575 0.168483,-1.905 0.0434,-0.34925 0.139063,-1.49225 0.212574,-2.54 0.07351,-1.04775 0.208143,-2.76225 0.299183,-3.81 0.160848,-1.851162 0.235106,-2.855002 0.425888,-5.757333 0.05051,-0.76835 0.127019,-1.56845 0.170026,-1.778 0.04301,-0.20955 0.08798,-0.97155 0.09993,-1.693334 l 0.02174,-1.312333 -0.635,-0.05243 c -0.34925,-0.02884 -2.204376,-0.05741 -4.122503,-0.0635 -2.633862,-0.0084 -3.502893,0.01384 -3.550379,0.09067 -0.09396,0.152023 -0.146499,12.960709 -0.07445,18.148427 l 0.06285,4.52517 h 0.178884 c 0.09839,0 0.484371,-0.09974 0.857742,-0.221645 z m -0.363811,-3.383712 c -0.14762,-0.103397 -0.168309,-0.250521 -0.20404,-1.45102 -0.04671,-1.569434 0.0078,-1.750949 0.567623,-1.890269 0.716147,-0.178221 1.48211,-0.433405 1.529091,-0.509424 0.02694,-0.04359 0.160268,-0.07926 0.296278,-0.07926 0.136009,0 0.390935,-0.05521 0.566503,-0.12269 0.175567,-0.06748 0.480755,-0.164095 0.678195,-0.214702 0.408061,-0.104589 0.408699,-0.106112 0.48886,-1.165852 0.04285,-0.56646 0.02967,-0.707812 -0.06953,-0.745879 -0.06732,-0.02583 -0.422379,0.0131 -0.789021,0.08653 -0.366642,0.07342 -0.895222,0.173914 -1.174622,0.22331 -0.2794,0.0494 -0.64135,0.122971 -0.804333,0.163499 -0.629693,0.156581 -0.921798,0.159647 -1.104638,0.01159 -0.1775,-0.14373 -0.177955,-0.157913 -0.168664,-5.261453 0.0084,-4.589388 0.02346,-5.132965 0.146431,-5.268845 0.127305,-0.140671 0.375021,-0.151511 3.462279,-0.151511 2.820935,0 3.344141,0.01898 3.45031,0.125147 0.179774,0.179774 0.100658,2.410113 -0.100678,2.838186 l -0.139374,0.296334 -2.071647,0.02271 c -1.139405,0.01249 -2.098618,0.05059 -2.131582,0.08467 -0.03296,0.03407 -0.06988,0.843003 -0.08204,1.79762 l -0.02211,1.735666 0.629689,-0.01113 c 0.346329,-0.0061 0.934489,-0.06804 1.307023,-0.137599 0.372533,-0.06956 0.947255,-0.151964 1.27716,-0.183121 0.515834,-0.04871 0.6276,-0.03416 0.798166,0.103959 l 0.19834,0.160606 -0.09925,1.515307 c -0.05459,0.833419 -0.158274,2.315408 -0.230411,3.293308 -0.07214,0.9779 -0.142189,2.006794 -0.155671,2.286432 -0.03841,0.79658 -0.131136,0.905717 -0.941665,1.108284 -1.224413,0.306004 -1.794809,0.460931 -1.947333,0.528921 -0.09313,0.04152 -0.321733,0.11664 -0.508,0.166943 -0.186267,0.0503 -0.624417,0.183904 -0.973667,0.296892 -1.383701,0.447649 -1.499546,0.471598 -1.677668,0.346837 z m 0.781037,-0.47099 c -0.04241,-0.06862 0.0078,-0.08001 0.171431,-0.03894 0.168809,0.04237 0.21444,0.03065 0.168722,-0.04332 -0.04401,-0.0712 -0.0083,-0.08717 0.120023,-0.05362 0.118227,0.03092 0.16281,0.01561 0.126349,-0.04338 -0.03563,-0.05766 -0.0046,-0.07129 0.08455,-0.03709 0.07749,0.02974 0.140889,0.01459 0.140889,-0.03365 0,-0.05091 0.0755,-0.06375 0.179936,-0.0306 0.132452,0.04204 0.162493,0.02888 0.113836,-0.04984 -0.05056,-0.08182 0.0071,-0.09507 0.245294,-0.05642 0.206771,0.03355 0.292972,0.02072 0.256562,-0.03819 -0.03577,-0.05788 0.01141,-0.0677 0.135705,-0.02825 0.119615,0.03796 0.171016,0.02888 0.138089,-0.02439 -0.0686,-0.110999 0.161202,-0.197072 0.341466,-0.127898 0.100164,0.03844 0.121577,0.02282 0.07407,-0.05404 -0.05146,-0.08327 -0.0012,-0.09512 0.218944,-0.05158 0.223763,0.04426 0.258206,0.0356 0.158759,-0.03991 -0.102731,-0.07801 -0.083,-0.08941 0.103272,-0.0597 0.126648,0.0202 0.21182,0.0069 0.18927,-0.02961 -0.05354,-0.08664 0.273161,-0.189857 0.384034,-0.121334 0.04698,0.02904 0.08542,0.0084 0.08542,-0.04593 0,-0.0543 0.05715,-0.07679 0.127,-0.04999 0.06985,0.0268 0.127,0.0093 0.127,-0.03898 0,-0.05091 0.0755,-0.06375 0.179936,-0.0306 0.131795,0.04183 0.162394,0.02873 0.114372,-0.04898 -0.04926,-0.07971 -0.008,-0.09165 0.165825,-0.04801 0.168809,0.04237 0.21444,0.03065 0.168722,-0.04332 -0.04344,-0.07029 -0.01,-0.08762 0.108986,-0.05651 0.108058,0.02826 0.21278,-0.01217 0.282662,-0.109129 0.06106,-0.08471 0.134206,-0.139679 0.162558,-0.122157 0.02835,0.01752 0.04159,-0.108342 0.02942,-0.279701 -0.01883,-0.265158 -0.01157,-0.280037 0.04874,-0.09989 0.04227,0.126246 0.053,-0.126787 0.0266,-0.627004 -0.02607,-0.49392 -0.01262,-0.819109 0.03272,-0.791086 0.04471,0.02763 0.06404,-0.237646 0.0461,-0.632671 -0.01699,-0.374141 0.0019,-0.659919 0.04207,-0.635062 0.04013,0.02486 0.0596,-0.317784 0.04327,-0.761423 -0.01778,-0.482931 0.0019,-0.787108 0.04897,-0.758002 0.04655,0.02877 0.06262,-0.144814 0.03937,-0.425166 -0.02192,-0.26431 -0.0061,-0.453233 0.0357,-0.427309 0.04236,0.02625 0.06219,-0.322837 0.04557,-0.802332 -0.02083,-0.601051 -0.0023,-0.832041 0.0635,-0.791377 0.125625,0.07764 0.117725,-0.05838 -0.01292,-0.222438 -0.122859,-0.15428 -0.778969,-0.283665 -0.687437,-0.135561 0.0395,0.06391 -0.05161,0.07794 -0.294454,0.04537 -0.23597,-0.03165 -0.333452,-0.01772 -0.296334,0.04233 0.03712,0.06006 -0.06036,0.07398 -0.296333,0.04233 -0.234745,-0.03149 -0.333366,-0.01759 -0.296655,0.04181 0.03741,0.06053 -0.118226,0.07313 -0.486815,0.03941 -0.377934,-0.03458 -0.477786,-0.02594 -0.330139,0.02857 0.172998,0.06387 0.145927,0.07214 -0.148186,0.04526 -0.239457,-0.02188 -0.341256,-0.0028 -0.30427,0.05705 0.03801,0.0615 -0.07576,0.07252 -0.359814,0.03485 -0.283341,-0.03757 -0.375023,-0.02876 -0.288396,0.02772 0.164062,0.10696 0.0354,0.110293 -0.162807,0.0042 -0.121906,-0.06524 -0.14685,-0.169098 -0.127094,-0.529166 0.02307,-0.420403 0.02045,-0.427137 -0.04241,-0.109327 -0.04215,0.213105 -0.07145,-0.361623 -0.07901,-1.550164 -0.0091,-1.423107 0.01241,-1.873735 0.08704,-1.82761 0.06569,0.0406 0.08164,0.01585 0.04737,-0.07348 -0.11187,-0.291529 0.124413,-0.322833 2.250624,-0.298167 1.350529,0.01567 2.071365,-0.0055 2.062139,-0.06058 -0.0078,-0.04657 0.02392,-0.07827 0.07048,-0.07046 0.05036,0.0084 0.07249,-0.158748 0.05462,-0.41265 -0.0232,-0.329648 -0.0055,-0.411665 0.07789,-0.360149 0.07767,0.048 0.09203,0.02527 0.05121,-0.08111 -0.0312,-0.0813 -0.05672,-0.468547 -0.05672,-0.860555 V 16.46305 h -3.175 c -2.17818,0 -3.175,0.02815 -3.175,0.08966 0,0.04931 -0.02858,0.072 -0.0635,0.05042 -0.03493,-0.02159 -0.05459,2.190564 -0.0437,4.915887 l 0.0198,4.955131 0.335228,0.01626 c 0.184376,0.0089 0.315536,-0.0156 0.291469,-0.05455 -0.02407,-0.03894 0.12097,-0.05146 0.322306,-0.02782 0.296871,0.03486 0.326054,0.0275 0.154397,-0.03894 -0.177593,-0.06874 -0.153739,-0.07663 0.148186,-0.04904 0.237077,0.02166 0.341094,0.0025 0.304871,-0.05608 -0.03632,-0.05876 0.02356,-0.06925 0.176409,-0.03089 0.166958,0.0419 0.214218,0.03029 0.169722,-0.0417 -0.04541,-0.07348 0.02526,-0.0847 0.268073,-0.04259 0.252578,0.04381 0.30002,0.03509 0.202739,-0.03724 -0.10162,-0.07556 -0.08047,-0.087 0.105833,-0.05721 0.128059,0.02047 0.232834,0.0018 0.232834,-0.04141 0,-0.04325 0.08097,-0.05293 0.179936,-0.02152 0.132454,0.04204 0.162493,0.02889 0.113835,-0.04984 -0.0503,-0.08139 -0.0012,-0.09398 0.205273,-0.05268 0.16956,0.03391 0.252037,0.02299 0.219834,-0.02912 -0.09918,-0.160475 0.465732,-0.08411 0.635788,0.08594 0.157203,0.157203 0.247729,0.566599 0.105834,0.478623 -0.03493,-0.02165 -0.05046,0.336266 -0.03452,0.795375 0.02794,0.804897 0.02108,0.842644 -0.19191,1.055632 -0.159244,0.159244 -0.270707,0.205073 -0.399413,0.164224 -0.130497,-0.04142 -0.1609,-0.02814 -0.113007,0.04935 0.04822,0.07802 0.0063,0.09469 -0.158731,0.06315 -0.123337,-0.02358 -0.22425,-0.006 -0.22425,0.03912 0,0.04509 -0.05715,0.06005 -0.127,0.03325 -0.06985,-0.0268 -0.127,-0.0093 -0.127,0.03898 0,0.05091 -0.0755,0.06375 -0.179936,0.03061 -0.132546,-0.04207 -0.162507,-0.02891 -0.113761,0.04997 0.04819,0.07797 0.01653,0.09409 -0.116514,0.0593 -0.112055,-0.0293 -0.162177,-0.01459 -0.129636,0.03807 0.03365,0.05444 -0.01665,0.06372 -0.137486,0.02537 -0.141838,-0.04502 -0.173645,-0.03314 -0.124439,0.04648 0.05056,0.08182 -0.0071,0.09508 -0.245294,0.05642 -0.171268,-0.02779 -0.292685,-0.02026 -0.26982,0.01674 0.06556,0.106078 -0.377488,0.272445 -0.566112,0.212578 -0.123928,-0.03933 -0.152215,-0.02491 -0.104032,0.05305 0.04819,0.07797 0.01654,0.09409 -0.116397,0.05933 -0.100415,-0.02626 -0.182573,-0.01004 -0.182573,0.03605 0,0.04609 -0.04728,0.06804 -0.105077,0.04877 -0.05779,-0.01926 -0.156114,0.01601 -0.218492,0.07839 -0.06238,0.06238 -0.138919,0.09757 -0.17009,0.07821 -0.03117,-0.01937 -0.04522,0.511414 -0.03121,1.179511 l 0.02546,1.214721 0.270874,0.03383 c 0.14898,0.01861 0.301696,0.03993 0.33937,0.04738 0.03767,0.0075 0.04152,-0.03011 0.0085,-0.08346 z m -0.734042,-1.487395 c -0.01685,-0.269458 -0.0308,-0.07082 -0.03099,0.441409 -1.69e-4,0.512233 0.0136,0.732699 0.03064,0.489925 0.01704,-0.242775 0.0172,-0.661875 3.39e-4,-0.931334 z m 5.8407,-1.483241 c -0.01884,-0.152176 -0.03465,-0.04808 -0.03513,0.231317 -5.08e-4,0.2794 0.01494,0.403907 0.03426,0.276683 0.01932,-0.127225 0.01971,-0.355825 8.63e-4,-0.508 z m 0.08406,-1.228019 c -0.01946,-0.128699 -0.0359,-0.0435 -0.03654,0.189336 -5.93e-4,0.232833 0.01529,0.338132 0.03538,0.233997 0.0201,-0.104135 0.02062,-0.294635 0.0012,-0.423333 z m 0.08455,-1.355831 c -0.0194,-0.128058 -0.03527,-0.02328 -0.03527,0.232833 0,0.256117 0.01587,0.360892 0.03527,0.232834 0.0194,-0.128059 0.0194,-0.337609 0,-0.465667 z m -1.865473,0.386292 c -0.02703,-0.06754 -0.04709,-0.04748 -0.05115,0.05115 -0.0037,0.08925 0.01633,0.139259 0.04447,0.111125 0.02813,-0.02813 0.03114,-0.10116 0.0067,-0.162278 z m -4.143069,-7.673637 c -0.01314,-1.288919 -0.02388,-0.209888 -0.02387,2.397845 1.2e-5,2.607733 0.01076,3.662303 0.02389,2.343489 0.01313,-1.318815 0.01312,-3.452415 -2.2e-5,-4.741334 z M 35.35969,24.14655 C 35.33951,24.041775 35.323,24.1275 35.323,24.33705 c 0,0.20955 0.01651,0.295275 0.03669,0.1905 0.02018,-0.104775 0.02018,-0.276225 0,-0.381 z m -0.965141,-5.037326 c -0.521248,-0.01483 -1.397548,-0.01488 -1.947334,-8.5e-5 -0.549785,0.01477 -0.12331,0.0269 0.947724,0.02696 1.071033,5.9e-5 1.520858,-0.01202 0.99961,-0.02685 z m 1.474637,-2.074674 c -0.01878,-0.151341 -0.03415,-0.02752 -0.03415,0.275167 0,0.302683 0.01537,0.426508 0.03415,0.275167 0.01878,-0.151342 0.01878,-0.398992 0,-0.550334 z m -8.527914,7.250297 c 0,-4.255422 -1.69e-4,-7.76161 -2.54e-4,-7.791529 -1.69e-4,-0.02992 -0.32777,-0.04652 -0.728023,-0.0369 -0.466789,0.01123 -0.709009,-0.01279 -0.675516,-0.06699 0.03067,-0.04962 -0.03675,-0.07501 -0.163366,-0.06151 l -0.215585,0.02298 0.0036,5.565124 c 0.002,3.060818 -0.02853,5.545292 -0.06775,5.521053 -0.03922,-0.02424 -0.05423,0.161926 -0.03335,0.413701 0.04866,0.586789 -0.03029,0.921137 -0.201967,0.855261 -0.07255,-0.02784 -0.105479,-0.01286 -0.07613,0.03463 0.02841,0.04603 -0.01,0.0837 -0.0853,0.0837 -0.07535,0 -0.112503,-0.03963 -0.08257,-0.08806 0.03564,-0.05766 -0.02545,-0.06801 -0.176964,-0.02999 -0.167685,0.04209 -0.214305,0.03043 -0.169334,-0.04233 0.04497,-0.07277 -0.0017,-0.08442 -0.169333,-0.04233 -0.179066,0.04494 -0.21582,0.03288 -0.162539,-0.05333 0.04981,-0.08059 0.02988,-0.09645 -0.07204,-0.05734 -0.166518,0.0639 -0.412154,-0.01352 -0.351953,-0.110931 0.02308,-0.03734 -0.04025,-0.0464 -0.140725,-0.02012 -0.133039,0.03479 -0.164705,0.01867 -0.116514,-0.0593 0.04875,-0.07887 0.01879,-0.09203 -0.113761,-0.04997 -0.09897,0.03141 -0.179936,0.02172 -0.179936,-0.02152 0,-0.04325 -0.100913,-0.05934 -0.22425,-0.03576 -0.165041,0.03155 -0.206951,0.01488 -0.158731,-0.06314 0.04851,-0.0785 0.01606,-0.09032 -0.125019,-0.04554 -0.128782,0.04087 -0.171956,0.03041 -0.133205,-0.03229 0.03593,-0.05814 0.0083,-0.07395 -0.07406,-0.04235 -0.07227,0.02773 -0.131398,0.01353 -0.131398,-0.03156 0,-0.04509 -0.100912,-0.06269 -0.224249,-0.03912 -0.165041,0.03155 -0.206952,0.01488 -0.158732,-0.06314 0.04797,-0.07762 0.01732,-0.09071 -0.114416,-0.0489 -0.104431,0.03315 -0.179936,0.0203 -0.179936,-0.03061 0,-0.04824 -0.0634,-0.06339 -0.140889,-0.03365 -0.104511,0.04011 -0.123293,0.02302 -0.07274,-0.06616 0.05349,-0.09436 0.03908,-0.0929 -0.06697,0.0068 -0.110529,0.103891 -0.137187,0.350394 -0.146493,1.354667 -0.01001,1.079747 0.0048,1.22467 0.123189,1.202788 0.07401,-0.01368 0.134567,0.01714 0.134567,0.0685 0,0.05136 0.03109,0.07416 0.0691,0.05067 0.105422,-0.06515 0.703571,0.162662 0.630174,0.240013 -0.03535,0.03725 0.02622,0.03987 0.13683,0.0058 0.136923,-0.04216 0.182806,-0.03232 0.14377,0.03085 -0.03593,0.05814 -0.0083,0.07394 0.07406,0.04235 0.07227,-0.02773 0.131398,-0.0094 0.131398,0.04065 0,0.05009 0.05715,0.06914 0.127,0.04233 0.06985,-0.0268 0.127,-0.01184 0.127,0.03325 0,0.04509 0.100912,0.06269 0.22425,0.03912 0.165041,-0.03155 0.206951,-0.01488 0.158731,0.06314 -0.04797,0.07762 -0.01732,0.09071 0.114416,0.0489 0.104431,-0.03314 0.179936,-0.0203 0.179936,0.03061 0,0.04824 0.05715,0.06578 0.127,0.03898 0.06985,-0.0268 0.127,-0.0078 0.127,0.04233 0,0.05009 0.05715,0.06914 0.127,0.04233 0.06985,-0.0268 0.127,-0.01012 0.127,0.03706 0,0.04719 0.08216,0.06431 0.182573,0.03805 0.132938,-0.03476 0.164582,-0.01863 0.116397,0.05933 -0.0493,0.07976 -0.01757,0.09165 0.124364,0.0466 0.128782,-0.04087 0.171956,-0.03041 0.133205,0.03229 -0.03593,0.05814 -0.0083,0.07395 0.07406,0.04235 0.07227,-0.02773 0.131397,-0.0094 0.131397,0.04065 0,0.05009 0.05715,0.06914 0.127,0.04233 0.06985,-0.0268 0.127,-0.01013 0.127,0.03706 0,0.04719 0.08216,0.06431 0.182573,0.03805 0.128191,-0.03352 0.163907,-0.01754 0.119906,0.05365 -0.04572,0.07397 -8.5e-5,0.08569 0.168722,0.04332 0.150606,-0.0378 0.212519,-0.02754 0.177338,0.02938 -0.02973,0.0481 -0.0068,0.08575 0.05087,0.08368 0.283469,-0.01021 0.406591,0.03044 0.353317,0.116634 -0.03899,0.06308 9.14e-4,0.07506 0.122003,0.03663 0.104431,-0.03315 0.179936,-0.0203 0.179936,0.03061 0,0.04824 0.05715,0.06578 0.127,0.03898 0.06985,-0.0268 0.127,-0.01184 0.127,0.03325 0,0.04509 0.09525,0.06378 0.211666,0.04152 l 0.211667,-0.04046 v -7.73713 z"
         id="path33"
         inkscape:connector-curvature="0" />
      <path
         style="fill:#f1cf3b;stroke-width:0.08466666"
         d="m 9.1483434,51.938208 c -0.649118,-0.153256 -0.92938,-0.552005 -1.149751,-1.635831 -0.110032,-0.541161 -0.130431,-1.162229 -0.111492,-3.394605 0.01962,-2.312958 0.0039,-2.75549 -0.102249,-2.883612 -0.109891,-0.1326 -0.220019,-0.144943 -0.889,-0.09964 -0.652162,0.04416 -0.817423,0.02726 -1.132651,-0.11588 -0.274253,-0.124531 -0.552304,-0.16759 -1.082219,-0.16759 -0.894808,0 -1.157349,-0.109314 -1.646319,-0.685477 -0.713311,-0.840507 -0.702304,-0.807389 -0.682365,-2.053162 0.01253,-0.783091 0.07356,-1.365029 0.205571,-1.960361 l 0.187745,-0.846666 v -10.033 c 0,-9.79497 -0.0044,-10.071166 -0.186365,-11.641667 -0.102501,-0.884767 -0.205755,-2.332567 -0.229454,-3.217333 -0.04638,-1.731612 -0.289001,-3.6523999 -0.677857,-5.3665459 -0.120262,-0.530133 -0.218658,-1.202597 -0.218658,-1.494364 0,-0.343396 -0.104015,-0.910008 -0.294929,-1.606597 C 0.97613943,4.1440161 0.81914443,3.4228111 0.78947343,3.1331991 0.68797643,2.1425321 1.1173284,1.2627581 1.8832424,0.89198614 l 0.3655,-0.176936 H 29.910728 c 24.77602,0 27.694708,0.01367 27.975613,0.131041 0.423728,0.17704496 0.672376,0.42590896 0.790887,0.79157596 0.05438,0.167777 0.250297,0.60806 0.435378,0.978405 0.728815,1.458343 0.449405,2.491634 -0.910329,3.366463 -0.2794,0.179762 -0.606627,0.45731 -0.727172,0.616772 -0.120545,0.159463 -0.436491,0.46884 -0.7021,0.687504 -0.349388,0.287636 -0.457323,0.423151 -0.390331,0.490073 0.06364,0.06357 1.13497,0.09414 3.425557,0.09775 l 3.33296,0.0052 0.33299,0.220367 c 0.70858,0.468914 0.88733,1.424774 0.36686,1.9617619 -0.24035,0.247977 -0.25522,0.298523 -0.20719,0.704106 0.0444,0.37507 0.0199,0.491278 -0.17306,0.82057 -0.24654,0.420682 -0.79471,0.841148 -1.39836,1.072596 -0.32595,0.124977 -0.38448,0.181014 -0.36199,0.346587 0.13153,0.96806 0.14213,0.918347 -0.33815,1.585984 -0.77026,1.070724 -1.22957,1.587768 -1.63448,1.839921 -0.21455,0.133613 -0.46815,0.301407 -0.563547,0.372875 l -0.173449,0.129941 0.187866,0.318405 c 0.22439,0.380315 0.19278,0.881181 -0.07879,1.248499 l -0.173344,0.23446 0.218706,0.391306 c 0.189901,0.339763 0.214341,0.468521 0.185581,0.977504 -0.0394,0.697473 -0.175638,0.91904 -0.839555,1.365475 -0.252085,0.16951 -0.672696,0.570608 -0.93469,0.89133 l -0.476351,0.583131 -0.06203,0.866658 c -0.07294,1.019025 -0.218425,1.309837 -0.803055,1.605183 -0.281485,0.142201 -0.52383,0.1905 -0.95586,0.1905 -0.519112,0 -0.600467,0.02341 -0.789276,0.22714 -0.32451,0.350152 -0.524064,0.876471 -0.925073,2.43986 -0.203054,0.791633 -0.447898,1.590264 -0.544095,1.774735 -0.0962,0.184471 -0.174906,0.456043 -0.174906,0.603494 0,0.537138 -0.214199,0.824614 -1.336808,1.794127 -1.008768,0.871197 -1.10806,0.983502 -1.275453,1.442592 -0.09984,0.273817 -0.376371,0.755235 -0.614515,1.069817 -0.386893,0.511072 -0.42296,0.593983 -0.338774,0.778752 0.138498,0.303972 0.114718,0.629824 -0.06781,0.929162 -0.160812,0.263725 -0.855726,0.697273 -1.411761,0.880781 -0.280968,0.09273 -0.288878,0.107771 -0.288878,0.549443 0,0.249756 -0.0381,0.47765 -0.08467,0.50643 -0.04657,0.02878 -0.08467,0.276198 -0.08467,0.549819 0,0.589383 -0.100595,0.890836 -0.403075,1.2079 -0.204474,0.214331 -0.214561,0.256968 -0.121614,0.514011 0.05575,0.154161 0.101355,0.365204 0.101355,0.468986 0,0.469446 -0.474721,0.938986 -1.078407,1.066638 -0.222501,0.04705 -0.306473,0.131195 -0.446247,0.447177 l -0.172172,0.389224 0.208027,0.218123 c 0.408532,0.428359 0.446322,0.781152 0.157197,1.467556 -0.129032,0.30633 -0.126071,0.332957 0.08004,0.719666 0.117713,0.220862 0.238888,0.507303 0.269278,0.636535 0.03039,0.129232 0.182445,0.376882 0.337901,0.550333 0.368159,0.410778 0.530047,0.737002 0.601202,1.211501 0.107409,0.716257 -0.254354,1.529234 -0.807857,1.815461 -0.226133,0.116938 -0.249623,0.169113 -0.249623,0.554449 0,0.510548 -0.156968,0.842327 -0.534892,1.130584 -0.660676,0.503922 0.589299,0.472501 -18.419919,0.463037 -9.575237,-0.0048 -17.5381916,-0.03905 -17.6954566,-0.07618 z M 43.893516,49.854307 c 0.0052,-0.394747 0.05409,-0.672771 0.141723,-0.806522 0.123862,-0.189038 0.500187,-0.422959 0.853205,-0.530348 0.259385,-0.0789 0.170608,-0.433601 -0.224328,-0.896283 -0.221865,-0.25992 -0.410271,-0.586404 -0.465908,-0.807357 -0.05138,-0.204033 -0.207602,-0.540169 -0.34717,-0.74697 -0.205009,-0.303765 -0.253243,-0.463103 -0.251068,-0.829388 0.0015,-0.250426 0.05498,-0.522362 0.119489,-0.607466 0.102494,-0.135209 0.08143,-0.225639 -0.172026,-0.738485 -0.293891,-0.594664 -0.354183,-0.877382 -0.206566,-0.968614 0.128787,-0.07959 0.420183,-0.791551 0.455631,-1.113228 0.01762,-0.15991 0.04668,-0.301849 0.06458,-0.315422 0.0179,-0.01357 0.159293,-0.11227 0.314218,-0.219329 0.272584,-0.188366 0.279817,-0.208198 0.22399,-0.614115 -0.05627,-0.409105 -0.04963,-0.42648 0.268652,-0.703615 0.978079,-0.851627 0.866969,-0.638522 0.926561,-1.777115 0.04567,-0.872573 0.08173,-1.06053 0.255486,-1.331443 0.231944,-0.361649 0.526999,-0.578474 0.955967,-0.702507 0.312071,-0.09023 0.297833,-0.06205 0.481282,-0.952684 0.02182,-0.105949 0.164607,-0.334549 0.317296,-0.508 0.601492,-0.683277 0.904269,-1.185737 0.988034,-1.639646 0.05521,-0.299145 0.144759,-0.496986 0.262869,-0.58072 0.09853,-0.06985 0.298773,-0.243814 0.444993,-0.386589 0.14622,-0.142773 0.543862,-0.481928 0.883648,-0.753678 0.81392,-0.650946 0.915601,-0.79391 0.981986,-1.380673 0.03602,-0.318423 0.132422,-0.60725 0.270482,-0.810423 0.127808,-0.188086 0.247479,-0.528267 0.296084,-0.841657 0.133397,-0.860102 0.489259,-2.098502 0.763466,-2.656859 0.149495,-0.304413 0.4397,-0.695518 0.695811,-0.937738 0.385704,-0.364783 0.516836,-0.432664 1.073867,-0.555896 0.348981,-0.0772 0.710711,-0.150905 0.803844,-0.163776 0.152431,-0.02107 0.173559,-0.104295 0.211667,-0.833779 l 0.04233,-0.810375 0.4445,-0.512609 c 0.244475,-0.281934 0.4445,-0.55408 0.4445,-0.60477 0,-0.05069 0.106122,-0.14704 0.235827,-0.214114 0.129706,-0.06707 0.289268,-0.221805 0.354584,-0.34385 0.06532,-0.122044 0.212855,-0.26817 0.327864,-0.324723 0.357587,-0.175837 0.398586,-0.33356 0.195668,-0.752733 -0.223336,-0.46135 -0.243467,-1.206393 -0.04391,-1.624879 0.132629,-0.278126 0.130775,-0.301999 -0.04233,-0.545108 -0.09957,-0.139835 -0.181038,-0.326467 -0.181038,-0.414741 0,-0.08827 -0.04572,-0.206216 -0.1016,-0.262096 -0.07902,-0.07902 -0.07902,-0.124178 0,-0.2032 0.05588,-0.05588 0.1016,-0.203085 0.1016,-0.327122 0,-0.315751 0.353493,-0.639135 0.77175,-0.706017 0.19068,-0.03049 0.447468,-0.109157 0.570637,-0.174813 0.304072,-0.162088 0.868888,-0.712739 1.047018,-1.020768 0.0802,-0.138608 0.19294,-0.31659 0.25063,-0.395515 0.0892,-0.122064 0.0595,-0.187549 -0.19871,-0.438343 -0.367879,-0.357283 -0.494391,-0.91393 -0.29488,-1.297471 0.23434,-0.450486 0.48091,-0.596704 1.19789,-0.710334 0.37253,-0.05904 0.73748,-0.157749 0.811,-0.219349 0.0735,-0.0616 0.196,-0.112002 0.27219,-0.112002 0.19753,0 0.31381,-0.266152 0.31381,-0.718305 0,-0.214924 0.0585,-0.5038629 0.12996,-0.6420879 0.11845,-0.229059 0.11757,-0.25607 -0.01,-0.304999 -0.0769,-0.02952 -1.1927,-0.02842 -2.47946,0.0024 -3.586864,0.08605 -4.785666,-0.11628 -5.188706,-0.875739 -0.181058,-0.341171 -0.206942,-0.893245 -0.04651,-0.991947 0.06053,-0.03724 0.213028,-0.246109 0.338885,-0.464157 0.125858,-0.218047 0.405546,-0.541897 0.62153,-0.719666 0.215984,-0.17777 0.66538,-0.599442 0.998658,-0.937051 0.333278,-0.337608 0.646526,-0.613833 0.696108,-0.613833 0.04958,0 0.238262,-0.117345 0.419291,-0.260767 0.500198,-0.396289 0.517118,-0.692094 0.08782,-1.535324 -0.227751,-0.44735 -0.412284,-0.702697 -0.544016,-0.752781 -0.115813,-0.04403 -11.373816,-0.07579 -26.865175,-0.07579 -20.8342246,0 -26.7386416,0.02273 -26.9988076,0.103925 -0.234466,0.07318 -0.347939,0.163492 -0.383517,0.305249 -0.06548,0.260905 0.0323,0.904286 0.194952,1.282753 0.175954,0.409411 0.262288,0.881691 0.387191,2.118073 0.0588,0.582083 0.151191,1.164013 0.205307,1.293177 0.101418,0.242064 0.313531,1.431865 0.441143,2.47449 0.0399,0.3259669 0.128995,0.9165169 0.197997,1.3123329 0.07647,0.438656 0.126646,1.281689 0.128501,2.159 0.0031,1.483856 0.121178,3.120941 0.283874,3.937 0.06259,0.313948 0.104958,3.555227 0.130035,9.948334 0.03842,9.794346 0.01121,10.889765 -0.301829,12.149666 -0.08257,0.332317 -0.133727,0.873302 -0.12914,1.365593 0.0066,0.711752 0.0324,0.848809 0.202958,1.0795 0.190785,0.258052 0.211425,0.264241 0.881203,0.264241 0.518685,0 0.766793,0.04127 1.01798,0.169333 0.253566,0.129275 0.499294,0.169333 1.038743,0.169333 1.290174,0 1.881794,0.287217 2.228281,1.081773 0.229305,0.525835 0.299357,2.274686 0.162477,4.056268 -0.105976,1.379353 -0.103592,1.445832 0.07667,2.137672 0.102327,0.392725 0.20533,0.745243 0.228896,0.783374 0.02357,0.03813 7.6682476,0.05971 16.9881826,0.04795 l 16.945335,-0.02137 0.008,-0.60241 z M 27.256611,38.007394 c -0.34925,-0.116778 -0.806449,-0.271463 -1.015999,-0.343745 -0.20955,-0.07228 -0.66675,-0.220533 -1.016,-0.329447 -0.34925,-0.108914 -0.80645,-0.256008 -1.016,-0.326875 -0.20955,-0.07087 -1.00965,-0.324906 -1.778,-0.564532 -0.76835,-0.239625 -1.53035,-0.487145 -1.693334,-0.550046 -0.162983,-0.0629 -0.433977,-0.13671 -0.602209,-0.16402 -0.342138,-0.05554 -0.546332,-0.238713 -0.617976,-0.554345 -0.02642,-0.116417 -0.08724,-0.726017 -0.135137,-1.354667 -0.0479,-0.62865 -0.123769,-1.5621 -0.168596,-2.074333 -0.141774,-1.620014 -0.253292,-3.076889 -0.379137,-4.953 -0.06716,-1.001184 -0.161022,-2.258484 -0.208591,-2.794 -0.100024,-1.126027 -0.302137,-3.597932 -0.429209,-5.249334 -0.04837,-0.62865 -0.124704,-1.524 -0.169626,-1.989666 -0.171494,-1.777774 -0.353979,-4.263992 -0.36665,-4.995334 l -0.0132,-0.762 10.55579,-0.02149 c 11.984036,-0.0244 10.848776,-0.100701 10.77716,0.724295 -0.02304,0.265393 -0.115152,1.320734 -0.2047,2.3452 -0.08955,1.024467 -0.203293,2.453217 -0.252769,3.175 -0.09382,1.368729 -0.173483,2.397278 -0.383615,4.953 -0.06892,0.8382 -0.165453,2.07645 -0.214524,2.751667 -0.08064,1.109559 -0.179704,2.368677 -0.423004,5.376333 -0.0452,0.5588 -0.121436,1.60655 -0.169405,2.328334 -0.125221,1.884146 -0.251306,2.767614 -0.414046,2.901167 -0.15397,0.126355 -0.433758,0.223315 -1.406221,0.487318 -0.372533,0.101135 -1.001183,0.292158 -1.397,0.424494 -0.395816,0.132338 -1.405466,0.454511 -2.243666,0.715941 -0.8382,0.261432 -1.84785,0.589821 -2.243667,0.729756 -1.000649,0.353764 -1.572161,0.381328 -2.370667,0.114334 z m 2.242143,-2.207989 c 0.373372,-0.121906 0.926507,-0.307084 1.229191,-0.411508 0.302683,-0.104425 0.893233,-0.287478 1.312333,-0.406785 1.737694,-0.494681 2.794141,-0.831084 2.96829,-0.94519 0.23352,-0.153009 0.265583,-0.312562 0.375222,-1.867205 0.04926,-0.6985 0.125078,-1.55575 0.168483,-1.905 0.0434,-0.34925 0.139063,-1.49225 0.212574,-2.54 0.07351,-1.04775 0.208143,-2.76225 0.299183,-3.81 0.160848,-1.851162 0.235106,-2.855002 0.425888,-5.757333 0.05051,-0.76835 0.127019,-1.56845 0.170026,-1.778 0.04301,-0.20955 0.08798,-0.97155 0.09993,-1.693334 l 0.02174,-1.312333 -0.635,-0.05243 c -0.34925,-0.02884 -2.204376,-0.05741 -4.122503,-0.0635 -2.633862,-0.0084 -3.502893,0.01384 -3.550379,0.09067 -0.09396,0.152023 -0.146499,12.960709 -0.07445,18.148427 l 0.06285,4.52517 h 0.178884 c 0.09839,0 0.484371,-0.09974 0.857742,-0.221645 z m -0.363811,-3.383712 c -0.14762,-0.103397 -0.168309,-0.250521 -0.20404,-1.45102 -0.04671,-1.569434 0.0078,-1.750949 0.567623,-1.890269 0.716147,-0.178221 1.48211,-0.433405 1.529091,-0.509424 0.02694,-0.04359 0.160268,-0.07926 0.296278,-0.07926 0.136009,0 0.390935,-0.05521 0.566503,-0.12269 0.175567,-0.06748 0.480755,-0.164095 0.678195,-0.214702 0.408061,-0.104589 0.408699,-0.106112 0.48886,-1.165852 0.04285,-0.56646 0.02967,-0.707812 -0.06953,-0.745879 -0.06732,-0.02583 -0.422379,0.0131 -0.789021,0.08653 -0.366642,0.07342 -0.895222,0.173914 -1.174622,0.22331 -0.2794,0.0494 -0.64135,0.122971 -0.804333,0.163499 -0.629693,0.156581 -0.921798,0.159647 -1.104638,0.01159 -0.1775,-0.14373 -0.177955,-0.157913 -0.168664,-5.261453 0.0084,-4.589388 0.02346,-5.132965 0.146431,-5.268845 0.127305,-0.140671 0.375021,-0.151511 3.462279,-0.151511 2.820935,0 3.344141,0.01898 3.45031,0.125147 0.179774,0.179774 0.100658,2.410113 -0.100678,2.838186 l -0.139374,0.296334 -2.071647,0.02271 c -1.139405,0.01249 -2.098618,0.05059 -2.131582,0.08467 -0.03296,0.03407 -0.06988,0.843003 -0.08204,1.79762 l -0.02211,1.735666 0.629689,-0.01113 c 0.346329,-0.0061 0.934489,-0.06804 1.307023,-0.137599 0.372533,-0.06956 0.947255,-0.151964 1.27716,-0.183121 0.515834,-0.04871 0.6276,-0.03416 0.798166,0.103959 l 0.19834,0.160606 -0.09925,1.515307 c -0.05459,0.833419 -0.158274,2.315408 -0.230411,3.293308 -0.07214,0.9779 -0.142189,2.006794 -0.155671,2.286432 -0.03841,0.79658 -0.131136,0.905717 -0.941665,1.108284 -1.224413,0.306004 -1.794809,0.460931 -1.947333,0.528921 -0.09313,0.04152 -0.321733,0.11664 -0.508,0.166943 -0.186267,0.0503 -0.624417,0.183904 -0.973667,0.296892 -1.383701,0.447649 -1.499546,0.471598 -1.677668,0.346837 z m 1.397274,-0.574718 c 0.363766,-0.110408 0.813794,-0.240988 1.000061,-0.290177 0.186267,-0.04919 0.586317,-0.166117 0.889,-0.25984 0.302683,-0.09372 0.928004,-0.285025 1.389601,-0.425115 0.461597,-0.14009 0.889528,-0.30497 0.950958,-0.3664 0.138974,-0.138973 0.289554,-0.901077 0.289144,-1.463393 -1.69e-4,-0.232833 0.02079,-0.728133 0.04658,-1.100666 0.02579,-0.372534 0.06347,-1.039284 0.08375,-1.481667 0.02027,-0.442383 0.0548,-0.975783 0.07672,-1.185333 0.02192,-0.20955 0.05238,-0.791711 0.06769,-1.293691 0.02133,-0.69948 5.08e-4,-0.935354 -0.08907,-1.009709 -0.115276,-0.09567 -1.497671,0.03528 -2.9847,0.282728 -0.921212,0.153296 -0.962328,0.131108 -1.040804,-0.561662 -0.07603,-0.671186 -0.04663,-3.386352 0.03758,-3.470218 0.03031,-0.03018 0.944709,-0.05224 2.032,-0.04902 2.39749,0.0071 2.367222,0.01638 2.479795,-0.758839 0.09678,-0.666494 0.112127,-1.67878 0.02853,-1.882447 -0.05718,-0.139317 -0.272675,-0.14772 -3.257189,-0.127 l -3.195955,0.02219 -0.107062,0.211667 c -0.131541,0.260061 -0.159396,9.34056 -0.0297,9.681687 0.09249,0.243261 0.267353,0.298353 0.682141,0.21491 0.947461,-0.190601 1.733205,-0.361203 2.349898,-0.510214 0.384393,-0.09288 0.774959,-0.144734 0.867923,-0.115228 0.206137,0.06543 0.369278,0.346696 0.282514,0.487082 -0.03492,0.05651 -0.0547,0.431222 -0.04395,0.832703 0.02566,0.958565 -0.02967,1.024901 -1.128048,1.352327 -0.465666,0.138816 -0.999066,0.286453 -1.185333,0.328085 -0.401521,0.08974 -1.714326,0.548418 -1.792014,0.626106 -0.107219,0.10722 -0.138775,2.136153 -0.0362,2.32781 0.131161,0.245078 0.488434,0.240618 1.336156,-0.01668 z m -3.126993,-7.541579 c 0.01189,-4.28156 -0.0072,-7.811422 -0.04233,-7.844138 -0.03517,-0.03272 -0.463996,-0.07292 -0.952946,-0.08935 l -0.889,-0.02986 -0.04233,6.081692 c -0.04885,7.018501 0.03577,6.423032 -0.874251,6.152006 -0.287512,-0.08563 -1.056149,-0.315287 -1.708083,-0.510351 -0.651933,-0.195065 -1.261533,-0.359917 -1.354666,-0.366338 -0.162541,-0.01121 -0.169334,0.04088 -0.169334,1.298351 v 1.310027 l 1.100667,0.362377 c 3.178981,1.04663 4.508082,1.45325 4.699,1.437594 l 0.211666,-0.01736 z"
         id="path31"
         inkscape:connector-curvature="0" />
      <path
         style="fill:#d7b932;stroke-width:0.08466666"
         d="m 9.1483434,51.938208 c -0.649118,-0.153256 -0.92938,-0.552005 -1.149751,-1.635831 -0.110032,-0.541161 -0.130431,-1.162229 -0.111492,-3.394605 0.01962,-2.312958 0.0039,-2.75549 -0.102249,-2.883612 -0.109891,-0.1326 -0.220019,-0.144943 -0.889,-0.09964 -0.652162,0.04416 -0.817423,0.02726 -1.132651,-0.11588 -0.274253,-0.124531 -0.552304,-0.16759 -1.082219,-0.16759 -0.894808,0 -1.157349,-0.109314 -1.646319,-0.685477 -0.713311,-0.840507 -0.702304,-0.807389 -0.682365,-2.053162 0.01253,-0.783091 0.07356,-1.365029 0.205571,-1.960361 l 0.187745,-0.846666 v -10.033 c 0,-9.79497 -0.0044,-10.071166 -0.186365,-11.641667 -0.102501,-0.884767 -0.205755,-2.332567 -0.229454,-3.217333 -0.04638,-1.731612 -0.289001,-3.6523999 -0.677857,-5.3665459 -0.120262,-0.530133 -0.218658,-1.202597 -0.218658,-1.494364 0,-0.343396 -0.104015,-0.910008 -0.294929,-1.606597 C 0.97613943,4.1440161 0.81914443,3.4228111 0.78947343,3.1331991 0.68797643,2.1425321 1.1173284,1.2627581 1.8832424,0.89198614 l 0.3655,-0.176936 H 29.910728 c 24.77602,0 27.694708,0.01367 27.975613,0.131041 0.423728,0.17704496 0.672376,0.42590896 0.790887,0.79157596 0.05438,0.167777 0.250297,0.60806 0.435378,0.978405 0.728815,1.458343 0.449405,2.491634 -0.910329,3.366463 -0.2794,0.179762 -0.606627,0.45731 -0.727172,0.616772 -0.120545,0.159463 -0.436491,0.46884 -0.7021,0.687504 -0.349388,0.287636 -0.457323,0.423151 -0.390331,0.490073 0.06364,0.06357 1.13497,0.09414 3.425557,0.09775 l 3.33296,0.0052 0.33299,0.220367 c 0.70858,0.468914 0.88733,1.424774 0.36686,1.9617619 -0.24035,0.247977 -0.25522,0.298523 -0.20719,0.704106 0.0444,0.37507 0.0199,0.491278 -0.17306,0.82057 -0.24654,0.420682 -0.79471,0.841148 -1.39836,1.072596 -0.32595,0.124977 -0.38448,0.181014 -0.36199,0.346587 0.13153,0.96806 0.14213,0.918347 -0.33815,1.585984 -0.77026,1.070724 -1.22957,1.587768 -1.63448,1.839921 -0.21455,0.133613 -0.46815,0.301407 -0.563547,0.372875 l -0.173449,0.129941 0.187866,0.318405 c 0.22439,0.380315 0.19278,0.881181 -0.07879,1.248499 l -0.173344,0.23446 0.218706,0.391306 c 0.189901,0.339763 0.214341,0.468521 0.185581,0.977504 -0.0394,0.697473 -0.175638,0.91904 -0.839555,1.365475 -0.252085,0.16951 -0.672696,0.570608 -0.93469,0.89133 l -0.476351,0.583131 -0.06203,0.866658 c -0.07294,1.019025 -0.218425,1.309837 -0.803055,1.605183 -0.281485,0.142201 -0.52383,0.1905 -0.95586,0.1905 -0.519112,0 -0.600467,0.02341 -0.789276,0.22714 -0.32451,0.350152 -0.524064,0.876471 -0.925073,2.43986 -0.203054,0.791633 -0.447898,1.590264 -0.544095,1.774735 -0.0962,0.184471 -0.174906,0.456043 -0.174906,0.603494 0,0.537138 -0.214199,0.824614 -1.336808,1.794127 -1.008768,0.871197 -1.10806,0.983502 -1.275453,1.442592 -0.09984,0.273817 -0.376371,0.755235 -0.614515,1.069817 -0.386893,0.511072 -0.42296,0.593983 -0.338774,0.778752 0.138498,0.303972 0.114718,0.629824 -0.06781,0.929162 -0.160812,0.263725 -0.855726,0.697273 -1.411761,0.880781 -0.280968,0.09273 -0.288878,0.107771 -0.288878,0.549443 0,0.249756 -0.0381,0.47765 -0.08467,0.50643 -0.04657,0.02878 -0.08467,0.276198 -0.08467,0.549819 0,0.589383 -0.100595,0.890836 -0.403075,1.2079 -0.204474,0.214331 -0.214561,0.256968 -0.121614,0.514011 0.05575,0.154161 0.101355,0.365204 0.101355,0.468986 0,0.469446 -0.474721,0.938986 -1.078407,1.066638 -0.222501,0.04705 -0.306473,0.131195 -0.446247,0.447177 l -0.172172,0.389224 0.208027,0.218123 c 0.408532,0.428359 0.446322,0.781152 0.157197,1.467556 -0.129032,0.30633 -0.126071,0.332957 0.08004,0.719666 0.117713,0.220862 0.238888,0.507303 0.269278,0.636535 0.03039,0.129232 0.182445,0.376882 0.337901,0.550333 0.368159,0.410778 0.530047,0.737002 0.601202,1.211501 0.107409,0.716257 -0.254354,1.529234 -0.807857,1.815461 -0.226133,0.116938 -0.249623,0.169113 -0.249623,0.554449 0,0.510548 -0.156968,0.842327 -0.534892,1.130584 -0.660676,0.503922 0.589299,0.472501 -18.419919,0.463037 -9.575237,-0.0048 -17.5381916,-0.03905 -17.6954566,-0.07618 z M 44.020611,49.834609 c 0.03951,-0.6597 0.05925,-0.72055 0.296333,-0.913617 0.1397,-0.113764 0.357921,-0.228932 0.484934,-0.25593 0.518913,-0.110296 0.513228,-0.47176 -0.01705,-1.084454 -0.184553,-0.213234 -0.389354,-0.568876 -0.455116,-0.790317 -0.06576,-0.221442 -0.218352,-0.548193 -0.339093,-0.726114 -0.305598,-0.450323 -0.359869,-0.825308 -0.185518,-1.281838 l 0.143368,-0.375406 -0.269006,-0.54643 -0.269007,-0.54643 0.14222,-0.428182 c 0.07822,-0.235501 0.173009,-0.447212 0.210642,-0.47047 0.03763,-0.02326 0.09374,-0.211111 0.124682,-0.417451 0.04405,-0.29376 0.119655,-0.423516 0.348437,-0.598016 0.273536,-0.208636 0.292177,-0.25398 0.292177,-0.710705 0,-0.527261 0.05775,-0.612167 0.770549,-1.132856 0.276953,-0.202311 0.310522,-0.271678 0.366427,-0.757195 0.03385,-0.293964 0.05673,-0.785932 0.05085,-1.093261 -0.01045,-0.545929 -0.0023,-0.567946 0.35324,-0.957455 0.281459,-0.30833 0.459869,-0.422682 0.787267,-0.504603 0.412058,-0.103105 0.423934,-0.114812 0.4459,-0.439544 0.03711,-0.548578 0.09529,-0.703698 0.387891,-1.034252 0.548388,-0.619512 0.986542,-1.312809 0.986542,-1.56102 0,-0.324262 0.211219,-0.719023 0.420205,-0.785353 0.09243,-0.02934 0.247847,-0.165388 0.345361,-0.302334 0.09751,-0.136945 0.222329,-0.249972 0.277366,-0.251169 0.05504,-0.0012 0.409439,-0.296473 0.787557,-0.656167 0.659909,-0.627753 0.689832,-0.672671 0.74587,-1.119656 0.03211,-0.256117 0.133723,-0.594057 0.225807,-0.750978 0.09208,-0.156921 0.243162,-0.614121 0.335727,-1.016 0.536784,-2.330482 0.952645,-3.248279 1.721257,-3.798775 0.155862,-0.111633 0.577131,-0.252188 1.025827,-0.342267 l 0.761356,-0.152846 0.0207,-0.589067 c 0.03372,-0.959579 0.08067,-1.098891 0.532778,-1.580766 0.23099,-0.246199 0.441412,-0.504785 0.467605,-0.574635 0.02619,-0.06985 0.331039,-0.371577 0.677436,-0.670505 0.346398,-0.298926 0.629815,-0.595745 0.629815,-0.659595 0,-0.06385 -0.08249,-0.227667 -0.183317,-0.364039 -0.259357,-0.350799 -0.310279,-1.085743 -0.106534,-1.53757 0.153735,-0.340924 0.153399,-0.347258 -0.03585,-0.676082 -0.277476,-0.482126 -0.320859,-1.06018 -0.105278,-1.40277 0.100078,-0.159038 0.269962,-0.295047 0.407184,-0.32599 0.711159,-0.160366 0.890656,-0.235586 1.224236,-0.513025 0.201239,-0.167372 0.461143,-0.447286 0.577553,-0.622033 0.11642,-0.174747 0.28631,-0.423547 0.37755,-0.55289 l 0.16587,-0.235166 -0.25979,-0.220668 c -0.34463,-0.292721 -0.45296,-0.518311 -0.45296,-0.943234 0,-0.285421 0.0525,-0.404824 0.27517,-0.625953 0.22706,-0.225487 0.38617,-0.292289 0.91016,-0.38215 0.34925,-0.05989 0.80645,-0.190615 1.016,-0.290493 l 0.381,-0.181598 0.0439,-0.549619 c 0.0241,-0.302291 0.0938,-0.6383219 0.15469,-0.7467359 0.25128,-0.44713 0.24324,-0.448393 -2.71647,-0.426573 -4.083347,0.0301 -4.902933,-0.16051 -5.091424,-1.18412 -0.03851,-0.209118 -0.0078,-0.346248 0.116684,-0.52107 0.09292,-0.130493 0.168945,-0.276313 0.168945,-0.324042 0,-0.04773 0.238125,-0.318723 0.529167,-0.602207 0.291041,-0.283484 0.795866,-0.778609 1.121833,-1.100277 0.325967,-0.321668 0.706967,-0.642149 0.846667,-0.712179 0.48464,-0.242944 0.804333,-0.612255 0.804333,-0.929173 0,-0.287949 -0.610602,-1.644038 -0.797022,-1.770113 -0.112751,-0.07625 -53.7675706,-0.08658 -54.1483606,-0.01042 -0.397816,0.07956 -0.480831,0.325443 -0.362239,1.072909 0.05309,0.334609 0.177164,0.87508 0.275723,1.201047 0.09856,0.325966 0.216102,0.973666 0.261206,1.439333 0.0451,0.465667 0.154055,1.189567 0.242113,1.608667 0.237253,1.129185 0.471536,2.6257079 0.636226,4.0639999 0.02666,0.232833 0.08809,1.318683 0.136515,2.413 0.04842,1.094317 0.121267,2.275417 0.161876,2.624667 0.210387,1.809382 0.260035,4.505521 0.233867,12.7 l -0.02744,8.593666 -0.238308,1.27 c -0.291977,1.556015 -0.272783,2.246912 0.07509,2.703002 l 0.222582,0.291821 0.570946,-0.04787 c 0.468865,-0.03931 0.643815,-0.01563 0.978515,0.132422 0.313889,0.138847 0.576713,0.180287 1.143441,0.180287 1.252708,0 1.909542,0.325683 2.229405,1.105423 0.198959,0.485009 0.260335,2.138509 0.142483,3.838563 -0.09596,1.384278 -0.09208,1.602786 0.03998,2.252149 0.08044,0.395524 0.186052,0.767091 0.234698,0.825706 0.07066,0.08514 3.5137516,0.102272 17.1170746,0.0852 l 17.028628,-0.02137 z M 28.060945,38.095429 c -0.04657,-0.0157 -0.713317,-0.224853 -1.481667,-0.464795 -0.76835,-0.239942 -1.64465,-0.525714 -1.947333,-0.635049 -0.302683,-0.109335 -1.255183,-0.414631 -2.116667,-0.678436 -0.861483,-0.263805 -1.642533,-0.512328 -1.735666,-0.552275 -0.09313,-0.03994 -0.302684,-0.0984 -0.465667,-0.12991 -0.659493,-0.12748 -0.705269,-0.23756 -0.842871,-2.026914 -0.05013,-0.651933 -0.127918,-1.604433 -0.172852,-2.116666 -0.141001,-1.607345 -0.25306,-3.070514 -0.379332,-4.953 -0.06716,-1.001184 -0.161022,-2.258484 -0.208592,-2.794 -0.10319,-1.16168 -0.307377,-3.662746 -0.428556,-5.249334 -0.04801,-0.62865 -0.124209,-1.50495 -0.169323,-1.947333 -0.106791,-1.04719 -0.29269,-3.578875 -0.2692,-3.666121 0.01004,-0.03728 -0.02543,-0.408425 -0.07883,-0.824759 -0.07659,-0.597183 -0.0747,-0.783936 0.0089,-0.884713 0.09344,-0.112592 1.324068,-0.12774 10.377136,-0.12774 6.468729,0 10.351521,0.03057 10.488299,0.08257 0.194863,0.07409 0.217178,0.128005 0.217178,0.524738 0,0.243193 -0.0739,1.244261 -0.16422,2.224596 -0.09032,0.980336 -0.204653,2.372978 -0.25407,3.094761 -0.09365,1.367818 -0.173062,2.393441 -0.38351,4.953 -0.06892,0.8382 -0.165453,2.07645 -0.214524,2.751667 -0.08064,1.109559 -0.179703,2.368677 -0.423004,5.376333 -0.0452,0.5588 -0.121757,1.60655 -0.17012,2.328334 -0.111871,1.669617 -0.259739,2.856356 -0.374871,3.008599 -0.04951,0.06546 -0.604364,0.269265 -1.233014,0.452887 -1.183708,0.345749 -4.919609,1.524366 -6.180666,1.949902 -0.724086,0.244337 -1.240174,0.356516 -1.397,0.303657 z m 2.206977,-2.399205 c 0.695396,-0.226851 1.931106,-0.610576 2.746023,-0.852723 2.062595,-0.612884 2.198679,-0.667112 2.292348,-0.913481 0.04393,-0.115559 0.118548,-0.787726 0.165806,-1.493705 0.04726,-0.705979 0.121436,-1.569348 0.164841,-1.918598 0.0434,-0.34925 0.139062,-1.49225 0.212574,-2.54 0.07351,-1.04775 0.208143,-2.76225 0.299182,-3.81 0.160848,-1.851162 0.235106,-2.855002 0.425889,-5.757333 0.05051,-0.76835 0.127886,-1.56845 0.171953,-1.778 0.04407,-0.20955 0.08904,-1.0668 0.09993,-1.905 l 0.01981,-1.524 -4.208766,-0.02196 c -4.042783,-0.02109 -4.21212,-0.01569 -4.293841,0.137009 -0.08429,0.157504 -0.107879,22.660374 -0.02392,22.817566 0.06283,0.117621 0.583608,-0.0012 1.928167,-0.43978 z m -1.092199,-3.372285 c -0.159101,-0.1591 -0.01748,-0.240486 0.430486,-0.247383 0.267705,-0.0041 0.712643,-0.08936 0.988752,-0.189428 0.448549,-0.162557 0.669371,-0.184243 0.537957,-0.05283 -0.04173,0.04173 -1.730489,0.53761 -1.851362,0.543627 -0.02716,0.0014 -0.07479,-0.02294 -0.105833,-0.05399 z m 2.891013,-0.848059 c 0.06112,-0.02446 0.134144,-0.02145 0.162278,0.0067 0.02813,0.02813 -0.02187,0.04814 -0.111125,0.04447 -0.09863,-0.0041 -0.118694,-0.02412 -0.05115,-0.05115 z m 0.947209,-0.267833 c 0,-0.05464 0.450698,-0.204873 0.973666,-0.32456 0.134392,-0.03076 0.143128,-0.02187 0.04233,0.04305 -0.193581,0.124683 -1.016,0.35256 -1.016,0.281514 z m 1.617312,-0.550057 c 0.158228,-0.109116 0.303329,-0.185549 0.322447,-0.169852 0.07865,0.06458 -0.285341,0.368246 -0.441402,0.368246 -0.134688,0 -0.110687,-0.04003 0.118955,-0.198394 z m -5.635363,-0.811756 c -0.02679,-0.04335 -0.01,-0.102748 0.03734,-0.131997 0.04733,-0.02925 0.08605,0.0062 0.08605,0.07882 0,0.14872 -0.05081,0.170617 -0.123384,0.05318 z m 0.250384,-0.51385 c 0.02878,-0.04657 0.116754,-0.08408 0.195497,-0.08337 0.123382,0.0011 0.125617,0.01264 0.01617,0.08337 -0.165809,0.107154 -0.277892,0.107154 -0.211667,0 z m 1.820333,-0.582792 c 0,-0.09973 0.327068,-0.181806 0.38043,-0.09547 0.02306,0.03732 -0.01812,0.09089 -0.09151,0.119052 -0.187562,0.07197 -0.288923,0.0637 -0.288923,-0.02359 z m 1.550723,-0.403487 c 0.03022,-0.03022 0.141345,-0.09782 0.246944,-0.150224 0.158702,-0.07875 0.196512,-0.175681 0.218016,-0.558888 0.03749,-0.668056 0.185651,-0.746504 0.185651,-0.0983 0,0.502777 -0.01224,0.533639 -0.275167,0.69395 -0.262948,0.160322 -0.491321,0.229337 -0.375444,0.11346 z M 29.161611,26.62305 c -0.02878,-0.04657 -0.01423,-0.08467 0.03234,-0.08467 0.04657,0 0.108213,0.0381 0.136993,0.08467 0.02878,0.04657 0.01423,0.08467 -0.03234,0.08467 -0.04657,0 -0.108214,-0.0381 -0.136993,-0.08467 z m 3.991049,-0.381 c -0.0268,-0.06985 -0.12613,-0.127 -0.220725,-0.127 -0.09459,0 -0.17199,-0.0381 -0.17199,-0.08467 0,-0.118609 0.368222,-0.105912 0.491066,0.01693 0.118871,0.118871 0.13526,0.321733 0.02599,0.321733 -0.04158,0 -0.09754,-0.05715 -0.124343,-0.127 z m 2.062618,-0.249003 c 0,-0.0726 0.0381,-0.131997 0.08467,-0.131997 0.04657,0 0.08467,0.03585 0.08467,0.07967 0,0.04382 -0.0381,0.103217 -0.08467,0.131997 -0.04657,0.02878 -0.08467,-0.0071 -0.08467,-0.07967 z m 0.08467,-0.846666 c 0,-0.0726 0.0381,-0.131997 0.08467,-0.131997 0.04657,0 0.08467,0.03585 0.08467,0.07967 0,0.04382 -0.0381,0.103217 -0.08467,0.131997 -0.04657,0.02878 -0.08467,-0.0071 -0.08467,-0.07967 z m 0.08467,-1.481667 c 0,-0.142448 0.0381,-0.258997 0.08467,-0.258997 0.04657,0 0.08467,0.093 0.08467,0.20667 0,0.113668 -0.0381,0.230217 -0.08467,0.258997 -0.0494,0.03053 -0.08467,-0.05556 -0.08467,-0.20667 z m -4.004922,-0.397475 c -0.137204,-0.137203 -0.03592,-0.200189 0.321922,-0.200189 0.20955,0 0.381,0.0381 0.381,0.08467 0,0.04657 -0.09213,0.08467 -0.204741,0.08467 -0.112609,0 -0.257474,0.02023 -0.321923,0.04497 -0.06445,0.02473 -0.143765,0.01838 -0.176258,-0.01411 z m 1.661722,-0.260802 c 0.02937,-0.04752 0.25428,-0.111801 0.4998,-0.142847 0.24552,-0.03104 0.570225,-0.07841 0.721567,-0.105249 0.156841,-0.02782 0.275167,-0.01303 0.275167,0.03438 0,0.04575 -0.200025,0.108967 -0.4445,0.140483 -0.244475,0.03152 -0.59321,0.08033 -0.774966,0.108469 -0.215012,0.03329 -0.311811,0.02098 -0.277068,-0.03524 z m 2.295222,-0.101913 c -0.04346,-0.04127 -0.155222,-0.09337 -0.248355,-0.115767 l -0.169333,-0.04073 0.169333,-0.0085 c 0.188489,-0.0095 0.443759,0.123679 0.372903,0.194535 -0.02504,0.02504 -0.08109,0.01176 -0.124548,-0.02951 z m -4.081505,-2.034075 c 0.014,-0.941716 0.05661,-1.568272 0.107817,-1.585366 0.111749,-0.03731 0.06468,2.946817 -0.04826,3.059759 -0.05383,0.05383 -0.07463,-0.460908 -0.05956,-1.474393 z m 4.552816,-2.497402 c 0,-0.119165 0.0381,-0.216663 0.08467,-0.216663 0.04657,0 0.08467,0.07395 0.08467,0.164336 0,0.09038 -0.0381,0.187884 -0.08467,0.216664 -0.04802,0.02968 -0.08467,-0.04145 -0.08467,-0.164337 z m 0.03872,-1.852351 c -0.08096,-0.184429 -0.08478,-0.184672 -3.248237,-0.206856 -2.857176,-0.02004 -3.182447,-0.0084 -3.323166,0.118955 -0.145656,0.131817 -0.155987,0.131748 -0.155987,-10e-4 0,-0.07822 0.09773,-0.179375 0.217179,-0.22479 0.126685,-0.04817 1.502549,-0.08257 3.301999,-0.08257 2.971933,0 3.091019,0.0062 3.254155,0.169334 0.179065,0.179065 0.212939,0.301723 0.102223,0.370149 -0.03691,0.02281 -0.103585,-0.04161 -0.148166,-0.14317 z m -8.43766,15.588754 c 0.151101,-0.1511 0.146941,-15.589418 -0.0042,-15.710275 -0.156502,-0.125116 -1.823833,-0.186429 -1.91996,-0.0706 -0.04514,0.05439 -0.08946,2.625307 -0.10552,6.121281 -0.01971,4.289854 -0.05493,6.054724 -0.122186,6.121946 -0.09903,0.09897 -0.399299,0.03342 -1.5565,-0.339801 -0.302684,-0.09762 -0.759884,-0.23775 -1.016,-0.311397 -0.256117,-0.07365 -0.628842,-0.189802 -0.828277,-0.258123 -0.582231,-0.199456 -0.611057,-0.136657 -0.611057,1.331239 0,0.898103 0.02975,1.272913 0.105834,1.333388 0.118619,0.09428 1.339076,0.505843 3.2385,1.092075 0.6985,0.215582 1.51765,0.479864 1.820333,0.587294 0.62994,0.223581 0.855241,0.246802 0.999066,0.102976 z"
         id="path29"
         inkscape:connector-curvature="0" />
      <path
         style="fill:#676661;stroke-width:0.08466666"
         d="m 9.1483434,51.938208 c -0.649118,-0.153256 -0.92938,-0.552005 -1.149751,-1.635831 -0.110032,-0.541161 -0.130431,-1.162229 -0.111492,-3.394605 0.01962,-2.312958 0.0039,-2.75549 -0.102249,-2.883612 -0.109891,-0.1326 -0.220019,-0.144943 -0.889,-0.09964 -0.652162,0.04416 -0.817423,0.02726 -1.132651,-0.11588 -0.274253,-0.124531 -0.552304,-0.16759 -1.082219,-0.16759 -0.894808,0 -1.157349,-0.109314 -1.646319,-0.685477 -0.713311,-0.840507 -0.702304,-0.807389 -0.682365,-2.053162 0.01253,-0.783091 0.07356,-1.365029 0.205571,-1.960361 l 0.187745,-0.846666 v -10.033 c 0,-9.79497 -0.0044,-10.071166 -0.186365,-11.641667 -0.102501,-0.884767 -0.205755,-2.332567 -0.229454,-3.217333 -0.04638,-1.731612 -0.289001,-3.6523999 -0.677857,-5.3665459 -0.120262,-0.530133 -0.218658,-1.202597 -0.218658,-1.494364 0,-0.343396 -0.104015,-0.910008 -0.294929,-1.606597 C 0.97613943,4.1440161 0.81914443,3.4228111 0.78947343,3.1331991 0.68797643,2.1425321 1.1173284,1.2627581 1.8832424,0.89198614 l 0.3655,-0.176936 H 29.910728 c 24.77602,0 27.694708,0.01367 27.975613,0.131041 0.423728,0.17704496 0.672376,0.42590896 0.790887,0.79157596 0.05438,0.167777 0.250297,0.60806 0.435378,0.978405 0.728815,1.458343 0.449405,2.491634 -0.910329,3.366463 -0.2794,0.179762 -0.606627,0.45731 -0.727172,0.616772 -0.120545,0.159463 -0.436491,0.46884 -0.7021,0.687504 -0.349388,0.287636 -0.457323,0.423151 -0.390331,0.490073 0.06364,0.06357 1.13497,0.09414 3.425557,0.09775 l 3.33296,0.0052 0.33299,0.220367 c 0.70858,0.468914 0.88733,1.424774 0.36686,1.9617619 -0.24035,0.247977 -0.25522,0.298523 -0.20719,0.704106 0.0444,0.37507 0.0199,0.491278 -0.17306,0.82057 -0.24654,0.420682 -0.79471,0.841148 -1.39836,1.072596 -0.32595,0.124977 -0.38448,0.181014 -0.36199,0.346587 0.13153,0.96806 0.14213,0.918347 -0.33815,1.585984 -0.77026,1.070724 -1.22957,1.587768 -1.63448,1.839921 -0.21455,0.133613 -0.46815,0.301407 -0.563547,0.372875 l -0.173449,0.129941 0.187866,0.318405 c 0.22439,0.380315 0.19278,0.881181 -0.07879,1.248499 l -0.173344,0.23446 0.218706,0.391306 c 0.189901,0.339763 0.214341,0.468521 0.185581,0.977504 -0.0394,0.697473 -0.175638,0.91904 -0.839555,1.365475 -0.252085,0.16951 -0.672696,0.570608 -0.93469,0.89133 l -0.476351,0.583131 -0.06203,0.866658 c -0.07294,1.019025 -0.218425,1.309837 -0.803055,1.605183 -0.281485,0.142201 -0.52383,0.1905 -0.95586,0.1905 -0.519112,0 -0.600467,0.02341 -0.789276,0.22714 -0.32451,0.350152 -0.524064,0.876471 -0.925073,2.43986 -0.203054,0.791633 -0.447898,1.590264 -0.544095,1.774735 -0.0962,0.184471 -0.174906,0.456043 -0.174906,0.603494 0,0.537138 -0.214199,0.824614 -1.336808,1.794127 -1.008768,0.871197 -1.10806,0.983502 -1.275453,1.442592 -0.09984,0.273817 -0.376371,0.755235 -0.614515,1.069817 -0.386893,0.511072 -0.42296,0.593983 -0.338774,0.778752 0.138498,0.303972 0.114718,0.629824 -0.06781,0.929162 -0.160812,0.263725 -0.855726,0.697273 -1.411761,0.880781 -0.280968,0.09273 -0.288878,0.107771 -0.288878,0.549443 0,0.249756 -0.0381,0.47765 -0.08467,0.50643 -0.04657,0.02878 -0.08467,0.276198 -0.08467,0.549819 0,0.589383 -0.100595,0.890836 -0.403075,1.2079 -0.204474,0.214331 -0.214561,0.256968 -0.121614,0.514011 0.05575,0.154161 0.101355,0.365204 0.101355,0.468986 0,0.469446 -0.474721,0.938986 -1.078407,1.066638 -0.222501,0.04705 -0.306473,0.131195 -0.446247,0.447177 l -0.172172,0.389224 0.208027,0.218123 c 0.408532,0.428359 0.446322,0.781152 0.157197,1.467556 -0.129032,0.30633 -0.126071,0.332957 0.08004,0.719666 0.117713,0.220862 0.238888,0.507303 0.269278,0.636535 0.03039,0.129232 0.182445,0.376882 0.337901,0.550333 0.368159,0.410778 0.530047,0.737002 0.601202,1.211501 0.107409,0.716257 -0.254354,1.529234 -0.807857,1.815461 -0.226133,0.116938 -0.249623,0.169113 -0.249623,0.554449 0,0.510548 -0.156968,0.842327 -0.534892,1.130584 -0.660676,0.503922 0.589299,0.472501 -18.419919,0.463037 -9.575237,-0.0048 -17.5381916,-0.03905 -17.6954566,-0.07618 z m 34.8661276,-1.28037 c 0.272543,-0.09501 0.272995,-0.09614 0.210643,-0.529167 -0.03437,-0.238674 -0.05814,-0.508184 -0.05283,-0.598908 0.01639,-0.279865 0.313903,-0.590553 0.703714,-0.734878 0.34977,-0.129499 0.373856,-0.15908 0.398431,-0.489338 0.02289,-0.307569 -0.01623,-0.399659 -0.31293,-0.736731 C 44.775,47.356943 44.557181,46.986595 44.477455,46.745821 44.397735,46.505047 44.245592,46.1747 44.139373,46.011717 43.848,45.564635 43.816177,45.311188 43.984302,44.776674 c 0.0958,-0.304579 0.121926,-0.515842 0.0721,-0.583086 -0.487647,-0.658155 -0.519121,-0.906377 -0.214986,-1.695538 0.314134,-0.815108 0.379555,-0.920508 0.701154,-1.129629 l 0.304953,-0.198296 -0.122378,-0.311546 c -0.174658,-0.444632 -0.04737,-0.708573 0.515279,-1.068496 0.254267,-0.162653 0.482134,-0.327819 0.506372,-0.367038 0.02424,-0.03922 0.07046,-0.571171 0.102712,-1.182118 0.056,-1.060704 0.06973,-1.124265 0.304454,-1.409026 0.190741,-0.2314 0.377712,-0.337495 0.834534,-0.473542 l 0.588721,-0.175329 -0.05192,-0.441762 -0.05192,-0.441762 0.603284,-0.761061 c 0.542993,-0.685002 0.764481,-1.110183 0.771352,-1.480728 0.0033,-0.179409 0.207814,-0.406298 0.88759,-0.984819 0.325966,-0.277414 0.726016,-0.629944 0.889,-0.783401 0.162983,-0.153458 0.378504,-0.33479 0.478936,-0.40296 0.133925,-0.0909 0.208695,-0.275081 0.280479,-0.690884 0.05383,-0.311814 0.15117,-0.649083 0.216306,-0.749486 0.06514,-0.100402 0.23325,-0.633802 0.373586,-1.185333 0.600322,-2.359321 0.937631,-3.103482 1.630298,-3.596704 0.274278,-0.195303 1.050002,-0.404129 1.518311,-0.408731 0.275107,-0.0027 0.312401,-0.03044 0.359833,-0.267599 0.0291,-0.145521 0.05292,-0.541418 0.05292,-0.87977 v -0.615187 l 0.67173,-0.792397 c 0.369451,-0.435818 0.883801,-0.956558 1.143,-1.157202 0.543303,-0.420565 0.58653,-0.600828 0.259603,-1.082582 -0.278811,-0.410852 -0.299384,-1.169928 -0.04062,-1.49889 l 0.171045,-0.217447 -0.255712,-0.403213 c -0.193065,-0.304434 -0.25571,-0.502862 -0.25571,-0.809971 0,-0.51687 0.154447,-0.677251 0.788928,-0.819242 0.286466,-0.06411 0.629909,-0.219077 0.839059,-0.378602 0.344436,-0.262709 1.250676,-1.443107 1.250676,-1.629029 0,-0.05097 -0.13532,-0.215823 -0.30073,-0.366336 -0.38972,-0.354636 -0.49337,-0.627401 -0.37486,-0.986475 0.12205,-0.369824 0.39349,-0.531655 1.12721,-0.672039 1.23405,-0.236113 1.49522,-0.434448 1.49674,-1.136626 7.6e-4,-0.347594 0.0571,-0.5701579 0.21364,-0.8440389 0.11695,-0.20458 0.18943,-0.39508 0.16108,-0.423333 -0.0284,-0.02825 -1.42942,-0.0533 -3.11348,-0.05567 -2.511128,-0.0035 -3.170962,-0.02907 -3.668049,-0.142004 -1.26319,-0.286983 -1.510704,-0.646659 -1.064601,-1.54703 0.172883,-0.34893 2.045217,-2.179639 2.585356,-2.527879 0.946527,-0.610248 1.006824,-0.895979 0.438941,-2.080021 l -0.403926,-0.842195 -0.517158,-0.05202 c -0.284436,-0.02861 -12.564923,-0.04059 -27.289969,-0.02662 -25.4394106,0.02414 -26.7802456,0.03284 -26.9220536,0.174649 -0.238741,0.238747 -0.183274,1.193142 0.129115,2.221629 0.141475,0.465781 0.280811,1.151581 0.309635,1.524 0.02882,0.372419 0.180193,1.362925 0.336374,2.201125 0.489449,2.6267999 0.575737,3.3258819 0.606127,4.9106669 0.03146,1.64075 0.164931,3.466582 0.303266,4.148667 0.05354,0.264 0.101242,4.056127 0.126735,10.075333 0.04196,9.907314 0.02246,10.726867 -0.287841,12.100546 -0.07748,0.342984 -0.134259,0.967372 -0.132717,1.459397 0.0026,0.817521 0.01467,0.874949 0.245435,1.164164 0.23775,0.297968 0.25513,0.304222 0.845543,0.304224 0.369666,2e-6 0.807807,0.06549 1.132863,0.169336 0.362112,0.115681 0.76319,0.169333 1.265847,0.169333 0.634796,0 0.798884,0.03196 1.195471,0.232834 0.686406,0.347671 0.824852,0.680329 0.895407,2.151473 0.0335,0.698472 0.01325,1.67418 -0.05138,2.475926 -0.0839,1.040723 -0.08487,1.444888 -0.0046,1.893308 0.187842,1.0489 0.2402,1.185429 0.489553,1.276553 0.3455046,0.12626 33.7721636,0.128898 34.1341936,0.0027 z"
         id="path27"
         inkscape:connector-curvature="0" />
      <path
         style="fill:#5e5320;stroke-width:0.08466666"
         d="m 9.1612334,51.856481 c -0.654678,-0.156272 -0.843583,-0.429144 -1.075878,-1.554104 -0.112706,-0.545816 -0.13269,-1.14163 -0.113589,-3.386667 0.01852,-2.176148 -1.9e-5,-2.765094 -0.09211,-2.926934 -0.112631,-0.197931 -0.134125,-0.201405 -0.931333,-0.150554 -0.702842,0.04483 -0.86724,0.02889 -1.185121,-0.114893 -0.271462,-0.12279 -0.553636,-0.166945 -1.066866,-0.166945 -0.9081,0 -1.145166,-0.09231 -1.593603,-0.620523 -0.694405,-0.81794 -0.68565,-0.791201 -0.665767,-2.03345 0.01253,-0.783091 0.07356,-1.365029 0.20557,-1.960361 l 0.187745,-0.846666 v -10.033 c 0,-9.79497 -0.0044,-10.071166 -0.186365,-11.641667 -0.1025,-0.884767 -0.205755,-2.332567 -0.229454,-3.217333 -0.04638,-1.731612 -0.289,-3.6523999 -0.677857,-5.3665459 -0.120261,-0.530133 -0.218657,-1.202597 -0.218657,-1.494364 0,-0.352009 -0.10284,-0.896526 -0.305668,-1.618455 -0.40228997,-1.431875 -0.43639797,-2.322471 -0.113039,-2.951599 0.131226,-0.255313 0.358862,-0.521022 0.578791,-0.675595 l 0.362498,-0.25477496 27.7869976,-0.02155 27.786997,-0.02155 0.377756,0.190879 c 0.207766,0.10498396 0.422805,0.28612996 0.477865,0.40254596 0.780727,1.650721 0.895647,1.9438 0.937617,2.391291 0.0803,0.855774 -0.305958,1.545984 -1.17831,2.10577 -0.238597,0.153107 -0.794311,0.635957 -1.23492,1.072999 -0.609369,0.604437 -0.777503,0.818195 -0.702488,0.893114 0.07156,0.07147 1.020925,0.09931 3.459758,0.101469 3.84446,0.0034 3.7501,-0.01338 4.13137,0.735043 0.30445,0.597633 0.23932,1.047728 -0.2105,1.4548129 -0.15289,0.138368 -0.17003,0.222059 -0.12462,0.6085 0.0453,0.385739 0.022,0.500324 -0.16748,0.823726 -0.24265,0.414051 -0.81477,0.827252 -1.44071,1.040533 -0.43474,0.148131 -0.44491,0.174384 -0.26623,0.687259 0.15096,0.433326 0.0894,0.635578 -0.38689,1.272108 -0.18304,0.24459 -0.49076,0.655463 -0.68382,0.91305 -0.39161,0.522481 -0.78482,0.859032 -1.32114,1.130779 -0.197913,0.100277 -0.359837,0.217469 -0.359837,0.260427 0,0.04296 0.08098,0.215365 0.179965,0.383126 0.216482,0.366908 0.180702,0.873463 -0.08731,1.235964 l -0.173972,0.235309 0.208973,0.365527 c 0.157881,0.276165 0.209191,0.48972 0.209861,0.873527 0.001,0.683506 -0.184087,1.025722 -0.761106,1.405771 -0.256258,0.168783 -0.699184,0.588874 -0.984281,0.933538 l -0.518355,0.626661 -0.06142,0.858148 c -0.04388,0.613115 -0.107835,0.93447 -0.223969,1.125438 -0.23125,0.380259 -0.750921,0.591982 -1.458581,0.594251 -0.538406,0.0017 -0.597426,0.02066 -0.825497,0.264811 -0.361115,0.386575 -0.554702,0.885328 -0.965971,2.488715 -0.203054,0.791634 -0.447897,1.590265 -0.544095,1.774736 -0.0962,0.18447 -0.174906,0.459403 -0.174906,0.61096 0,0.504705 -0.251786,0.837979 -1.353166,1.791113 -0.990764,0.857406 -1.087573,0.967727 -1.257027,1.432468 -0.100976,0.276936 -0.378439,0.760906 -0.616583,1.075489 -0.386893,0.511072 -0.42296,0.593983 -0.338774,0.778752 0.130862,0.287211 0.117673,0.585199 -0.03934,0.88883 -0.101932,0.197115 -0.32063,0.346889 -0.923597,0.632517 l -0.79004,0.374245 -0.04699,0.442779 c -0.07377,0.695127 -0.208318,1.880223 -0.215748,1.900332 -0.0037,0.01002 -0.127605,0.155887 -0.275339,0.324145 -0.248951,0.28354 -0.261341,0.326013 -0.169333,0.580458 0.265748,0.734911 -0.09846,1.294501 -0.944654,1.451425 -0.187123,0.0347 -0.341918,0.118275 -0.366014,0.197609 -0.02296,0.07561 -0.09808,0.266698 -0.166923,0.424636 -0.119314,0.273729 -0.115317,0.29749 0.08546,0.508 0.411258,0.431192 0.449453,0.782617 0.1598,1.470273 -0.129032,0.306331 -0.12607,0.332958 0.08004,0.719667 0.117712,0.220862 0.238887,0.507302 0.269278,0.636534 0.03039,0.129233 0.182444,0.376883 0.3379,0.550334 0.44903,0.501009 0.58925,0.844273 0.59573,1.458365 0.0074,0.700658 -0.260485,1.235852 -0.734508,1.467473 -0.312278,0.152588 -0.3175,0.163175 -0.3175,0.643646 0,0.619835 -0.222485,0.972268 -0.802063,1.270529 l -0.421064,0.216685 -17.528269,0.0128 c -9.640548,0.007 -17.6511396,-0.01653 -17.8013146,-0.05237 z M 44.014471,50.657838 c 0.272543,-0.09501 0.272995,-0.09614 0.210643,-0.529167 -0.03437,-0.238674 -0.05814,-0.508184 -0.05283,-0.598908 0.01639,-0.279865 0.313903,-0.590553 0.703714,-0.734878 0.34977,-0.129499 0.373856,-0.15908 0.398431,-0.489338 0.02289,-0.307569 -0.01623,-0.399659 -0.31293,-0.736731 C 44.775,47.356943 44.557181,46.986595 44.477455,46.745821 44.397735,46.505047 44.245592,46.1747 44.139373,46.011717 43.848,45.564635 43.816177,45.311188 43.984302,44.776674 c 0.0958,-0.304579 0.121926,-0.515842 0.0721,-0.583086 -0.487647,-0.658155 -0.519121,-0.906377 -0.214986,-1.695538 0.314134,-0.815108 0.379555,-0.920508 0.701154,-1.129629 l 0.304953,-0.198296 -0.122378,-0.311546 c -0.174658,-0.444632 -0.04737,-0.708573 0.515279,-1.068496 0.254267,-0.162653 0.482134,-0.327819 0.506372,-0.367038 0.02424,-0.03922 0.07046,-0.571171 0.102712,-1.182118 0.056,-1.060704 0.06973,-1.124265 0.304454,-1.409026 0.190741,-0.2314 0.377712,-0.337495 0.834534,-0.473542 l 0.588721,-0.175329 -0.05192,-0.441762 -0.05192,-0.441762 0.603284,-0.761061 c 0.542993,-0.685002 0.764481,-1.110183 0.771352,-1.480728 0.0033,-0.179409 0.207814,-0.406298 0.88759,-0.984819 0.325966,-0.277414 0.726016,-0.629944 0.889,-0.783401 0.162983,-0.153458 0.378504,-0.33479 0.478936,-0.40296 0.133925,-0.0909 0.208695,-0.275081 0.280479,-0.690884 0.05383,-0.311814 0.15117,-0.649083 0.216306,-0.749486 0.06514,-0.100402 0.23325,-0.633802 0.373586,-1.185333 0.600322,-2.359321 0.937631,-3.103482 1.630298,-3.596704 0.274278,-0.195303 1.050002,-0.404129 1.518311,-0.408731 0.275107,-0.0027 0.312401,-0.03044 0.359833,-0.267599 0.0291,-0.145521 0.05292,-0.541418 0.05292,-0.87977 v -0.615187 l 0.67173,-0.792397 c 0.369451,-0.435818 0.883801,-0.956558 1.143,-1.157202 0.543303,-0.420565 0.58653,-0.600828 0.259603,-1.082582 -0.278811,-0.410852 -0.299384,-1.169928 -0.04062,-1.49889 l 0.171045,-0.217447 -0.255712,-0.403213 c -0.193065,-0.304434 -0.25571,-0.502862 -0.25571,-0.809971 0,-0.51687 0.154447,-0.677251 0.788928,-0.819242 0.286466,-0.06411 0.629909,-0.219077 0.839059,-0.378602 0.344436,-0.262709 1.250676,-1.443107 1.250676,-1.629029 0,-0.05097 -0.13532,-0.215823 -0.30073,-0.366336 -0.38972,-0.354636 -0.49337,-0.627401 -0.37486,-0.986475 0.12205,-0.369824 0.39349,-0.531655 1.12721,-0.672039 1.23405,-0.236113 1.49522,-0.434448 1.49674,-1.136626 7.6e-4,-0.347594 0.0571,-0.5701579 0.21364,-0.8440389 0.11695,-0.20458 0.18943,-0.39508 0.16108,-0.423333 -0.0284,-0.02825 -1.42942,-0.0533 -3.11348,-0.05567 -2.511128,-0.0035 -3.170962,-0.02907 -3.668049,-0.142004 -1.26319,-0.286983 -1.510704,-0.646659 -1.064601,-1.54703 0.172883,-0.34893 2.045217,-2.179639 2.585356,-2.527879 0.946527,-0.610248 1.006824,-0.895979 0.438941,-2.080021 l -0.403926,-0.842195 -0.517158,-0.05202 c -0.284436,-0.02861 -12.564923,-0.04059 -27.289969,-0.02662 -25.4394106,0.02414 -26.7802456,0.03284 -26.9220536,0.174649 -0.238741,0.238747 -0.183274,1.193142 0.129115,2.221629 0.141475,0.465781 0.280811,1.151581 0.309635,1.524 0.02882,0.372419 0.180193,1.362925 0.336374,2.201125 0.489449,2.6267999 0.575737,3.3258819 0.606127,4.9106669 0.03146,1.64075 0.164931,3.466582 0.303266,4.148667 0.05354,0.264 0.101242,4.056127 0.126735,10.075333 0.04196,9.907314 0.02246,10.726867 -0.287841,12.100546 -0.07748,0.342984 -0.134259,0.967372 -0.132717,1.459397 0.0026,0.817521 0.01467,0.874949 0.245435,1.164164 0.23775,0.297968 0.25513,0.304222 0.845543,0.304224 0.369666,2e-6 0.807807,0.06549 1.132863,0.169336 0.362112,0.115681 0.76319,0.169333 1.265847,0.169333 0.634796,0 0.798884,0.03196 1.195471,0.232834 0.686406,0.347671 0.824852,0.680329 0.895407,2.151473 0.0335,0.698472 0.01325,1.67418 -0.05138,2.475926 -0.0839,1.040723 -0.08487,1.444888 -0.0046,1.893308 0.187842,1.0489 0.2402,1.185429 0.489553,1.276553 0.3455046,0.12626 33.7721636,0.128898 34.1341936,0.0027 z"
         id="path25"
         inkscape:connector-curvature="0" />
      <path
         style="fill:#211f17;stroke-width:0.08466666"
         d="m 9.1931974,51.816664 c -0.566781,-0.152312 -0.7934,-0.411767 -1.008743,-1.154907 -0.170559,-0.588593 -0.182321,-0.81647 -0.185797,-3.599508 -0.003,-2.423678 -0.02564,-2.997623 -0.122724,-3.114888 -0.09963,-0.120347 -0.258172,-0.140773 -0.973666,-0.125447 -0.662211,0.01418 -0.915667,-0.01365 -1.125617,-0.123612 -0.185818,-0.09732 -0.478469,-0.142066 -0.931333,-0.142391 -0.977557,-6.77e-4 -1.21251,-0.09255 -1.712235,-0.669393 -0.65062,-0.75102 -0.682686,-0.842944 -0.683281,-1.958765 -3.81e-4,-0.721707 0.04935,-1.187151 0.189978,-1.778 l 0.1905,-0.800369 V 28.104717 c 0,-10.013085 -0.0042,-10.281031 -0.186365,-11.853333 -0.1025,-0.884767 -0.205755,-2.332567 -0.229454,-3.217334 -0.04638,-1.731612 -0.289,-3.6523989 -0.677857,-5.3665449 -0.120261,-0.530133 -0.218657,-1.187167 -0.218657,-1.460076 0,-0.300419 -0.121374,-0.955695 -0.307621,-1.660788 -0.47340197,-1.792203 -0.41359397,-2.522165 0.261999,-3.197759 0.213711,-0.213711 0.503404,-0.40497396 0.693213,-0.45767896 0.449797,-0.124896 55.0554166,-0.12794 55.5049436,-0.0031 0.378063,0.104999 0.798446,0.44109796 0.873654,0.69849296 0.03002,0.10273 0.23129,0.567781 0.447274,1.033448 0.331372,0.71444 0.392372,0.926002 0.390622,1.354667 -0.003,0.813053 -0.394064,1.387393 -1.349087,1.982973 -0.232834,0.145202 -0.521961,0.395151 -0.642506,0.555443 -0.120545,0.160292 -0.431529,0.466263 -0.691076,0.679936 -0.575889,0.474103 -0.642421,0.611177 -0.350515,0.722159 0.130571,0.04964 1.493526,0.07648 3.406214,0.06708 2.91464,-0.01433 3.21597,-0.0026 3.50772,0.136637 0.34943,0.166759 0.57621,0.442626 0.72531,0.882306 0.12713,0.374912 0.0496,0.670206 -0.26303,1.0013549 -0.23325,0.247094 -0.25064,0.305274 -0.20052,0.670933 0.10329,0.75356 -0.48171,1.49555 -1.46993,1.864408 -0.58559,0.218573 -0.64499,0.299502 -0.47805,0.651303 0.26575,0.560026 0.2523,0.590459 -0.99203,2.244159 -0.36801,0.489087 -0.86349,0.925209 -1.30711,1.150524 -0.374263,0.190089 -0.405445,0.3151 -0.18974,0.760688 0.15619,0.322638 0.16953,0.425306 0.09245,0.711538 -0.04954,0.183974 -0.146948,0.381701 -0.216464,0.439395 -0.17051,0.141511 -0.161996,0.206179 0.09679,0.735112 0.189614,0.387556 0.215754,0.528148 0.173784,0.934791 -0.05934,0.574977 -0.220293,0.81206 -0.827625,1.219131 -0.252086,0.168963 -0.667888,0.566118 -0.924005,0.882564 l -0.465666,0.575359 -0.09308,0.921662 c -0.137259,1.359126 -0.420161,1.650741 -1.697799,1.750086 -0.672769,0.05231 -0.737654,0.07401 -0.906221,0.303083 -0.305709,0.415435 -0.551898,1.089903 -0.902799,2.473342 -0.184783,0.728508 -0.412422,1.482496 -0.505868,1.675528 -0.09345,0.193031 -0.1699,0.439292 -0.1699,0.547245 0,0.598574 -0.173636,0.839966 -1.315618,1.828987 -1.02951,0.891613 -1.13007,1.005045 -1.297099,1.46314 -0.09959,0.273128 -0.377789,0.756458 -0.618225,1.074067 l -0.437158,0.577472 0.100678,0.376423 c 0.08665,0.32398 0.07972,0.419084 -0.04978,0.682637 -0.15393,0.313275 -0.700258,0.678888 -1.420461,0.950602 -0.328798,0.124047 -0.339095,0.140002 -0.353332,0.547518 -0.03473,0.994165 -0.182463,1.841545 -0.359461,2.061902 -0.44598,0.555231 -0.443716,0.548501 -0.300191,0.892004 0.249024,0.596001 -0.08839,1.101779 -0.876609,1.314025 -0.317325,0.08545 -0.385129,0.147226 -0.52839,0.48144 -0.211812,0.494139 -0.210551,0.506068 0.08965,0.847977 0.3058,0.348288 0.331269,0.73993 0.08361,1.285688 L 45.292219,45.264624 45.49369,45.617 c 0.110808,0.193807 0.247209,0.496635 0.303112,0.672951 0.0559,0.176316 0.215252,0.443016 0.354107,0.592667 0.321256,0.346233 0.468421,0.626119 0.572439,1.088699 0.153937,0.684581 -0.196215,1.518895 -0.759774,1.810323 -0.220362,0.113954 -0.249624,0.173811 -0.249624,0.510631 0,0.760881 -0.421405,1.280693 -1.237305,1.526243 -0.568677,0.171147 -34.6463356,0.169353 -35.2834416,-0.0019 z M 44.283712,50.678039 c 0.189303,-0.153289 0.192792,-0.176855 0.08717,-0.588973 -0.06052,-0.236113 -0.08584,-0.505484 -0.05629,-0.598604 0.07093,-0.223472 0.524343,-0.600078 0.722467,-0.600078 0.244183,0 0.422885,-0.237468 0.422885,-0.561947 0,-0.354066 -0.100584,-0.561494 -0.475737,-0.981085 -0.15508,-0.173451 -0.306502,-0.421101 -0.336491,-0.550334 -0.02999,-0.129232 -0.183355,-0.469758 -0.340815,-0.756724 -0.319623,-0.582505 -0.343438,-0.776648 -0.15929,-1.298577 0.170786,-0.48406 0.165522,-0.520908 -0.127,-0.889 -0.301468,-0.379348 -0.325865,-0.715089 -0.08467,-1.165113 0.09313,-0.173767 0.169333,-0.39676 0.169333,-0.495541 0,-0.175454 0.479821,-0.70757 0.79575,-0.882477 0.149891,-0.08298 0.150992,-0.102481 0.02009,-0.355629 -0.07618,-0.147307 -0.138501,-0.341976 -0.138501,-0.432598 0,-0.173603 0.477704,-0.641558 0.809032,-0.792522 0.204016,-0.09296 0.373849,-0.412131 0.373596,-0.70212 -8.1e-5,-0.09313 0.01002,-0.540185 0.02245,-0.993448 0.02247,-0.819543 0.02426,-0.825785 0.323667,-1.125164 0.20283,-0.202812 0.449219,-0.340129 0.755068,-0.42081 0.623863,-0.164572 0.726209,-0.279912 0.596667,-0.672426 -0.1155,-0.34997 -0.08307,-0.419889 0.562405,-1.212352 0.446806,-0.548557 0.705785,-1.039603 0.705785,-1.338227 0,-0.252675 0.106532,-0.365628 1.505103,-1.595817 0.624393,-0.54922 0.969437,-0.914682 0.999203,-1.058333 0.143152,-0.690844 0.226718,-0.990209 0.301598,-1.080434 0.04622,-0.05569 0.211872,-0.594533 0.368111,-1.197419 0.46055,-1.777157 0.614261,-2.229603 0.951472,-2.800635 0.460967,-0.780604 1.048196,-1.102088 2.023646,-1.107865 0.192206,-0.0011 0.392259,-0.05363 0.444563,-0.116655 0.0523,-0.06302 0.108854,-0.47479 0.125669,-0.915041 0.02971,-0.777776 0.114295,-1.093302 0.330173,-1.231581 0.05764,-0.03692 0.32177,-0.318238 0.58696,-0.625154 0.26519,-0.306915 0.653925,-0.687915 0.863853,-0.846667 0.209929,-0.158751 0.427334,-0.396146 0.483122,-0.527543 0.104666,-0.24652 0.07285,-0.347318 -0.312118,-0.988762 -0.15714,-0.261832 -0.111077,-0.876662 0.08163,-1.089603 0.180155,-0.199069 0.173435,-0.449019 -0.01877,-0.698146 -0.172075,-0.223036 -0.352217,-0.696046 -0.352217,-0.924839 0,-0.261393 0.285706,-0.50357 0.727493,-0.616655 0.752644,-0.192656 1.162887,-0.499181 1.692277,-1.264441 0.26557,-0.383891 0.50035,-0.762348 0.52174,-0.841016 0.0247,-0.09073 -0.10354,-0.281457 -0.35064,-0.521615 -0.46378,-0.450735 -0.50314,-0.717304 -0.1567,-1.061104 0.17869,-0.17733 0.38049,-0.257009 0.86783,-0.342646 0.63364,-0.111348 1.36713,-0.414687 1.49473,-0.618158 0.0371,-0.05909 0.0683,-0.339303 0.0695,-0.622685 0.002,-0.427273 0.0436,-0.5750509 0.24488,-0.8655519 0.43774,-0.631654 0.51474,-0.614826 -2.75983,-0.603081 -2.359401,0.0085 -3.050812,-0.01582 -3.700083,-0.129954 -1.36,-0.239069 -1.581801,-0.422008 -1.358133,-1.120176 0.127229,-0.397143 2.084944,-2.381006 2.799854,-2.837251 0.362263,-0.231191 0.507843,-0.387244 0.617934,-0.662389 0.185732,-0.46419 0.13408,-0.684653 -0.390371,-1.666195 L 57.213528,1.9003831 H 29.912226 2.6109264 l -0.219823,0.219823 c -0.212037,0.212037 -0.218075,0.245768 -0.170505,0.9525 0.02951,0.438453 0.152102,1.075956 0.305272,1.587512 0.14617,0.488174 0.277739,1.160015 0.306741,1.566334 0.02793,0.391324 0.122567,1.073448 0.2103,1.515831 0.452907,2.2837249 0.666253,4.0160719 0.72468,5.8843339 0.02621,0.8382 0.130845,2.30505 0.232513,3.259667 0.178694,1.677849 0.184852,2.054368 0.184852,11.303 v 9.567333 l -0.232833,1.254023 c -0.24343,1.311095 -0.300929,2.4769 -0.137822,2.794376 0.05226,0.101714 0.192735,0.289709 0.312174,0.417768 0.200505,0.214974 0.267083,0.232833 0.86801,0.232833 0.362106,0 0.810538,0.05634 1.010804,0.127 0.214787,0.07578 0.658683,0.127 1.100667,0.127 1.195818,0 1.792341,0.308166 2.086254,1.077765 0.125833,0.32949 0.136218,0.661487 0.09158,2.927767 -0.05682,2.884625 0.01583,3.689714 0.35794,3.966738 0.185302,0.150049 0.8171306,0.15573 17.3185576,0.15573 16.654892,0 17.131667,-0.0044 17.323434,-0.159678 z"
         id="path23"
         inkscape:connector-curvature="0" />
    </g>
  </g>
</svg>
